SplineFontDB: 3.0
FontName: Slipstick-Index-Light-Italic
FullName: Slipstick Index Light Italic
FamilyName: Slipstick Index Light
Weight: Light
Copyright: Copyright (c) 2015-2017 Belleve Invis.
Version: 1.13.3; ttfautohint (v1.6)
ItalicAngle: -10
UnderlinePosition: -25
UnderlineWidth: 50
Ascent: 800
Descent: 200
sfntRevision: 0x00000000
LayerCount: 2
Layer: 0 1 "Back"  1
Layer: 1 1 "Fore"  0
XUID: [1021 619 161513758 10188876]
FSType: 0
OS2Version: 4
OS2_WeightWidthSlopeOnly: 0
OS2_UseTypoMetrics: 1
CreationTime: 1479708639
ModificationTime: 1513596038
PfmFamily: 17
TTFWeight: 300
TTFWidth: 5
LineGap: 67
VLineGap: 0
Panose: 2 0 4 9 0 0 0 0 0 0
OS2TypoAscent: 977
OS2TypoAOffset: 0
OS2TypoDescent: -272
OS2TypoDOffset: 0
OS2TypoLinegap: 0
OS2WinAscent: 977
OS2WinAOffset: 0
OS2WinDescent: 272
OS2WinDOffset: 0
HheadAscent: 977
HheadAOffset: 0
HheadDescent: -205
HheadDOffset: 0
OS2SubXSize: 665
OS2SubYSize: 716
OS2SubXOff: 0
OS2SubYOff: 143
OS2SupXSize: 0
OS2SupYSize: 0
OS2SupXOff: 0
OS2SupYOff: 0
OS2StrikeYSize: 51
OS2StrikeYPos: 265
OS2FamilyClass: 2057
OS2Vendor: 'CYEL'
OS2CodePages: 2000011f.c4000000
OS2UnicodeRanges: e00002ff.5041fcfb.00040010.00000000

StartChar: .notdef
Encoding: 65536 -1 0
Width: 500
GlyphClass: 2
Flags: W
LayerCount: 2
Fore
SplineSet
0 0 m 1,0,-1
 129 735 l 1,1,-1
 501 735 l 1,2,-1
 372 0 l 1,3,-1
 0 0 l 1,0,-1
66 56 m 1,4,-1
 326 56 l 1,5,-1
 435 679 l 1,6,-1
 175 679 l 1,7,-1
 66 56 l 1,4,-1
EndSplineSet
EndChar

StartChar: exclam
Encoding: 33 33 4
Width: 500
GlyphClass: 2
Flags: W
FFAnchorPoint: "Anchor-5" 371 0 basechar 0
FFAnchorPoint: "Anchor-4" 501 735 basechar 0
FFAnchorPoint: "Anchor-3" 250 367 basechar 0
FFAnchorPoint: "Anchor-2" 253 382 basechar 0
FFAnchorPoint: "Anchor-1" 185 0 basechar 0
FFAnchorPoint: "Anchor-0" 315 735 basechar 0
LayerCount: 2
Fore
SplineSet
200 260 m 1,0,-1
 284 735 l 1,1,-1
 347 735 l 1,2,-1
 263 260 l 1,3,-1
 200 260 l 1,0,-1
194 -8 m 0,4,5
 168 -8 168 -8 152.5 7.5 c 128,-1,6
 137 23 137 23 136 50 c 1,7,8
 137 77 137 77 152.5 92.5 c 128,-1,9
 168 108 168 108 194 108 c 0,10,11
 221 108 221 108 237 92 c 128,-1,12
 253 76 253 76 252 50 c 1,13,14
 253 24 253 24 237 8 c 128,-1,15
 221 -8 221 -8 194 -8 c 0,4,5
EndSplineSet
Substitution2: "Single Substitution lookup 67 subtable" glyph3253
EndChar

StartChar: quotedbl
Encoding: 34 34 5
Width: 500
GlyphClass: 2
Flags: W
LayerCount: 2
Fore
SplineSet
335 451 m 1,0,1
 359 613 359 613 387 772 c 1,2,-1
 456 772 l 1,3,4
 429 616 429 616 395 451 c 1,5,-1
 335 451 l 1,0,1
135 451 m 1,6,7
 159 613 159 613 187 772 c 1,8,-1
 256 772 l 1,9,10
 229 616 229 616 195 451 c 1,11,-1
 135 451 l 1,6,7
EndSplineSet
EndChar

StartChar: numbersign
Encoding: 35 35 6
Width: 500
GlyphClass: 2
Flags: W
LayerCount: 2
Fore
SplineSet
47 -88 m 1,0,-1
 90 156 l 1,1,-1
 -1 156 l 1,2,-1
 9 212 l 1,3,-1
 100 212 l 1,4,-1
 153 518 l 1,5,-1
 63 518 l 1,6,-1
 73 574 l 1,7,-1
 163 574 l 1,8,-1
 206 818 l 1,9,-1
 269 818 l 1,10,-1
 226 574 l 1,11,-1
 347 574 l 1,12,-1
 390 818 l 1,13,-1
 453 818 l 1,14,-1
 410 574 l 1,15,-1
 501 574 l 1,16,-1
 491 518 l 1,17,-1
 400 518 l 1,18,-1
 347 212 l 1,19,-1
 437 212 l 1,20,-1
 427 156 l 1,21,-1
 337 156 l 1,22,-1
 294 -88 l 1,23,-1
 231 -88 l 1,24,-1
 274 156 l 1,25,-1
 153 156 l 1,26,-1
 110 -88 l 1,27,-1
 47 -88 l 1,0,-1
163 212 m 1,28,-1
 284 212 l 1,29,-1
 337 518 l 1,30,-1
 216 518 l 1,31,-1
 163 212 l 1,28,-1
EndSplineSet
Substitution2: "'ss09' Style Set 9 lookup 144 subtable" numbersign.ss09
Substitution2: "'ss11' Style Set 11 lookup 143 subtable" numbersign.ss11
EndChar

StartChar: dollar
Encoding: 36 36 7
Width: 500
GlyphClass: 2
Flags: W
FFAnchorPoint: "Anchor-5" 371 0 basechar 0
FFAnchorPoint: "Anchor-4" 501 735 basechar 0
FFAnchorPoint: "Anchor-3" 250 367 basechar 0
FFAnchorPoint: "Anchor-2" 253 382 basechar 0
FFAnchorPoint: "Anchor-1" 185 0 basechar 0
FFAnchorPoint: "Anchor-0" 315 735 basechar 0
LayerCount: 2
Fore
SplineSet
136 -103 m 1,0,-1
 159 32 l 1,1,2
 119 38 119 38 90 56 c 0,3,4
 52 81 52 81 36 121 c 0,5,6
 22 155 22 155 28 192 c 1,7,-1
 90 197 l 1,8,9
 89 193 89 193 88 189 c 0,10,11
 85 166 85 166 93 144 c 1,12,13
 104 118 104 118 128 103 c 1,14,15
 145 91 145 91 170 87 c 1,16,-1
 216 351 l 1,17,18
 207 356 207 356 200 361 c 0,19,20
 130 406 130 406 108 462 c 1,21,22
 89 507 89 507 97 555 c 1,23,24
 105 596 105 596 130 629 c 0,25,26
 154 662 154 662 192 682 c 0,27,28
 231 702 231 702 278 705 c 1,29,-1
 302 838 l 1,30,-1
 365 838 l 1,31,-1
 341 703 l 1,32,33
 381 698 381 698 411 679 c 0,34,35
 449 654 449 654 465 614 c 0,36,37
 479 579 479 579 472 543 c 1,38,-1
 411 539 l 1,39,-1
 411 540 l 1,40,41
 412 544 412 544 412 546 c 0,42,43
 417 569 417 569 408 591 c 0,44,45
 397 617 397 617 373 632 c 0,46,47
 355 644 355 644 331 648 c 1,48,-1
 285 384 l 1,49,50
 294 379 294 379 301 374 c 0,51,52
 371 329 371 329 393 273 c 1,53,54
 412 228 412 228 404 180 c 1,55,56
 396 139 396 139 371 106 c 128,-1,57
 346 73 346 73 309 53 c 0,58,59
 270 33 270 33 223 30 c 1,60,-1
 199 -103 l 1,61,-1
 136 -103 l 1,0,-1
228 418 m 1,62,-1
 268 647 l 1,63,64
 244 643 244 643 224 633 c 0,65,66
 198 619 198 619 181 596 c 128,-1,67
 164 573 164 573 159 546 c 0,68,69
 154 517 154 517 165 488 c 0,70,71
 180 450 180 450 228 418 c 1,62,-1
233 88 m 1,72,73
 257 92 257 92 277 102 c 0,74,75
 303 116 303 116 320 139 c 128,-1,76
 337 162 337 162 342 189 c 0,77,78
 347 218 347 218 336 247 c 1,79,80
 320 285 320 285 273 317 c 1,81,-1
 233 88 l 1,72,73
EndSplineSet
Substitution2: "'ss11' Style Set 11 lookup 152 subtable" dollar.ss11
Substitution2: "'ss09' Style Set 9 lookup 151 subtable" dollar.ss09
EndChar

StartChar: percent
Encoding: 37 37 8
Width: 500
GlyphClass: 2
Flags: W
LayerCount: 2
Fore
SplineSet
90 515 m 1,0,-1
 129 735 l 1,1,-1
 224 735 l 1,2,-1
 185 515 l 1,3,-1
 90 515 l 1,0,-1
0 0 m 1,4,-1
 431 735 l 1,5,-1
 501 735 l 1,6,-1
 69 0 l 1,7,-1
 0 0 l 1,4,-1
277 0 m 1,8,-1
 316 221 l 1,9,-1
 411 221 l 1,10,-1
 372 0 l 1,11,-1
 277 0 l 1,8,-1
EndSplineSet
EndChar

StartChar: ampersand
Encoding: 38 38 9
Width: 500
GlyphClass: 2
Flags: W
LayerCount: 2
Fore
SplineSet
195 -8 m 0,0,1
 134 -8 134 -8 93 18 c 0,2,3
 55 43 55 43 38 86 c 0,4,5
 16 140 16 140 28 207 c 0,6,7
 37 259 37 259 71 304 c 0,8,9
 100 343 100 343 170 386 c 1,10,11
 153 416 153 416 144 439 c 0,12,13
 110 522 110 522 123 595 c 0,14,15
 132 643 132 643 158 678 c 0,16,17
 181 708 181 708 213 725 c 0,18,19
 248 743 248 743 292 743 c 0,20,21
 340 743 340 743 372 722 c 1,22,23
 403 703 403 703 417 667 c 0,24,25
 435 622 435 622 425 565 c 0,26,27
 416 514 416 514 383 470 c 0,28,29
 347 423 347 423 251 369 c 1,30,31
 271 338 271 338 298 302 c 0,32,33
 332 256 332 256 355 219 c 1,34,-1
 381 368 l 1,35,-1
 444 368 l 1,36,-1
 410 174 l 2,37,38
 406 150 406 150 398 129 c 1,39,40
 420 63 420 63 409 0 c 1,41,-1
 346 0 l 1,42,43
 350 25 350 25 349 51 c 1,44,45
 327 30 327 30 300 16 c 0,46,47
 254 -8 254 -8 195 -8 c 0,0,1
222 417 m 1,48,49
 301 462 301 462 331 501 c 0,50,51
 357 536 357 536 364 574 c 1,52,53
 370 614 370 614 359 644 c 1,54,55
 350 665 350 665 333 676 c 128,-1,56
 316 687 316 687 291 687 c 256,57,58
 266 687 266 687 245 676 c 128,-1,59
 224 665 224 665 210 646 c 0,60,61
 191 621 191 621 184 585 c 0,62,63
 174 527 174 527 202 458 c 0,64,65
 209 439 209 439 222 417 c 1,48,49
196 48 m 0,66,67
 236 48 236 48 268 65 c 0,68,69
 297 80 297 80 317 107 c 0,70,71
 326 118 326 118 332 131 c 1,72,73
 331 135 331 135 329 139 c 0,74,75
 309 189 309 189 244 276 c 0,76,77
 219 310 219 310 200 339 c 1,78,79
 146 304 146 304 123 273 c 0,80,81
 96 238 96 238 89 197 c 0,82,83
 80 147 80 147 96 110 c 1,84,85
 107 81 107 81 132.5 64.5 c 128,-1,86
 158 48 158 48 196 48 c 0,66,67
EndSplineSet
EndChar

StartChar: quotesingle
Encoding: 39 39 10
Width: 500
GlyphClass: 2
Flags: W
LayerCount: 2
Fore
SplineSet
235 451 m 1,0,1
 259 613 259 613 287 772 c 1,2,-1
 356 772 l 1,3,4
 329 616 329 616 295 451 c 1,5,-1
 235 451 l 1,0,1
EndSplineSet
EndChar

StartChar: parenleft
Encoding: 40 40 11
Width: 500
GlyphClass: 2
Flags: W
LayerCount: 2
Fore
SplineSet
301 -188 m 1,0,1
 204 -120 204 -120 159 -8 c 0,2,3
 99 143 99 143 138 363 c 0,4,5
 178 588 178 588 291 738 c 0,6,7
 375 849 375 849 496 918 c 1,8,-1
 527 869 l 1,9,10
 418 806 418 806 343 706 c 0,11,12
 237 566 237 566 199 354 c 1,13,14
 164 149 164 149 218 13 c 0,15,16
 256 -82 256 -82 337 -142 c 1,17,-1
 301 -188 l 1,0,1
EndSplineSet
EndChar

StartChar: parenright
Encoding: 41 41 12
Width: 500
GlyphClass: 2
Flags: W
LayerCount: 2
Fore
SplineSet
4 -188 m 1,0,-1
 -27 -139 l 1,1,2
 82 -76 82 -76 157 24 c 0,3,4
 263 164 263 164 301 376 c 1,5,6
 336 581 336 581 282 717 c 0,7,8
 244 812 244 812 163 872 c 1,9,-1
 199 918 l 1,10,11
 296 850 296 850 341 738 c 0,12,13
 401 587 401 587 362 367 c 0,14,15
 322 142 322 142 209 -8 c 0,16,17
 125 -119 125 -119 4 -188 c 1,0,-1
EndSplineSet
EndChar

StartChar: asterisk
Encoding: 42 42 13
Width: 500
GlyphClass: 2
Flags: W
LayerCount: 2
Fore
SplineSet
167 447 m 1,0,-1
 121 484 l 1,1,-1
 255 625 l 1,2,-1
 99 674 l 1,3,-1
 120 727 l 1,4,-1
 277 668 l 1,5,-1
 304 850 l 1,6,-1
 365 841 l 1,7,-1
 330 670 l 1,8,-1
 500 727 l 1,9,-1
 518 674 l 1,10,-1
 334 622 l 1,11,-1
 418 479 l 1,12,-1
 364 452 l 1,13,-1
 292 593 l 1,14,-1
 167 447 l 1,0,-1
EndSplineSet
Substitution2: "'ss10' Style Set 10 lookup 142 subtable" asterisk.ss10
Substitution2: "'ss11' Style Set 11 lookup 141 subtable" asterisk.ss11
Substitution2: "Single Substitution lookup 85 subtable" asterisk.ss10
Substitution2: "Single Substitution lookup 45 subtable" asterisk.ss10
Substitution2: "Single Substitution lookup 42 subtable" asterisk.ss10
Substitution2: "Single Substitution lookup 40 subtable" asterisk.ss10
EndChar

StartChar: plus
Encoding: 43 43 14
Width: 500
GlyphClass: 2
Flags: W
FFAnchorPoint: "Anchor-5" 371 0 basechar 0
FFAnchorPoint: "Anchor-4" 465 530 basechar 0
FFAnchorPoint: "Anchor-3" 250 365 basechar 0
FFAnchorPoint: "Anchor-2" 251 373 basechar 0
FFAnchorPoint: "Anchor-1" 213 160 basechar 0
FFAnchorPoint: "Anchor-0" 286 569 basechar 0
LayerCount: 2
Fore
SplineSet
182 160 m 1,0,-1
 214 337 l 1,1,-1
 59 337 l 1,2,-1
 69 393 l 1,3,-1
 223 393 l 1,4,-1
 255 570 l 1,5,-1
 318 570 l 1,6,-1
 286 393 l 1,7,-1
 441 393 l 1,8,-1
 431 337 l 1,9,-1
 277 337 l 1,10,-1
 245 160 l 1,11,-1
 182 160 l 1,0,-1
EndSplineSet
Substitution2: "Single Substitution lookup 53 subtable" glyph3158
Substitution2: "Single Substitution lookup 52 subtable" glyph3157
Substitution2: "Single Substitution lookup 51 subtable" glyph3155
Substitution2: "Single Substitution lookup 50 subtable" glyph3160
EndChar

StartChar: comma
Encoding: 44 44 15
Width: 500
GlyphClass: 2
Flags: W
LayerCount: 2
Fore
SplineSet
132 -205 m 1,0,-1
 88 -165 l 1,1,2
 116 -138 116 -138 138 -109 c 0,3,4
 176 -59 176 -59 191 -8 c 1,5,6
 173 -7 173 -7 160 0.5 c 128,-1,7
 147 8 147 8 139 22 c 0,8,9
 130 36 130 36 130 57.5 c 128,-1,10
 130 79 130 79 139 93 c 0,11,12
 147 107 147 107 160 114 c 0,13,14
 175 123 175 123 196 123 c 256,15,16
 217 123 217 123 232 114 c 0,17,18
 245 107 245 107 253 93 c 0,19,20
 261 78 261 78 261 58 c 0,21,22
 261 30 261 30 257 8 c 0,23,24
 244 -67 244 -67 188 -141 c 0,25,26
 164 -174 164 -174 132 -205 c 1,0,-1
EndSplineSet
EndChar

StartChar: hyphen
Encoding: 45 45 16
Width: 500
GlyphClass: 2
Flags: W
LayerCount: 2
Fore
SplineSet
59 337 m 1,0,-1
 69 393 l 1,1,-1
 441 393 l 1,2,-1
 431 337 l 1,3,-1
 59 337 l 1,0,-1
EndSplineSet
Substitution2: "Single Substitution lookup 95 subtable" glyph3217
Substitution2: "Single Substitution lookup 94 subtable" glyph3211
Substitution2: "Single Substitution lookup 92 subtable" glyph3200
Substitution2: "Single Substitution lookup 91 subtable" glyph3210
Substitution2: "Single Substitution lookup 90 subtable" glyph3210
Substitution2: "Single Substitution lookup 89 subtable" glyph3216
Substitution2: "Single Substitution lookup 87 subtable" glyph3201
Substitution2: "Single Substitution lookup 79 subtable" glyph3220
Substitution2: "Single Substitution lookup 72 subtable" glyph3195
Substitution2: "Single Substitution lookup 71 subtable" glyph3209
Substitution2: "Single Substitution lookup 70 subtable" glyph3212
Substitution2: "Single Substitution lookup 69 subtable" glyph3213
Substitution2: "Single Substitution lookup 68 subtable" glyph3199
Substitution2: "Single Substitution lookup 66 subtable" glyph3196
Substitution2: "Single Substitution lookup 65 subtable" glyph3208
Substitution2: "Single Substitution lookup 64 subtable" glyph3214
Substitution2: "Single Substitution lookup 63 subtable" glyph3215
Substitution2: "Single Substitution lookup 62 subtable" glyph3218
Substitution2: "Single Substitution lookup 61 subtable" glyph3197
Substitution2: "Single Substitution lookup 60 subtable" glyph3219
Substitution2: "Single Substitution lookup 59 subtable" glyph3198
EndChar

StartChar: period
Encoding: 46 46 17
Width: 500
GlyphClass: 2
Flags: W
LayerCount: 2
Fore
SplineSet
196 -8 m 256,0,1
 175 -8 175 -8 160 1 c 0,2,3
 147 8 147 8 139 22 c 0,4,5
 130 36 130 36 130 57.5 c 128,-1,6
 130 79 130 79 139 93 c 0,7,8
 147 107 147 107 160 114 c 0,9,10
 175 123 175 123 196 123 c 256,11,12
 217 123 217 123 232 114 c 0,13,14
 245 107 245 107 253 93 c 0,15,16
 261 78 261 78 261 57.5 c 128,-1,17
 261 37 261 37 253 22 c 0,18,19
 245 8 245 8 232 1 c 0,20,21
 217 -8 217 -8 196 -8 c 256,0,1
EndSplineSet
Substitution2: "Single Substitution lookup 85 subtable" glyph3108
Substitution2: "Single Substitution lookup 84 subtable" glyph3108
EndChar

StartChar: slash
Encoding: 47 47 18
Width: 500
GlyphClass: 2
Flags: W
LayerCount: 2
Fore
SplineSet
-34 -168 m 1,0,-1
 470 898 l 1,1,-1
 534 898 l 1,2,-1
 30 -168 l 1,3,-1
 -34 -168 l 1,0,-1
EndSplineSet
Substitution2: "Single Substitution lookup 83 subtable" glyph3102
Substitution2: "Single Substitution lookup 80 subtable" glyph3101
EndChar

StartChar: zero
Encoding: 48 48 19
Width: 500
GlyphClass: 2
Flags: W
FFAnchorPoint: "Anchor-5" 371 0 basechar 0
FFAnchorPoint: "Anchor-4" 501 735 basechar 0
FFAnchorPoint: "Anchor-3" 250 367 basechar 0
FFAnchorPoint: "Anchor-2" 253 382 basechar 0
FFAnchorPoint: "Anchor-1" 185 0 basechar 0
FFAnchorPoint: "Anchor-0" 315 735 basechar 0
LayerCount: 2
Fore
SplineSet
195 -8 m 0,0,1
 139 -8 139 -8 100 17 c 128,-1,2
 61 42 61 42 43 88 c 0,3,4
 18 149 18 149 34 241 c 2,5,-1
 86 536 l 2,6,7
 99 609 99 609 137 659 c 0,8,9
 166 698 166 698 208.5 720.5 c 128,-1,10
 251 743 251 743 306 743 c 0,11,12
 362 743 362 743 401 718 c 128,-1,13
 440 693 440 693 458 647 c 0,14,15
 483 586 483 586 467 494 c 2,16,-1
 415 199 l 2,17,18
 402 126 402 126 364 76 c 0,19,20
 334 37 334 37 291.5 14.5 c 128,-1,21
 249 -8 249 -8 195 -8 c 0,0,1
196 48 m 0,22,23
 231 48 231 48 260 63 c 0,24,25
 290 79 290 79 313 109 c 0,26,27
 343 149 343 149 353 209 c 2,28,-1
 405 504 l 1,29,30
 419 577 419 577 399 624 c 1,31,32
 387 656 387 656 361 672 c 1,33,34
 339 687 339 687 305 687 c 0,35,36
 270 687 270 687 241 672 c 0,37,38
 211 656 211 656 188 626 c 0,39,40
 158 586 158 586 147 526 c 2,41,-1
 95 231 l 2,42,43
 83 158 83 158 101 111 c 1,44,45
 115 79 115 79 139 63 c 0,46,47
 162 48 162 48 196 48 c 0,22,23
EndSplineSet
Substitution2: "'ss11' Style Set 11 lookup 131 subtable" zero.ss11
Substitution2: "'ss09' Style Set 9 lookup 130 subtable" zero.ss09
Substitution2: "'ss10' Style Set 10 lookup 129 subtable" zero.ss10
EndChar

StartChar: one
Encoding: 49 49 20
Width: 500
GlyphClass: 2
Flags: W
FFAnchorPoint: "Anchor-5" 371 0 basechar 0
FFAnchorPoint: "Anchor-4" 501 735 basechar 0
FFAnchorPoint: "Anchor-3" 250 367 basechar 0
FFAnchorPoint: "Anchor-2" 253 382 basechar 0
FFAnchorPoint: "Anchor-1" 185 0 basechar 0
FFAnchorPoint: "Anchor-0" 315 735 basechar 0
LayerCount: 2
Fore
SplineSet
184 0 m 1,0,-1
 301 661 l 1,1,-1
 143 570 l 1,2,-1
 112 619 l 1,3,-1
 314 735 l 1,4,-1
 377 735 l 1,5,-1
 247 0 l 1,6,-1
 184 0 l 1,0,-1
EndSplineSet
EndChar

StartChar: two
Encoding: 50 50 21
Width: 500
GlyphClass: 2
Flags: W
FFAnchorPoint: "Anchor-5" 371 0 basechar 0
FFAnchorPoint: "Anchor-4" 501 735 basechar 0
FFAnchorPoint: "Anchor-3" 250 367 basechar 0
FFAnchorPoint: "Anchor-2" 253 382 basechar 0
FFAnchorPoint: "Anchor-1" 185 0 basechar 0
FFAnchorPoint: "Anchor-0" 315 735 basechar 0
LayerCount: 2
Fore
SplineSet
0 0 m 1,0,-1
 0 1 l 1,1,2
 23 132 23 132 75 202 c 0,3,4
 119 260 119 260 228 333 c 0,5,6
 329 401 329 401 366 450 c 0,7,8
 400 496 400 496 409 545 c 0,9,10
 417 590 417 590 403 626 c 0,11,12
 391 655 391 655 367 671 c 1,13,14
 341 687 341 687 303 687 c 0,15,16
 252 687 252 687 213.5 654 c 128,-1,17
 175 621 175 621 157 565 c 1,18,-1
 97 580 l 1,19,20
 111 624 111 624 138 659 c 0,21,22
 168 699 168 699 210 721 c 128,-1,23
 252 743 252 743 303 743 c 0,24,25
 365 743 365 743 406 717 c 0,26,27
 444 693 444 693 461 650 c 0,28,29
 481 598 481 598 470.5 536 c 128,-1,30
 460 474 460 474 417 418 c 1,31,32
 377 364 377 364 265 289 c 1,33,34
 166 224 166 224 127 172 c 0,35,36
 94 128 94 128 75 56 c 1,37,-1
 382 56 l 1,38,-1
 372 0 l 1,39,-1
 0 0 l 1,0,-1
EndSplineSet
EndChar

StartChar: three
Encoding: 51 51 22
Width: 500
GlyphClass: 2
Flags: W
FFAnchorPoint: "Anchor-5" 371 0 basechar 0
FFAnchorPoint: "Anchor-4" 501 735 basechar 0
FFAnchorPoint: "Anchor-3" 250 367 basechar 0
FFAnchorPoint: "Anchor-2" 253 382 basechar 0
FFAnchorPoint: "Anchor-1" 185 0 basechar 0
FFAnchorPoint: "Anchor-0" 315 735 basechar 0
LayerCount: 2
Fore
SplineSet
197 0 m 0,0,1
 129 0 129 0 87 28 c 1,2,3
 50 51 50 51 33 92 c 0,4,5
 21 122 21 122 22 155 c 1,6,-1
 83 167 l 1,7,8
 82 141 82 141 91 118 c 0,9,10
 103 89 103 89 128 74 c 1,11,12
 155 56 155 56 197 56 c 0,13,14
 234 56 234 56 264 72 c 0,15,16
 293 87 293 87 316 116 c 1,17,18
 344 155 344 155 354 212 c 0,19,20
 366 277 366 277 348 322 c 0,21,22
 335 354 335 354 310 370 c 0,23,24
 287 385 287 385 252 385 c 2,25,-1
 161 385 l 1,26,-1
 170 441 l 1,27,-1
 406 679 l 1,28,-1
 119 679 l 1,29,-1
 129 735 l 1,30,-1
 492 735 l 1,31,-1
 482 679 l 1,32,-1
 246 441 l 1,33,-1
 252 441 l 2,34,35
 310 441 310 441 350 416 c 1,36,37
 388 391 388 391 406 345 c 0,38,39
 430 286 430 286 415 203 c 0,40,41
 403 132 403 132 367 84 c 0,42,43
 338 45 338 45 296 23 c 0,44,45
 252 0 252 0 197 0 c 0,0,1
EndSplineSet
Substitution2: "'ss10' Style Set 10 lookup 133 subtable" three.ss10
Substitution2: "'ss11' Style Set 11 lookup 132 subtable" three.ss11
EndChar

StartChar: four
Encoding: 52 52 23
Width: 500
GlyphClass: 2
Flags: W
FFAnchorPoint: "Anchor-5" 371 0 basechar 0
FFAnchorPoint: "Anchor-4" 501 735 basechar 0
FFAnchorPoint: "Anchor-3" 250 367 basechar 0
FFAnchorPoint: "Anchor-2" 253 382 basechar 0
FFAnchorPoint: "Anchor-1" 185 0 basechar 0
FFAnchorPoint: "Anchor-0" 315 735 basechar 0
LayerCount: 2
Fore
SplineSet
244 0 m 1,0,-1
 286 238 l 1,1,-1
 34 238 l 1,2,-1
 43 294 l 1,3,-1
 359 735 l 1,4,-1
 436 735 l 1,5,-1
 359 294 l 1,6,-1
 423 294 l 1,7,-1
 414 238 l 1,8,-1
 349 238 l 1,9,-1
 307 0 l 1,10,-1
 244 0 l 1,0,-1
110 294 m 1,11,-1
 296 294 l 1,12,-1
 357 641 l 1,13,-1
 110 294 l 1,11,-1
EndSplineSet
EndChar

StartChar: five
Encoding: 53 53 24
Width: 500
GlyphClass: 2
Flags: W
FFAnchorPoint: "Anchor-5" 371 0 basechar 0
FFAnchorPoint: "Anchor-4" 501 735 basechar 0
FFAnchorPoint: "Anchor-3" 250 367 basechar 0
FFAnchorPoint: "Anchor-2" 253 382 basechar 0
FFAnchorPoint: "Anchor-1" 185 0 basechar 0
FFAnchorPoint: "Anchor-0" 315 735 basechar 0
LayerCount: 2
Fore
SplineSet
195 -8 m 0,0,1
 131 -8 131 -8 90 19 c 0,2,3
 52 43 52 43 35 86 c 0,4,5
 22 118 22 118 22 155 c 1,6,-1
 82 170 l 1,7,8
 81 138 81 138 92 112 c 0,9,10
 104 81 104 81 130 64.5 c 128,-1,11
 156 48 156 48 195 48 c 0,12,13
 229 48 229 48 257 63 c 0,14,15
 287 78 287 78 311 109 c 0,16,17
 344 153 344 153 356 223 c 0,18,19
 371 306 371 306 349 359 c 0,20,21
 336 392 336 392 311 408 c 0,22,23
 289 422 289 422 258 422 c 0,24,25
 229 422 229 422 206 410 c 0,26,27
 177 395 177 395 153 363 c 0,28,29
 136 341 136 341 125 315 c 1,30,-1
 69 340 l 1,31,-1
 129 679 l 1,32,-1
 139 735 l 1,33,-1
 483 735 l 1,34,-1
 473 679 l 1,35,-1
 192 679 l 1,36,-1
 150 442 l 1,37,38
 163 452 163 452 177 459 c 0,39,40
 214 478 214 478 258 478 c 0,41,42
 312 478 312 478 349 455 c 1,43,44
 388 429 388 429 407 381 c 0,45,46
 435 313 435 313 417 213 c 0,47,48
 403 131 403 131 362 78 c 1,49,50
 332 36 332 36 289.5 14 c 128,-1,51
 247 -8 247 -8 195 -8 c 0,0,1
EndSplineSet
EndChar

StartChar: six
Encoding: 54 54 25
Width: 500
GlyphClass: 2
Flags: W
FFAnchorPoint: "Anchor-5" 371 0 basechar 0
FFAnchorPoint: "Anchor-4" 501 735 basechar 0
FFAnchorPoint: "Anchor-3" 250 367 basechar 0
FFAnchorPoint: "Anchor-2" 253 382 basechar 0
FFAnchorPoint: "Anchor-1" 185 0 basechar 0
FFAnchorPoint: "Anchor-0" 315 735 basechar 0
LayerCount: 2
Fore
SplineSet
195 -8 m 0,0,1
 139 -8 139 -8 100.5 17 c 128,-1,2
 62 42 62 42 43 88 c 0,3,4
 18 150 18 150 34 242 c 0,5,6
 69 437 69 437 160 557 c 0,7,8
 227 647 227 647 327 699 c 0,9,10
 369 721 369 721 414 735 c 1,11,-1
 431 681 l 1,12,13
 395 670 395 670 360 652 c 0,14,15
 272 605 272 605 211 524 c 0,16,17
 171 472 171 472 143 403 c 1,18,19
 162 421 162 421 183 432 c 0,20,21
 215 449 215 449 257 449 c 0,22,23
 310 449 310 449 349 424 c 128,-1,24
 388 399 388 399 406 353 c 0,25,26
 431 291 431 291 415 199 c 0,27,28
 402 126 402 126 364 77 c 0,29,30
 334 37 334 37 291.5 14.5 c 128,-1,31
 249 -8 249 -8 195 -8 c 0,0,1
196 48 m 0,32,33
 231 48 231 48 260.5 63.5 c 128,-1,34
 290 79 290 79 313 109 c 0,35,36
 343 150 343 150 353 208 c 0,37,38
 367 283 367 283 347 331 c 0,39,40
 335 362 335 362 310 378 c 0,41,42
 287 393 287 393 253 393 c 0,43,44
 217 393 217 393 186.5 377 c 128,-1,45
 156 361 156 361 135 332 c 1,46,47
 111 302 111 302 101 259 c 0,48,49
 100 255 100 255 99 251 c 0,50,51
 98 243 98 243 96 234 c 0,52,53
 82 158 82 158 102 111 c 1,54,55
 114 79 114 79 139 63 c 0,56,57
 163 48 163 48 196 48 c 0,32,33
EndSplineSet
EndChar

StartChar: seven
Encoding: 55 55 26
Width: 500
GlyphClass: 2
Flags: W
FFAnchorPoint: "Anchor-5" 371 0 basechar 0
FFAnchorPoint: "Anchor-4" 501 735 basechar 0
FFAnchorPoint: "Anchor-3" 250 367 basechar 0
FFAnchorPoint: "Anchor-2" 253 382 basechar 0
FFAnchorPoint: "Anchor-1" 185 0 basechar 0
FFAnchorPoint: "Anchor-0" 315 735 basechar 0
LayerCount: 2
Fore
SplineSet
70 0 m 1,0,-1
 425 679 l 1,1,-1
 119 679 l 1,2,-1
 129 735 l 1,3,-1
 501 735 l 1,4,-1
 491 679 l 1,5,-1
 137 0 l 1,6,-1
 70 0 l 1,0,-1
EndSplineSet
EndChar

StartChar: eight
Encoding: 56 56 27
Width: 500
GlyphClass: 2
Flags: W
FFAnchorPoint: "Anchor-5" 371 0 basechar 0
FFAnchorPoint: "Anchor-4" 501 735 basechar 0
FFAnchorPoint: "Anchor-3" 250 367 basechar 0
FFAnchorPoint: "Anchor-2" 253 382 basechar 0
FFAnchorPoint: "Anchor-1" 185 0 basechar 0
FFAnchorPoint: "Anchor-0" 315 735 basechar 0
LayerCount: 2
Fore
SplineSet
196 -8 m 0,0,1
 129 -8 129 -8 87 19 c 0,2,3
 49 43 49 43 33 84 c 0,4,5
 15 130 15 130 24 186 c 0,6,7
 33 237 33 237 66 280 c 0,8,9
 105 331 105 331 187 375 c 0,10,11
 194 378 194 378 202 382 c 1,12,13
 141 439 141 439 123 485 c 0,14,15
 102 538 102 538 111 589 c 0,16,17
 119 633 119 633 145 669 c 1,18,19
 170 701 170 701 206 720 c 0,20,21
 250 743 250 743 305 743 c 0,22,23
 365 743 365 743 404 718 c 0,24,25
 439 696 439 696 454 657 c 0,26,27
 472 612 472 612 462 556 c 0,28,29
 454 507 454 507 421 463 c 0,30,31
 383 413 383 413 303 370 c 1,32,33
 375 306 375 306 394 256 c 1,34,35
 416 204 416 204 406 152 c 1,36,37
 399 108 399 108 372 72 c 0,38,39
 346 38 346 38 307 17 c 0,40,41
 259 -8 259 -8 196 -8 c 0,0,1
196 48 m 0,42,43
 240 48 240 48 275 66 c 0,44,45
 303 81 303 81 320 104 c 1,46,47
 340 129 340 129 345 161 c 0,48,49
 352 199 352 199 336 238 c 0,50,51
 317 284 317 284 248 342 c 1,52,53
 237 337 237 337 223 330 c 0,54,55
 150 292 150 292 118 248 c 1,56,57
 92 214 92 214 86 177 c 0,58,59
 79 139 79 139 91 108 c 0,60,61
 102 81 102 81 126 65 c 0,62,63
 153 48 153 48 196 48 c 0,42,43
257 410 m 1,64,65
 261 412 261 412 264 413 c 0,66,67
 336 451 336 451 369 494 c 0,68,69
 394 528 394 528 401 565.5 c 128,-1,70
 408 603 408 603 396 633 c 0,71,72
 386 658 386 658 364 672 c 0,73,74
 341 687 341 687 305 687 c 0,75,76
 268 687 268 687 239 672 c 0,77,78
 213 659 213 659 197 636 c 1,79,80
 178 612 178 612 172 580 c 0,81,82
 166 542 166 542 181 503 c 1,83,84
 199 461 199 461 257 410 c 1,64,65
EndSplineSet
EndChar

StartChar: nine
Encoding: 57 57 28
Width: 500
GlyphClass: 2
Flags: W
FFAnchorPoint: "Anchor-5" 371 0 basechar 0
FFAnchorPoint: "Anchor-4" 501 735 basechar 0
FFAnchorPoint: "Anchor-3" 250 367 basechar 0
FFAnchorPoint: "Anchor-2" 253 382 basechar 0
FFAnchorPoint: "Anchor-1" 185 0 basechar 0
FFAnchorPoint: "Anchor-0" 315 735 basechar 0
LayerCount: 2
Fore
SplineSet
191 -8 m 0,0,1
 135 -8 135 -8 96 17 c 0,2,3
 56 42 56 42 37 91 c 0,4,5
 25 121 25 121 22 155 c 1,6,-1
 78 180 l 1,7,8
 79 145 79 145 91 117 c 1,9,10
 105 81 105 81 132 63 c 1,11,12
 157 48 157 48 191 48 c 0,13,14
 221 48 221 48 246 61 c 0,15,16
 277 77 277 77 302 111 c 0,17,18
 346 169 346 169 364 267 c 2,19,-1
 378 346 l 1,20,21
 351 311 351 311 316 293 c 0,22,23
 284 276 284 276 242 276 c 0,24,25
 189 276 189 276 150.5 301 c 128,-1,26
 112 326 112 326 93 372 c 0,27,28
 68 434 68 434 84 526 c 1,29,-1
 86 536 l 1,30,31
 99 609 99 609 137 659 c 0,32,33
 166 698 166 698 209 720.5 c 128,-1,34
 252 743 252 743 306 743 c 0,35,36
 338 743 338 743 364 736 c 0,37,38
 386 730 386 730 405 718 c 0,39,40
 444 693 444 693 461 648 c 1,41,42
 484 592 484 592 470 510 c 2,43,-1
 425 257 l 2,44,45
 406 149 406 149 354 80 c 0,46,47
 320 35 320 35 276 12 c 0,48,49
 238 -8 238 -8 191 -8 c 0,0,1
246 332 m 0,50,51
 281 332 281 332 311.5 348 c 128,-1,52
 342 364 342 364 364 393 c 0,53,54
 389 427 389 427 400 475 c 1,55,-1
 406 508 l 1,56,-1
 407 515 l 1,57,-1
 408 519 l 1,58,59
 419 582 419 582 403 625 c 1,60,61
 390 656 390 656 365 672 c 0,62,63
 341 687 341 687 306 687 c 0,64,65
 270 687 270 687 241 672 c 0,66,67
 211 656 211 656 188 626 c 0,68,69
 158 586 158 586 147 526 c 1,70,-1
 146 516 l 1,71,72
 132 442 132 442 152 395 c 1,73,74
 164 363 164 363 189 347 c 0,75,76
 212 332 212 332 246 332 c 0,50,51
EndSplineSet
EndChar

StartChar: colon
Encoding: 58 58 29
Width: 500
GlyphClass: 2
Flags: W
LayerCount: 2
Fore
SplineSet
269 407 m 256,0,1
 248 407 248 407 233 416 c 0,2,3
 220 423 220 423 212 437 c 256,4,5
 204 451 204 451 203 473 c 1,6,7
 204 494 204 494 212 508 c 256,8,9
 220 522 220 522 233 529 c 0,10,11
 248 538 248 538 269 538 c 256,12,13
 290 538 290 538 305 529 c 0,14,15
 318 522 318 522 326 508 c 0,16,17
 335 493 335 493 334 473 c 1,18,19
 335 452 335 452 326 437 c 0,20,21
 318 423 318 423 305 416 c 0,22,23
 290 407 290 407 269 407 c 256,0,1
196 -8 m 256,24,25
 175 -8 175 -8 160 1 c 0,26,27
 147 8 147 8 139 22 c 0,28,29
 130 36 130 36 130 57.5 c 128,-1,30
 130 79 130 79 139 93 c 0,31,32
 147 107 147 107 160 114 c 0,33,34
 175 123 175 123 196 123 c 256,35,36
 217 123 217 123 232 114 c 0,37,38
 245 107 245 107 253 93 c 0,39,40
 261 78 261 78 261 57.5 c 128,-1,41
 261 37 261 37 253 22 c 0,42,43
 245 8 245 8 232 1 c 0,44,45
 217 -8 217 -8 196 -8 c 256,24,25
EndSplineSet
Substitution2: "Single Substitution lookup 85 subtable" glyph3085
Substitution2: "Single Substitution lookup 49 subtable" glyph3086
Substitution2: "Single Substitution lookup 48 subtable" glyph3087
Substitution2: "Single Substitution lookup 47 subtable" glyph3084
Substitution2: "Single Substitution lookup 45 subtable" glyph3085
Substitution2: "Single Substitution lookup 41 subtable" glyph3085
EndChar

StartChar: semicolon
Encoding: 59 59 30
Width: 500
GlyphClass: 2
Flags: W
LayerCount: 2
Fore
SplineSet
269 407 m 256,0,1
 248 407 248 407 233 416 c 0,2,3
 220 423 220 423 212 437 c 256,4,5
 204 451 204 451 203 473 c 1,6,7
 204 494 204 494 212 508 c 256,8,9
 220 522 220 522 233 529 c 0,10,11
 248 538 248 538 269 538 c 256,12,13
 290 538 290 538 305 529 c 0,14,15
 318 522 318 522 326 508 c 0,16,17
 335 493 335 493 334 473 c 1,18,19
 335 452 335 452 326 437 c 0,20,21
 318 423 318 423 305 416 c 0,22,23
 290 407 290 407 269 407 c 256,0,1
132 -205 m 1,24,-1
 88 -165 l 1,25,26
 116 -138 116 -138 138 -109 c 0,27,28
 176 -59 176 -59 191 -8 c 1,29,30
 173 -7 173 -7 160 0.5 c 128,-1,31
 147 8 147 8 139 22 c 0,32,33
 130 36 130 36 130 57.5 c 128,-1,34
 130 79 130 79 139 93 c 0,35,36
 147 107 147 107 160 114 c 0,37,38
 175 123 175 123 196 123 c 256,39,40
 217 123 217 123 232 114 c 0,41,42
 245 107 245 107 253 93 c 0,43,44
 261 78 261 78 261 58 c 0,45,46
 261 30 261 30 257 8 c 0,47,48
 244 -67 244 -67 188 -141 c 0,49,50
 164 -174 164 -174 132 -205 c 1,24,-1
EndSplineSet
EndChar

StartChar: less
Encoding: 60 60 31
Width: 500
GlyphClass: 2
Flags: W
FFAnchorPoint: "Anchor-5" 371 0 basechar 0
FFAnchorPoint: "Anchor-4" 465 530 basechar 0
FFAnchorPoint: "Anchor-3" 250 365 basechar 0
FFAnchorPoint: "Anchor-2" 251 373 basechar 0
FFAnchorPoint: "Anchor-1" 213 160 basechar 0
FFAnchorPoint: "Anchor-0" 286 569 basechar 0
LayerCount: 2
Fore
SplineSet
382 128 m 1,0,-1
 58 333 l 1,1,-1
 70 397 l 1,2,-1
 459 603 l 1,3,-1
 488 553 l 1,4,-1
 121 365 l 1,5,-1
 415 175 l 1,6,-1
 382 128 l 1,0,-1
EndSplineSet
Substitution2: "Single Substitution lookup 98 subtable" glyph3185
Substitution2: "Single Substitution lookup 97 subtable" glyph3190
Substitution2: "Single Substitution lookup 96 subtable" glyph3192
Substitution2: "Single Substitution lookup 86 subtable" glyph3187
Substitution2: "Single Substitution lookup 56 subtable" glyph3164
EndChar

StartChar: equal
Encoding: 61 61 32
Width: 500
GlyphClass: 2
Flags: W
FFAnchorPoint: "Anchor-5" 371 0 basechar 0
FFAnchorPoint: "Anchor-4" 465 530 basechar 0
FFAnchorPoint: "Anchor-3" 250 365 basechar 0
FFAnchorPoint: "Anchor-2" 251 373 basechar 0
FFAnchorPoint: "Anchor-1" 213 160 basechar 0
FFAnchorPoint: "Anchor-0" 286 569 basechar 0
LayerCount: 2
Fore
SplineSet
78 444 m 1,0,-1
 88 500 l 1,1,-1
 460 500 l 1,2,-1
 450 444 l 1,3,-1
 78 444 l 1,0,-1
40 230 m 1,4,-1
 50 286 l 1,5,-1
 422 286 l 1,6,-1
 412 230 l 1,7,-1
 40 230 l 1,4,-1
EndSplineSet
Substitution2: "Single Substitution lookup 95 subtable" glyph3246
Substitution2: "Single Substitution lookup 94 subtable" glyph3240
Substitution2: "Single Substitution lookup 92 subtable" glyph3229
Substitution2: "Single Substitution lookup 91 subtable" glyph3239
Substitution2: "Single Substitution lookup 89 subtable" glyph3245
Substitution2: "Single Substitution lookup 87 subtable" glyph3230
Substitution2: "Single Substitution lookup 79 subtable" glyph3249
Substitution2: "Single Substitution lookup 72 subtable" glyph3224
Substitution2: "Single Substitution lookup 71 subtable" glyph3238
Substitution2: "Single Substitution lookup 70 subtable" glyph3241
Substitution2: "Single Substitution lookup 69 subtable" glyph3242
Substitution2: "Single Substitution lookup 66 subtable" glyph3225
Substitution2: "Single Substitution lookup 65 subtable" glyph3237
Substitution2: "Single Substitution lookup 64 subtable" glyph3243
Substitution2: "Single Substitution lookup 63 subtable" glyph3244
Substitution2: "Single Substitution lookup 62 subtable" glyph3247
Substitution2: "Single Substitution lookup 61 subtable" glyph3226
Substitution2: "Single Substitution lookup 60 subtable" glyph3248
Substitution2: "Single Substitution lookup 59 subtable" glyph3227
EndChar

StartChar: greater
Encoding: 62 62 33
Width: 500
GlyphClass: 2
Flags: W
FFAnchorPoint: "Anchor-5" 371 0 basechar 0
FFAnchorPoint: "Anchor-4" 465 530 basechar 0
FFAnchorPoint: "Anchor-3" 250 365 basechar 0
FFAnchorPoint: "Anchor-2" 251 373 basechar 0
FFAnchorPoint: "Anchor-1" 213 160 basechar 0
FFAnchorPoint: "Anchor-0" 286 569 basechar 0
LayerCount: 2
Fore
SplineSet
41 127 m 1,0,-1
 12 177 l 1,1,-1
 380 365 l 1,2,-1
 85 555 l 1,3,-1
 118 602 l 1,4,-1
 442 397 l 1,5,-1
 430 333 l 1,6,-1
 41 127 l 1,0,-1
EndSplineSet
Substitution2: "Single Substitution lookup 100 subtable" glyph3180
Substitution2: "Single Substitution lookup 99 subtable" glyph3175
Substitution2: "Single Substitution lookup 93 subtable" glyph3177
Substitution2: "Single Substitution lookup 88 subtable" glyph3182
Substitution2: "Single Substitution lookup 58 subtable" glyph3166
EndChar

StartChar: question
Encoding: 63 63 34
Width: 500
GlyphClass: 2
Flags: W
LayerCount: 2
Fore
SplineSet
254 211 m 1,0,-1
 193 221 l 1,1,2
 208 303 208 303 242 349 c 0,3,4
 263 376 263 376 312 420 c 0,5,6
 355 459 355 459 372 482 c 0,7,8
 400 519 400 519 408 560 c 1,9,10
 414 598 414 598 402 629 c 0,11,12
 391 655 391 655 368 670 c 0,13,14
 342 687 342 687 302 687 c 0,15,16
 266 687 266 687 237 672 c 128,-1,17
 208 657 208 657 188 629.5 c 128,-1,18
 168 602 168 602 158 569 c 1,19,-1
 97 580 l 1,20,21
 110 624 110 624 137 661 c 1,22,23
 167 699 167 699 207 721 c 1,24,25
 250 743 250 743 302 743 c 0,26,27
 366 743 366 743 407 717 c 0,28,29
 443 693 443 693 460 652 c 0,30,31
 479 605 479 605 468 548 c 1,32,33
 459 492 459 492 421 442 c 0,34,35
 399 413 399 413 350 369 c 0,36,37
 311 335 311 335 293 312 c 0,38,39
 266 275 266 275 254 211 c 1,0,-1
194 -8 m 0,40,41
 168 -8 168 -8 152.5 7.5 c 128,-1,42
 137 23 137 23 136 50 c 1,43,44
 137 77 137 77 152.5 92.5 c 128,-1,45
 168 108 168 108 194 108 c 0,46,47
 221 108 221 108 237 92 c 128,-1,48
 253 76 253 76 252 50 c 1,49,50
 253 24 253 24 237 8 c 128,-1,51
 221 -8 221 -8 194 -8 c 0,40,41
EndSplineSet
EndChar

StartChar: at
Encoding: 64 64 35
Width: 500
GlyphClass: 2
Flags: W
LayerCount: 2
Fore
SplineSet
166 -176 m 2,0,1
 108 -176 108 -176 70 -151 c 1,2,3
 33 -128 33 -128 16 -85 c 0,4,5
 -6 -31 -6 -31 8 48 c 2,6,-1
 127 724 l 2,7,8
 138 785 138 785 170 827 c 0,9,10
 197 863 197 863 237 884 c 0,11,12
 279 906 279 906 335 906 c 0,13,14
 392 906 392 906 430 882 c 0,15,16
 467 858 467 858 484 815 c 0,17,18
 506 761 506 761 492 682 c 2,19,-1
 478 604 l 1,20,-1
 475 584 l 1,21,-1
 400 159 l 2,22,23
 391 113 391 113 369 83 c 0,24,25
 351 60 351 60 329 48 c 0,26,27
 308 37 308 37 280 37 c 0,28,29
 246 37 246 37 222.5 52 c 128,-1,30
 199 67 199 67 188 96 c 0,31,32
 173 133 173 133 183 187 c 2,33,-1
 241 517 l 2,34,35
 248 556 248 556 269 584 c 0,36,37
 287 608 287 608 315 623 c 0,38,39
 347 640 347 640 388 640 c 2,40,-1
 422 640 l 1,41,-1
 431 692 l 2,42,43
 441 752 441 752 425 791 c 0,44,45
 414 820 414 820 390 836 c 1,46,47
 367 850 367 850 334 850 c 0,48,49
 298 850 298 850 269 835 c 0,50,51
 242 820 242 820 221 794 c 1,52,53
 197 761 197 761 189 714 c 2,54,-1
 69 38 l 2,55,56
 59 -22 59 -22 75 -61 c 0,57,58
 86 -90 86 -90 110 -105 c 1,59,60
 132 -120 132 -120 166 -120 c 2,61,-1
 322 -120 l 1,62,-1
 322 -176 l 1,63,-1
 166 -176 l 2,0,1
281 93 m 0,64,65
 295 93 295 93 307 103 c 0,66,67
 331 123 331 123 338 169 c 1,68,-1
 412 584 l 1,69,-1
 388 584 l 1,70,71
 365 583 365 583 348 574 c 0,72,73
 332 566 332 566 320 551 c 0,74,75
 307 533 307 533 302 508 c 2,76,-1
 244 177 l 2,77,78
 235 127 235 127 254 105 c 0,79,80
 264 93 264 93 281 93 c 0,64,65
EndSplineSet
Substitution2: "'ss05' Style Set 5 lookup 138 subtable" at.ss05
Substitution2: "'ss07' Style Set 7 lookup 137 subtable" at.ss07
Substitution2: "'ss11' Style Set 11 lookup 136 subtable" at.ss11
EndChar

StartChar: A
Encoding: 65 65 36
Width: 500
GlyphClass: 2
Flags: W
FFAnchorPoint: "Anchor-6" 343 0 basechar 0
FFAnchorPoint: "Anchor-5" 371 0 basechar 0
FFAnchorPoint: "Anchor-4" 501 735 basechar 0
FFAnchorPoint: "Anchor-3" 250 367 basechar 0
FFAnchorPoint: "Anchor-2" 253 382 basechar 0
FFAnchorPoint: "Anchor-1" 185 0 basechar 0
FFAnchorPoint: "Anchor-0" 315 735 basechar 0
LayerCount: 2
Fore
SplineSet
0 0 m 1,0,-1
 13 74 l 2,1,2
 48 273 48 273 284 735 c 1,3,-1
 347 735 l 1,4,5
 420 273 420 273 385 74 c 2,6,-1
 372 0 l 1,7,-1
 309 0 l 1,8,-1
 322 74 l 2,9,10
 332 131 332 131 334 209 c 1,11,-1
 112 209 l 1,12,13
 86 130 86 130 76 74 c 2,14,-1
 63 0 l 1,15,-1
 0 0 l 1,0,-1
132 265 m 1,16,-1
 334 265 l 1,17,18
 331 421 331 421 302 648 c 1,19,20
 249 541 249 541 205 442.5 c 128,-1,21
 161 344 161 344 132 265 c 1,16,-1
EndSplineSet
EndChar

StartChar: B
Encoding: 66 66 37
Width: 500
GlyphClass: 2
Flags: W
FFAnchorPoint: "Anchor-5" 371 0 basechar 0
FFAnchorPoint: "Anchor-4" 501 735 basechar 0
FFAnchorPoint: "Anchor-3" 250 367 basechar 0
FFAnchorPoint: "Anchor-2" 253 382 basechar 0
FFAnchorPoint: "Anchor-1" 185 0 basechar 0
FFAnchorPoint: "Anchor-0" 315 735 basechar 0
LayerCount: 2
Fore
SplineSet
0 0 m 1,0,-1
 129 735 l 1,1,-1
 286 735 l 2,2,3
 343 735 343 735 381 711 c 0,4,5
 416 688 416 688 433 647 c 0,6,7
 453 597 453 597 441 528 c 0,8,9
 432 476 432 476 406 443 c 1,10,11
 382 410 382 410 345 391 c 0,12,13
 333 385 333 385 320 380 c 1,14,15
 334 374 334 374 347 366 c 0,16,17
 387 340 387 340 404 297 c 0,18,19
 424 249 424 249 412 185 c 0,20,21
 402 128 402 128 372 88 c 0,22,23
 344 50 344 50 301 28 c 0,24,25
 248 0 248 0 180 0 c 2,26,-1
 0 0 l 1,0,-1
245 410 m 2,27,28
 278 410 278 410 306 425 c 0,29,30
 331 438 331 438 349 462 c 0,31,32
 371 492 371 492 379 536 c 0,33,34
 388 587 388 587 374 624 c 0,35,36
 363 651 363 651 341 665 c 128,-1,37
 319 679 319 679 286 679 c 2,38,-1
 182 679 l 1,39,-1
 135 410 l 1,40,-1
 245 410 l 2,27,28
73 56 m 1,41,-1
 180 56 l 2,42,43
 229 56 229 56 268 76 c 0,44,45
 299 93 299 93 321 121 c 1,46,47
 343 151 343 151 351 195 c 0,48,49
 360 247 360 247 345 284 c 0,50,51
 332 317 332 317 304 334 c 1,52,53
 274 354 274 354 227 354 c 2,54,-1
 125 354 l 1,55,-1
 73 56 l 1,41,-1
EndSplineSet
EndChar

StartChar: C
Encoding: 67 67 38
Width: 500
GlyphClass: 2
Flags: W
FFAnchorPoint: "Anchor-5" 371 0 basechar 0
FFAnchorPoint: "Anchor-4" 501 735 basechar 0
FFAnchorPoint: "Anchor-3" 250 367 basechar 0
FFAnchorPoint: "Anchor-2" 253 382 basechar 0
FFAnchorPoint: "Anchor-1" 185 0 basechar 0
FFAnchorPoint: "Anchor-0" 315 735 basechar 0
LayerCount: 2
Fore
SplineSet
209 -8 m 0,0,1
 140 -8 140 -8 96 20 c 0,2,3
 56 46 56 46 38 91 c 0,4,5
 17 143 17 143 30 216 c 2,6,-1
 91 561 l 2,7,8
 101 620 101 620 133 662 c 0,9,10
 160 698 160 698 200 719 c 0,11,12
 246 743 246 743 304 743 c 0,13,14
 370 743 370 743 414 715 c 0,15,16
 453 689 453 689 470 648 c 0,17,18
 483 615 483 615 479 580 c 1,19,-1
 417 573 l 2,20,21
 418 574 418 574 418 577 c 0,22,23
 422 601 422 601 413 625 c 0,24,25
 402 652 402 652 377 668 c 0,26,27
 347 687 347 687 304 687 c 0,28,29
 265 687 265 687 233 671 c 1,30,31
 204 655 204 655 184 629 c 0,32,33
 160 596 160 596 152 551 c 2,34,-1
 91 206 l 2,35,36
 81 152 81 152 97 115 c 1,37,38
 109 84 109 84 136 66 c 1,39,40
 165 48 165 48 209 48 c 0,41,42
 248 48 248 48 280 65 c 128,-1,43
 312 82 312 82 337 114 c 0,44,45
 350 132 350 132 360 153 c 1,46,-1
 417 132 l 1,47,48
 406 106 406 106 388 82 c 0,49,50
 356 40 356 40 311 16 c 0,51,52
 265 -8 265 -8 209 -8 c 0,0,1
EndSplineSet
EndChar

StartChar: D
Encoding: 68 68 39
Width: 500
GlyphClass: 2
Flags: W
FFAnchorPoint: "Anchor-5" 371 0 basechar 0
FFAnchorPoint: "Anchor-4" 501 735 basechar 0
FFAnchorPoint: "Anchor-3" 250 367 basechar 0
FFAnchorPoint: "Anchor-2" 253 382 basechar 0
FFAnchorPoint: "Anchor-1" 185 0 basechar 0
FFAnchorPoint: "Anchor-0" 315 735 basechar 0
LayerCount: 2
Fore
SplineSet
0 0 m 1,0,-1
 129 735 l 1,1,-1
 287 735 l 2,2,3
 346 735 346 735 387 709 c 0,4,5
 429 682 429 682 449 630 c 1,6,7
 478 559 478 559 459 451 c 2,8,-1
 422 242 l 2,9,10
 408 160 408 160 364 102 c 0,11,12
 329 55 329 55 279 29 c 0,13,14
 224 0 224 0 157 0 c 2,15,-1
 0 0 l 1,0,-1
73 56 m 1,16,-1
 157 56 l 2,17,18
 206 56 206 56 246 77 c 0,19,20
 284 97 284 97 313 135 c 0,21,22
 349 182 349 182 361 252 c 2,23,-1
 398 460 l 2,24,25
 414 551 414 551 391 608 c 0,26,27
 376 645 376 645 348 663 c 0,28,29
 323 679 323 679 287 679 c 2,30,-1
 182 679 l 1,31,-1
 73 56 l 1,16,-1
EndSplineSet
EndChar

StartChar: E
Encoding: 69 69 40
Width: 500
GlyphClass: 2
Flags: W
FFAnchorPoint: "Anchor-5" 371 0 basechar 0
FFAnchorPoint: "Anchor-4" 501 735 basechar 0
FFAnchorPoint: "Anchor-3" 250 367 basechar 0
FFAnchorPoint: "Anchor-2" 253 382 basechar 0
FFAnchorPoint: "Anchor-1" 185 0 basechar 0
FFAnchorPoint: "Anchor-0" 315 735 basechar 0
LayerCount: 2
Fore
SplineSet
32 0 m 1,0,-1
 161 735 l 1,1,-1
 501 735 l 1,2,-1
 491 679 l 1,3,-1
 214 679 l 1,4,-1
 170 425 l 1,5,-1
 391 425 l 1,6,-1
 381 369 l 1,7,-1
 160 369 l 1,8,-1
 105 56 l 1,9,-1
 382 56 l 1,10,-1
 372 0 l 1,11,-1
 32 0 l 1,0,-1
EndSplineSet
EndChar

StartChar: F
Encoding: 70 70 41
Width: 500
GlyphClass: 2
Flags: W
FFAnchorPoint: "Anchor-5" 371 0 basechar 0
FFAnchorPoint: "Anchor-4" 501 735 basechar 0
FFAnchorPoint: "Anchor-3" 250 367 basechar 0
FFAnchorPoint: "Anchor-2" 253 382 basechar 0
FFAnchorPoint: "Anchor-1" 185 0 basechar 0
FFAnchorPoint: "Anchor-0" 315 735 basechar 0
LayerCount: 2
Fore
SplineSet
32 0 m 1,0,-1
 161 735 l 1,1,-1
 501 735 l 1,2,-1
 491 679 l 1,3,-1
 214 679 l 1,4,-1
 170 425 l 1,5,-1
 391 425 l 1,6,-1
 381 369 l 1,7,-1
 160 369 l 1,8,-1
 95 0 l 1,9,-1
 32 0 l 1,0,-1
EndSplineSet
EndChar

StartChar: G
Encoding: 71 71 42
Width: 500
GlyphClass: 2
Flags: W
FFAnchorPoint: "Anchor-5" 371 0 basechar 0
FFAnchorPoint: "Anchor-4" 501 735 basechar 0
FFAnchorPoint: "Anchor-3" 250 367 basechar 0
FFAnchorPoint: "Anchor-2" 253 382 basechar 0
FFAnchorPoint: "Anchor-1" 185 0 basechar 0
FFAnchorPoint: "Anchor-0" 315 735 basechar 0
LayerCount: 2
Fore
SplineSet
195 -8 m 0,0,1
 134 -8 134 -8 93 18 c 0,2,3
 55 43 55 43 38 86 c 0,4,5
 16 140 16 140 30 216 c 2,6,-1
 91 561 l 2,7,8
 101 620 101 620 133 662 c 0,9,10
 160 698 160 698 200 719 c 0,11,12
 246 743 246 743 304 743 c 0,13,14
 370 743 370 743 414 715 c 0,15,16
 453 689 453 689 470 648 c 0,17,18
 483 615 483 615 479 580 c 1,19,-1
 417 573 l 2,20,21
 418 574 418 574 418 577 c 0,22,23
 422 601 422 601 413 625 c 0,24,25
 402 652 402 652 377 668 c 0,26,27
 347 687 347 687 304 687 c 0,28,29
 265 687 265 687 233 671 c 1,30,31
 204 655 204 655 184 629 c 0,32,33
 160 596 160 596 152 551 c 2,34,-1
 91 206 l 2,35,36
 81 148 81 148 97 110 c 1,37,38
 108 80 108 80 133 64 c 128,-1,39
 158 48 158 48 195 48 c 256,40,41
 232 48 232 48 260 63 c 128,-1,42
 288 78 288 78 308 104 c 0,43,44
 333 136 333 136 341 184 c 2,45,-1
 369 340 l 1,46,-1
 256 340 l 1,47,-1
 256 396 l 1,48,-1
 442 396 l 1,49,-1
 432 340 l 1,50,-1
 402 174 l 2,51,52
 392 114 392 114 360 71 c 0,53,54
 332 35 332 35 293 14 c 0,55,56
 250 -8 250 -8 195 -8 c 0,0,1
EndSplineSet
EndChar

StartChar: H
Encoding: 72 72 43
Width: 500
GlyphClass: 2
Flags: W
FFAnchorPoint: "Anchor-5" 371 0 basechar 0
FFAnchorPoint: "Anchor-4" 501 735 basechar 0
FFAnchorPoint: "Anchor-3" 250 367 basechar 0
FFAnchorPoint: "Anchor-2" 253 382 basechar 0
FFAnchorPoint: "Anchor-1" 185 0 basechar 0
FFAnchorPoint: "Anchor-0" 315 735 basechar 0
LayerCount: 2
Fore
SplineSet
0 0 m 1,0,-1
 129 735 l 1,1,-1
 192 735 l 1,2,-1
 136 414 l 1,3,-1
 382 414 l 1,4,-1
 438 735 l 1,5,-1
 501 735 l 1,6,-1
 372 0 l 1,7,-1
 309 0 l 1,8,-1
 372 358 l 1,9,-1
 126 358 l 1,10,-1
 63 0 l 1,11,-1
 0 0 l 1,0,-1
EndSplineSet
EndChar

StartChar: I
Encoding: 73 73 44
Width: 500
GlyphClass: 2
Flags: W
FFAnchorPoint: "Anchor-5" 371 0 basechar 0
FFAnchorPoint: "Anchor-4" 501 735 basechar 0
FFAnchorPoint: "Anchor-3" 250 367 basechar 0
FFAnchorPoint: "Anchor-2" 253 382 basechar 0
FFAnchorPoint: "Anchor-1" 185 0 basechar 0
FFAnchorPoint: "Anchor-0" 315 735 basechar 0
LayerCount: 2
Fore
SplineSet
52 0 m 1,0,-1
 52 56 l 1,1,-1
 164 56 l 1,2,-1
 274 679 l 1,3,-1
 169 679 l 1,4,-1
 169 735 l 1,5,-1
 449 735 l 1,6,-1
 449 679 l 1,7,-1
 337 679 l 1,8,-1
 227 56 l 1,9,-1
 332 56 l 1,10,-1
 332 0 l 1,11,-1
 52 0 l 1,0,-1
EndSplineSet
EndChar

StartChar: J
Encoding: 74 74 45
Width: 500
GlyphClass: 2
Flags: W
FFAnchorPoint: "Anchor-5" 371 0 basechar 0
FFAnchorPoint: "Anchor-4" 501 735 basechar 0
FFAnchorPoint: "Anchor-3" 250 367 basechar 0
FFAnchorPoint: "Anchor-2" 370 382 basechar 0
FFAnchorPoint: "Anchor-1" 185 0 basechar 0
FFAnchorPoint: "Anchor-0" 432 735 basechar 0
LayerCount: 2
Fore
SplineSet
173 -8 m 0,0,1
 111 -8 111 -8 70 18 c 0,2,3
 34 42 34 42 18 82 c 0,4,5
 4 116 4 116 6 155 c 1,6,-1
 67 167 l 1,7,8
 65 134 65 134 76 108 c 0,9,10
 87 80 87 80 111.5 64 c 128,-1,11
 136 48 136 48 173 48 c 0,12,13
 207 48 207 48 233 62 c 0,14,15
 262 77 262 77 283 106 c 1,16,17
 313 145 313 145 324 205 c 2,18,-1
 407 679 l 1,19,-1
 268 679 l 1,20,-1
 268 735 l 1,21,-1
 480 735 l 1,22,-1
 385 195 l 2,23,24
 372 123 372 123 335 73 c 0,25,26
 306 35 306 35 265 13.5 c 128,-1,27
 224 -8 224 -8 173 -8 c 0,0,1
EndSplineSet
EndChar

StartChar: K
Encoding: 75 75 46
Width: 500
GlyphClass: 2
Flags: W
FFAnchorPoint: "Anchor-5" 371 0 basechar 0
FFAnchorPoint: "Anchor-4" 501 735 basechar 0
FFAnchorPoint: "Anchor-3" 250 367 basechar 0
FFAnchorPoint: "Anchor-2" 253 382 basechar 0
FFAnchorPoint: "Anchor-1" 185 0 basechar 0
FFAnchorPoint: "Anchor-0" 315 735 basechar 0
LayerCount: 2
Fore
SplineSet
0 0 m 1,0,-1
 129 735 l 1,1,-1
 192 735 l 1,2,-1
 129 373 l 1,3,4
 292 517 292 517 380 634 c 0,5,6
 429 699 429 699 435 735 c 1,7,-1
 501 735 l 1,8,9
 494 692 494 692 435 614 c 0,10,11
 378 538 378 538 295 453 c 1,12,13
 400 116 400 116 380 0 c 1,14,-1
 317 0 l 1,15,16
 335 105 335 105 246 405 c 1,17,18
 185 346 185 346 113 283 c 1,19,-1
 63 0 l 1,20,-1
 0 0 l 1,0,-1
EndSplineSet
EndChar

StartChar: L
Encoding: 76 76 47
Width: 500
GlyphClass: 2
Flags: W
FFAnchorPoint: "Anchor-5" 371 0 basechar 0
FFAnchorPoint: "Anchor-4" 501 735 basechar 0
FFAnchorPoint: "Anchor-3" 250 367 basechar 0
FFAnchorPoint: "Anchor-2" 253 382 basechar 0
FFAnchorPoint: "Anchor-1" 185 0 basechar 0
FFAnchorPoint: "Anchor-0" 315 735 basechar 0
LayerCount: 2
Fore
SplineSet
32 0 m 1,0,-1
 161 735 l 1,1,-1
 224 735 l 1,2,-1
 105 56 l 1,3,-1
 390 56 l 1,4,-1
 380 0 l 1,5,-1
 32 0 l 1,0,-1
EndSplineSet
EndChar

StartChar: M
Encoding: 77 77 48
Width: 500
GlyphClass: 2
Flags: W
FFAnchorPoint: "Anchor-5" 371 0 basechar 0
FFAnchorPoint: "Anchor-4" 501 735 basechar 0
FFAnchorPoint: "Anchor-3" 250 367 basechar 0
FFAnchorPoint: "Anchor-2" 253 382 basechar 0
FFAnchorPoint: "Anchor-1" 185 0 basechar 0
FFAnchorPoint: "Anchor-0" 315 735 basechar 0
LayerCount: 2
Fore
SplineSet
0 0 m 1,0,-1
 26 147 l 1,1,-1
 129 735 l 1,2,-1
 212 735 l 1,3,-1
 244 332 l 1,4,-1
 418 735 l 1,5,-1
 501 735 l 1,6,-1
 398 147 l 1,7,-1
 372 0 l 1,8,-1
 309 0 l 1,9,-1
 335 147 l 2,10,11
 348 225 348 225 389 442 c 0,12,13
 407 536 407 536 421 607 c 1,14,-1
 253 221 l 1,15,-1
 196 221 l 1,16,-1
 165 608 l 1,17,18
 154 539 154 539 137 438 c 0,19,20
 107 251 107 251 89 147 c 2,21,-1
 63 0 l 1,22,-1
 0 0 l 1,0,-1
EndSplineSet
EndChar

StartChar: N
Encoding: 78 78 49
Width: 500
GlyphClass: 2
Flags: W
FFAnchorPoint: "Anchor-5" 371 0 basechar 0
FFAnchorPoint: "Anchor-4" 501 735 basechar 0
FFAnchorPoint: "Anchor-3" 250 367 basechar 0
FFAnchorPoint: "Anchor-2" 253 382 basechar 0
FFAnchorPoint: "Anchor-1" 185 0 basechar 0
FFAnchorPoint: "Anchor-0" 315 735 basechar 0
LayerCount: 2
Fore
SplineSet
0 0 m 1,0,-1
 51 294 l 1,1,-1
 129 735 l 1,2,-1
 220 735 l 1,3,-1
 327 102 l 1,4,-1
 386 441 l 1,5,-1
 438 735 l 1,6,-1
 501 735 l 1,7,-1
 449 441 l 1,8,-1
 372 0 l 1,9,-1
 281 0 l 1,10,-1
 174 634 l 1,11,-1
 114 294 l 1,12,-1
 63 0 l 1,13,-1
 0 0 l 1,0,-1
EndSplineSet
EndChar

StartChar: O
Encoding: 79 79 50
Width: 500
GlyphClass: 2
Flags: W
FFAnchorPoint: "Anchor-5" 371 0 basechar 0
FFAnchorPoint: "Anchor-4" 501 735 basechar 0
FFAnchorPoint: "Anchor-3" 250 367 basechar 0
FFAnchorPoint: "Anchor-2" 253 382 basechar 0
FFAnchorPoint: "Anchor-1" 185 0 basechar 0
FFAnchorPoint: "Anchor-0" 315 735 basechar 0
LayerCount: 2
Fore
SplineSet
195 -8 m 0,0,1
 134 -8 134 -8 93 18 c 0,2,3
 55 43 55 43 38 86 c 0,4,5
 16 140 16 140 30 216 c 2,6,-1
 91 561 l 2,7,8
 101 619 101 619 132 661 c 0,9,10
 160 698 160 698 201 719 c 0,11,12
 246 743 246 743 306 743 c 0,13,14
 367 743 367 743 407 717 c 1,15,16
 446 693 446 693 463 649 c 0,17,18
 485 595 485 595 471 519 c 2,19,-1
 410 174 l 2,20,21
 400 116 400 116 369 74 c 0,22,23
 341 37 341 37 300 16 c 0,24,25
 254 -8 254 -8 195 -8 c 0,0,1
196 48 m 0,26,27
 236 48 236 48 268 65 c 0,28,29
 297 80 297 80 317 107 c 0,30,31
 341 139 341 139 349 184 c 2,32,-1
 410 529 l 2,33,34
 420 587 420 587 404 625 c 1,35,36
 393 655 393 655 367 671 c 1,37,38
 343 687 343 687 305 687 c 0,39,40
 265 687 265 687 233 670 c 0,41,42
 204 655 204 655 184 628 c 0,43,44
 160 596 160 596 152 551 c 2,45,-1
 91 206 l 2,46,47
 81 148 81 148 97 110 c 1,48,49
 108 80 108 80 133.5 64 c 128,-1,50
 159 48 159 48 196 48 c 0,26,27
EndSplineSet
EndChar

StartChar: P
Encoding: 80 80 51
Width: 500
GlyphClass: 2
Flags: W
FFAnchorPoint: "Anchor-5" 371 0 basechar 0
FFAnchorPoint: "Anchor-4" 501 735 basechar 0
FFAnchorPoint: "Anchor-3" 250 367 basechar 0
FFAnchorPoint: "Anchor-2" 253 382 basechar 0
FFAnchorPoint: "Anchor-1" 185 0 basechar 0
FFAnchorPoint: "Anchor-0" 315 735 basechar 0
LayerCount: 2
Fore
SplineSet
16 0 m 1,0,-1
 145 735 l 1,1,-1
 302 735 l 2,2,3
 364 735 364 735 404 709 c 0,4,5
 443 684 443 684 460 639 c 1,6,7
 483 584 483 584 469 507 c 0,8,9
 458 444 458 444 426 402 c 0,10,11
 398 364 398 364 357 343 c 0,12,13
 310 318 310 318 252 318 c 2,14,-1
 135 318 l 1,15,-1
 79 0 l 1,16,-1
 16 0 l 1,0,-1
252 374 m 2,17,18
 292 374 292 374 324 391 c 0,19,20
 354 407 354 407 374 434 c 0,21,22
 399 467 399 467 408 516 c 0,23,24
 418 575 418 575 402 616 c 0,25,26
 389 647 389 647 364 663 c 128,-1,27
 339 679 339 679 302 679 c 2,28,-1
 198 679 l 1,29,-1
 145 374 l 1,30,-1
 252 374 l 2,17,18
EndSplineSet
EndChar

StartChar: Q
Encoding: 81 81 52
Width: 500
GlyphClass: 2
Flags: W
FFAnchorPoint: "Anchor-5" 371 0 basechar 0
FFAnchorPoint: "Anchor-4" 501 735 basechar 0
FFAnchorPoint: "Anchor-3" 250 367 basechar 0
FFAnchorPoint: "Anchor-2" 253 382 basechar 0
FFAnchorPoint: "Anchor-1" 185 0 basechar 0
FFAnchorPoint: "Anchor-0" 315 735 basechar 0
LayerCount: 2
Fore
SplineSet
301 -155 m 2,0,1
 241 -155 241 -155 205 -131 c 0,2,3
 175 -112 175 -112 162 -80 c 128,-1,4
 149 -48 149 -48 155 -5 c 1,5,6
 120 1 120 1 93 18 c 0,7,8
 55 43 55 43 38 86 c 0,9,10
 16 140 16 140 30 216 c 2,11,-1
 91 561 l 2,12,13
 101 619 101 619 132 661 c 0,14,15
 160 698 160 698 201 719 c 0,16,17
 246 743 246 743 306 743 c 0,18,19
 367 743 367 743 407 717 c 1,20,21
 446 693 446 693 463 649 c 0,22,23
 485 595 485 595 471 519 c 2,24,-1
 410 174 l 2,25,26
 400 116 400 116 369 74 c 0,27,28
 341 37 341 37 300 16 c 0,29,30
 263 -3 263 -3 218 -7 c 1,31,32
 215 -35 215 -35 223 -54.5 c 128,-1,33
 231 -74 231 -74 249 -86 c 0,34,35
 269 -99 269 -99 301 -99 c 2,36,-1
 338 -99 l 1,37,-1
 338 -155 l 1,38,-1
 301 -155 l 2,0,1
196 48 m 0,39,40
 236 48 236 48 268 65 c 0,41,42
 297 80 297 80 317 107 c 0,43,44
 341 139 341 139 349 184 c 2,45,-1
 410 529 l 2,46,47
 420 587 420 587 404 625 c 1,48,49
 393 655 393 655 367 671 c 1,50,51
 343 687 343 687 305 687 c 0,52,53
 265 687 265 687 233 670 c 0,54,55
 204 655 204 655 184 628 c 0,56,57
 160 596 160 596 152 551 c 2,58,-1
 91 206 l 2,59,60
 81 148 81 148 97 110 c 1,61,62
 108 80 108 80 133.5 64 c 128,-1,63
 159 48 159 48 196 48 c 0,39,40
EndSplineSet
Substitution2: "Single Substitution lookup 122 subtable" Q.cv43
Substitution2: "'ss11' Style Set 11 lookup 121 subtable" Q.ss11
EndChar

StartChar: R
Encoding: 82 82 53
Width: 500
GlyphClass: 2
Flags: W
FFAnchorPoint: "Anchor-5" 371 0 basechar 0
FFAnchorPoint: "Anchor-4" 501 735 basechar 0
FFAnchorPoint: "Anchor-3" 250 367 basechar 0
FFAnchorPoint: "Anchor-2" 123 346 basechar 0
FFAnchorPoint: "Anchor-1" 185 0 basechar 0
FFAnchorPoint: "Anchor-0" 315 735 basechar 0
LayerCount: 2
Fore
SplineSet
0 0 m 1,0,-1
 129 735 l 1,1,-1
 302 735 l 2,2,3
 364 735 364 735 404 709 c 0,4,5
 443 684 443 684 460 639 c 1,6,7
 483 584 483 584 469 507 c 0,8,9
 458 444 458 444 426 402 c 0,10,11
 398 364 398 364 357 343 c 0,12,13
 329 328 329 328 296 322 c 1,14,15
 326 268 326 268 346 218 c 0,16,17
 396 94 396 94 380 0 c 1,18,-1
 317 0 l 1,19,20
 332 87 332 87 286 203 c 0,21,22
 263 259 263 259 228 318 c 1,23,-1
 119 318 l 1,24,-1
 63 0 l 1,25,-1
 0 0 l 1,0,-1
252 374 m 2,26,27
 292 374 292 374 324 391 c 0,28,29
 354 407 354 407 374 434 c 0,30,31
 399 467 399 467 408 516 c 0,32,33
 418 575 418 575 402 616 c 0,34,35
 389 647 389 647 364 663 c 128,-1,36
 339 679 339 679 302 679 c 2,37,-1
 182 679 l 1,38,-1
 129 374 l 1,39,-1
 252 374 l 2,26,27
EndSplineSet
EndChar

StartChar: S
Encoding: 83 83 54
Width: 500
GlyphClass: 2
Flags: W
FFAnchorPoint: "Anchor-5" 371 0 basechar 0
FFAnchorPoint: "Anchor-4" 501 735 basechar 0
FFAnchorPoint: "Anchor-3" 250 367 basechar 0
FFAnchorPoint: "Anchor-2" 253 382 basechar 0
FFAnchorPoint: "Anchor-1" 185 0 basechar 0
FFAnchorPoint: "Anchor-0" 315 735 basechar 0
LayerCount: 2
Fore
SplineSet
193 -8 m 0,0,1
 128 -8 128 -8 85 20 c 1,2,3
 46 44 46 44 30 85 c 0,4,5
 16 119 16 119 22 155 c 1,6,-1
 84 160 l 1,7,-1
 83 158 l 1,8,9
 83 155 83 155 82 154 c 0,10,11
 78 130 78 130 87 108 c 0,12,13
 98 82 98 82 122 66 c 0,14,15
 150 48 150 48 193 48 c 0,16,17
 233 48 233 48 265 64 c 1,18,19
 292 79 292 79 311 104 c 0,20,21
 332 131 332 131 338 165 c 0,22,23
 344 202 344 202 330 236 c 0,24,25
 312 283 312 283 234 340 c 0,26,27
 138 410 138 410 113 473 c 0,28,29
 92 526 92 526 102 578 c 1,30,31
 110 625 110 625 139 664 c 0,32,33
 165 699 165 699 204 719 c 0,34,35
 249 743 249 743 308 743 c 0,36,37
 373 743 373 743 416 715 c 0,38,39
 454 691 454 691 471 650 c 1,40,41
 484 616 484 616 479 580 c 1,42,-1
 417 575 l 1,43,44
 418 579 418 579 418 581 c 0,45,46
 423 604 423 604 414 627 c 0,47,48
 403 653 403 653 379 669 c 0,49,50
 351 687 351 687 308 687 c 0,51,52
 268 687 268 687 236 671 c 1,53,54
 209 656 209 656 190 631 c 0,55,56
 169 604 169 604 163 570 c 0,57,58
 157 533 157 533 171 499 c 0,59,60
 189 452 189 452 267 395 c 0,61,62
 363 325 363 325 388 262 c 0,63,64
 409 209 409 209 399 157 c 1,65,66
 391 110 391 110 362 71 c 0,67,68
 336 36 336 36 297 16 c 0,69,70
 251 -8 251 -8 193 -8 c 0,0,1
EndSplineSet
EndChar

StartChar: T
Encoding: 84 84 55
Width: 500
GlyphClass: 2
Flags: W
FFAnchorPoint: "Anchor-5" 217 0 basechar 0
FFAnchorPoint: "Anchor-4" 501 735 basechar 0
FFAnchorPoint: "Anchor-3" 250 367 basechar 0
FFAnchorPoint: "Anchor-2" 253 382 basechar 0
FFAnchorPoint: "Anchor-1" 185 0 basechar 0
FFAnchorPoint: "Anchor-0" 315 735 basechar 0
LayerCount: 2
Fore
SplineSet
154 0 m 1,0,-1
 274 679 l 1,1,-1
 119 679 l 1,2,-1
 129 735 l 1,3,-1
 501 735 l 1,4,-1
 491 679 l 1,5,-1
 337 679 l 1,6,-1
 217 0 l 1,7,-1
 154 0 l 1,0,-1
EndSplineSet
EndChar

StartChar: U
Encoding: 85 85 56
Width: 500
GlyphClass: 2
Flags: W
FFAnchorPoint: "Anchor-5" 371 0 basechar 0
FFAnchorPoint: "Anchor-4" 501 735 basechar 0
FFAnchorPoint: "Anchor-3" 250 367 basechar 0
FFAnchorPoint: "Anchor-2" 253 382 basechar 0
FFAnchorPoint: "Anchor-1" 185 0 basechar 0
FFAnchorPoint: "Anchor-0" 315 735 basechar 0
LayerCount: 2
Fore
SplineSet
195 -8 m 0,0,1
 138 -8 138 -8 100.5 16 c 128,-1,2
 63 40 63 40 46 83 c 0,3,4
 24 137 24 137 38 216 c 2,5,-1
 129 735 l 1,6,-1
 192 735 l 1,7,-1
 99 206 l 2,8,9
 89 147 89 147 104 107 c 0,10,11
 116 77 116 77 140 62 c 0,12,13
 162 48 162 48 196 48 c 0,14,15
 232 48 232 48 260 63 c 128,-1,16
 288 78 288 78 308 104 c 0,17,18
 333 136 333 136 341 184 c 2,19,-1
 438 735 l 1,20,-1
 501 735 l 1,21,-1
 402 174 l 2,22,23
 392 114 392 114 360 71 c 0,24,25
 332 35 332 35 293 14 c 0,26,27
 250 -8 250 -8 195 -8 c 0,0,1
EndSplineSet
EndChar

StartChar: V
Encoding: 86 86 57
Width: 500
GlyphClass: 2
Flags: W
FFAnchorPoint: "Anchor-5" 371 0 basechar 0
FFAnchorPoint: "Anchor-4" 501 735 basechar 0
FFAnchorPoint: "Anchor-3" 250 367 basechar 0
FFAnchorPoint: "Anchor-2" 253 382 basechar 0
FFAnchorPoint: "Anchor-1" 185 0 basechar 0
FFAnchorPoint: "Anchor-0" 315 735 basechar 0
LayerCount: 2
Fore
SplineSet
154 0 m 1,0,1
 81 462 81 462 116 662 c 2,2,-1
 129 735 l 1,3,-1
 192 735 l 1,4,-1
 179 662 l 1,5,6
 148 482 148 482 198 86 c 1,7,8
 251 193 251 193 296 293 c 0,9,10
 403 535 403 535 425 662 c 2,11,-1
 438 735 l 1,12,-1
 501 735 l 1,13,-1
 488 662 l 2,14,15
 453 462 453 462 217 0 c 1,16,-1
 154 0 l 1,0,1
EndSplineSet
EndChar

StartChar: W
Encoding: 87 87 58
Width: 500
GlyphClass: 2
Flags: W
FFAnchorPoint: "Anchor-5" 371 0 basechar 0
FFAnchorPoint: "Anchor-4" 501 735 basechar 0
FFAnchorPoint: "Anchor-3" 250 367 basechar 0
FFAnchorPoint: "Anchor-2" 253 382 basechar 0
FFAnchorPoint: "Anchor-1" 185 0 basechar 0
FFAnchorPoint: "Anchor-0" 315 735 basechar 0
LayerCount: 2
Fore
SplineSet
74 0 m 1,0,1
 67 385 67 385 97 551 c 1,2,-1
 129 735 l 1,3,-1
 192 735 l 1,4,-1
 160 551 l 2,5,6
 135 412 135 412 118 122 c 1,7,-1
 239 441 l 1,8,-1
 287 441 l 1,9,-1
 294 117 l 1,10,11
 381 412 381 412 406 551 c 2,12,-1
 438 735 l 1,13,-1
 501 735 l 1,14,-1
 469 551 l 2,15,16
 439 383 439 383 297 0 c 1,17,-1
 249 0 l 1,18,-1
 242 320 l 1,19,-1
 122 0 l 1,20,-1
 74 0 l 1,0,1
EndSplineSet
EndChar

StartChar: X
Encoding: 88 88 59
Width: 500
GlyphClass: 2
Flags: W
FFAnchorPoint: "Anchor-5" 371 0 basechar 0
FFAnchorPoint: "Anchor-4" 501 735 basechar 0
FFAnchorPoint: "Anchor-3" 250 367 basechar 0
FFAnchorPoint: "Anchor-2" 253 382 basechar 0
FFAnchorPoint: "Anchor-1" 185 0 basechar 0
FFAnchorPoint: "Anchor-0" 315 735 basechar 0
LayerCount: 2
Fore
SplineSet
0 0 m 1,0,-1
 6 37 l 1,1,2
 22 129 22 129 93 223 c 0,3,4
 94 224 94 224 95 226 c 0,5,6
 105 238 105 238 109 242 c 2,7,-1
 215 371 l 1,8,-1
 155 498 l 2,9,10
 147 515 147 515 143 526 c 0,11,12
 108 613 108 613 123 698 c 1,13,-1
 129 735 l 1,14,-1
 192 735 l 1,15,-1
 186 698 l 1,16,17
 170 609 170 609 211 522 c 2,18,-1
 258 424 l 1,19,-1
 344 528 l 2,20,21
 417 616 417 616 432 698 c 1,22,-1
 438 735 l 1,23,-1
 501 735 l 1,24,-1
 495 698 l 1,25,26
 478 606 478 606 408 512 c 0,27,28
 406 510 406 510 403 506 c 0,29,30
 395 496 395 496 392 493 c 2,31,-1
 286 364 l 1,32,-1
 346 237 l 2,33,34
 354 220 354 220 358 209 c 0,35,36
 393 122 393 122 378 37 c 1,37,-1
 372 0 l 1,38,-1
 309 0 l 1,39,-1
 315 37 l 1,40,41
 331 126 331 126 290 213 c 2,42,-1
 243 312 l 1,43,-1
 157 207 l 2,44,45
 84 119 84 119 69 37 c 1,46,-1
 63 0 l 1,47,-1
 0 0 l 1,0,-1
EndSplineSet
EndChar

StartChar: Y
Encoding: 89 89 60
Width: 500
GlyphClass: 2
Flags: W
FFAnchorPoint: "Anchor-5" 371 0 basechar 0
FFAnchorPoint: "Anchor-4" 501 735 basechar 0
FFAnchorPoint: "Anchor-3" 250 367 basechar 0
FFAnchorPoint: "Anchor-2" 237 294 basechar 0
FFAnchorPoint: "Anchor-1" 185 0 basechar 0
FFAnchorPoint: "Anchor-0" 315 735 basechar 0
LayerCount: 2
Fore
SplineSet
154 0 m 1,0,-1
 206 291 l 1,1,-1
 146 456 l 2,2,3
 102 577 102 577 121 691 c 1,4,-1
 129 735 l 1,5,-1
 192 735 l 1,6,-1
 184 691 l 2,7,8
 165 582 165 582 204 475 c 2,9,-1
 247 359 l 1,10,-1
 335 482 l 2,11,12
 413 590 413 590 430 691 c 1,13,-1
 438 735 l 1,14,-1
 501 735 l 1,15,-1
 493 691 l 2,16,17
 472 570 472 570 386 449 c 1,18,-1
 267 284 l 1,19,-1
 217 0 l 1,20,-1
 154 0 l 1,0,-1
EndSplineSet
EndChar

StartChar: Z
Encoding: 90 90 61
Width: 500
GlyphClass: 2
Flags: W
FFAnchorPoint: "Anchor-5" 371 0 basechar 0
FFAnchorPoint: "Anchor-4" 501 735 basechar 0
FFAnchorPoint: "Anchor-3" 250 367 basechar 0
FFAnchorPoint: "Anchor-2" 253 382 basechar 0
FFAnchorPoint: "Anchor-1" 185 0 basechar 0
FFAnchorPoint: "Anchor-0" 315 735 basechar 0
LayerCount: 2
Fore
SplineSet
0 0 m 1,0,-1
 10 56 l 1,1,-1
 419 679 l 1,2,-1
 119 679 l 1,3,-1
 129 735 l 1,4,-1
 501 735 l 1,5,-1
 491 679 l 1,6,-1
 82 56 l 1,7,-1
 382 56 l 1,8,-1
 372 0 l 1,9,-1
 0 0 l 1,0,-1
EndSplineSet
EndChar

StartChar: bracketleft
Encoding: 91 91 62
Width: 500
GlyphClass: 2
Flags: W
LayerCount: 2
Fore
SplineSet
7 -168 m 1,0,-1
 185 842 l 1,1,-1
 195 898 l 1,2,-1
 511 898 l 1,3,-1
 502 842 l 1,4,-1
 248 842 l 1,5,-1
 80 -112 l 1,6,-1
 333 -112 l 1,7,-1
 323 -168 l 1,8,-1
 7 -168 l 1,0,-1
EndSplineSet
EndChar

StartChar: backslash
Encoding: 92 92 63
Width: 500
GlyphClass: 2
Flags: W
LayerCount: 2
Fore
SplineSet
336 -168 m 1,0,-1
 97 898 l 1,1,-1
 164 898 l 1,2,-1
 403 -168 l 1,3,-1
 336 -168 l 1,0,-1
EndSplineSet
Substitution2: "Single Substitution lookup 82 subtable" glyph3103
Substitution2: "Single Substitution lookup 81 subtable" glyph3104
EndChar

StartChar: bracketright
Encoding: 93 93 64
Width: 500
GlyphClass: 2
Flags: W
LayerCount: 2
Fore
SplineSet
-11 -168 m 1,0,-1
 -2 -112 l 1,1,-1
 252 -112 l 1,2,-1
 420 842 l 1,3,-1
 167 842 l 1,4,-1
 177 898 l 1,5,-1
 493 898 l 1,6,-1
 315 -112 l 1,7,-1
 305 -168 l 1,8,-1
 -11 -168 l 1,0,-1
EndSplineSet
EndChar

StartChar: asciicircum
Encoding: 94 94 65
Width: 500
GlyphClass: 2
Flags: W
LayerCount: 2
Fore
SplineSet
157 543 m 1,0,-1
 109 583 l 1,1,-1
 289 772 l 1,2,-1
 355 772 l 1,3,-1
 466 577 l 1,4,-1
 408 549 l 1,5,-1
 314 725 l 1,6,-1
 157 543 l 1,0,-1
EndSplineSet
Substitution2: "Single Substitution lookup 150 subtable" asciicircum.cv30
Substitution2: "'ss11' Style Set 11 lookup 149 subtable" asciicircum.ss11
Substitution2: "Single Substitution lookup 85 subtable" asciicircum.cv30
Substitution2: "Single Substitution lookup 45 subtable" asciicircum.cv30
Substitution2: "Single Substitution lookup 43 subtable" asciicircum.cv30
EndChar

StartChar: underscore
Encoding: 95 95 66
Width: 500
GlyphClass: 2
Flags: W
LayerCount: 2
Fore
SplineSet
0 0 m 1,0,-1
 10 56 l 1,1,-1
 382 56 l 1,2,-1
 372 0 l 1,3,-1
 0 0 l 1,0,-1
EndSplineSet
Substitution2: "'ss10' Style Set 10 lookup 146 subtable" underscore.ss10
Substitution2: "'ss11' Style Set 11 lookup 145 subtable" underscore.ss11
EndChar

StartChar: grave
Encoding: 96 96 67
Width: 500
GlyphClass: 2
Flags: W
LayerCount: 2
Fore
SplineSet
299 546 m 1,0,-1
 167 741 l 1,1,-1
 224 775 l 1,2,-1
 346 574 l 1,3,-1
 299 546 l 1,0,-1
EndSplineSet
EndChar

StartChar: a
Encoding: 97 97 68
Width: 500
GlyphClass: 2
Flags: W
FFAnchorPoint: "Anchor-6" 343 0 basechar 0
FFAnchorPoint: "Anchor-5" 399 0 basechar 0
FFAnchorPoint: "Anchor-4" 465 530 basechar 0
FFAnchorPoint: "Anchor-3" 232 265 basechar 0
FFAnchorPoint: "Anchor-2" 234 275 basechar 0
FFAnchorPoint: "Anchor-1" 185 0 basechar 0
FFAnchorPoint: "Anchor-0" 279 530 basechar 0
LayerCount: 2
Fore
SplineSet
169 -8 m 0,0,1
 124 -8 124 -8 93 12 c 0,2,3
 60 33 60 33 42 76 c 0,4,5
 16 142 16 142 42 289 c 0,6,7
 62 404 62 404 101 456 c 0,8,9
 131 496 131 496 171 517 c 0,10,11
 212 538 212 538 261 538 c 0,12,13
 303 538 303 538 331 520 c 0,14,15
 364 499 364 499 380 457 c 0,16,17
 383 449 383 449 386 440 c 1,18,-1
 402 530 l 1,19,-1
 465 530 l 1,20,-1
 402 174 l 2,21,22
 384 69 384 69 398 0 c 1,23,-1
 335 0 l 1,24,25
 328 37 328 37 329 83 c 1,26,27
 325 77 325 77 320 70 c 0,28,29
 291 32 291 32 252 12 c 0,30,31
 215 -8 215 -8 169 -8 c 0,0,1
195 48 m 256,32,33
 228 48 228 48 255 62 c 0,34,35
 283 77 283 77 305 105 c 1,36,37
 334 145 334 145 344 203 c 2,38,-1
 360 293 l 2,39,40
 375 373 375 373 355 423 c 0,41,42
 342 454 342 454 319 469 c 0,43,44
 298 482 298 482 268 482 c 0,45,46
 234 482 234 482 205 467 c 0,47,48
 175 451 175 451 152 421 c 0,49,50
 121 379 121 379 104 280 c 0,51,52
 82 159 82 159 102 111 c 1,53,54
 114 79 114 79 140 63 c 1,55,56
 162 48 162 48 195 48 c 256,32,33
EndSplineSet
Substitution2: "'ss10' Style Set 10 lookup 117 subtable" a.ss10
Substitution2: "'ss11' Style Set 11 lookup 116 subtable" a.ss11
EndChar

StartChar: b
Encoding: 98 98 69
Width: 500
GlyphClass: 2
Flags: W
FFAnchorPoint: "Anchor-5" 371 0 basechar 0
FFAnchorPoint: "Anchor-4" 501 735 basechar 0
FFAnchorPoint: "Anchor-3" 250 367 basechar 0
FFAnchorPoint: "Anchor-2" 253 382 basechar 0
FFAnchorPoint: "Anchor-1" 185 0 basechar 0
FFAnchorPoint: "Anchor-0" 315 735 basechar 0
LayerCount: 2
Fore
SplineSet
204 -8 m 0,0,1
 162 -8 162 -8 133 10 c 0,2,3
 101 31 101 31 84 73 c 0,4,5
 81 81 81 81 79 89 c 1,6,-1
 63 0 l 1,7,-1
 0 0 l 1,8,-1
 129 735 l 1,9,-1
 192 735 l 1,10,-1
 143 457 l 1,11,-1
 145 460 l 1,12,13
 173 498 173 498 213 518 c 1,14,15
 250 538 250 538 296 538 c 0,16,17
 341 538 341 538 371 518 c 1,18,19
 405 497 405 497 422 454 c 0,20,21
 449 389 449 389 423 241 c 0,22,23
 402 125 402 125 363 74 c 1,24,25
 334 34 334 34 293.5 13 c 128,-1,26
 253 -8 253 -8 204 -8 c 0,0,1
197 48 m 0,27,28
 231 48 231 48 260 63 c 0,29,30
 290 79 290 79 312 109 c 1,31,32
 344 150 344 150 361 250 c 1,33,34
 383 371 383 371 363 419 c 0,35,36
 350 451 350 451 325 467 c 0,37,38
 302 482 302 482 269 482 c 256,39,40
 236 482 236 482 210 468 c 0,41,42
 182 453 182 453 160 425 c 0,43,44
 134 390 134 390 123 339 c 1,45,-1
 101 218 l 1,46,47
 93 151 93 151 110 107 c 0,48,49
 123 76 123 76 146 61 c 0,50,51
 166 48 166 48 197 48 c 0,27,28
EndSplineSet
EndChar

StartChar: c
Encoding: 99 99 70
Width: 500
GlyphClass: 2
Flags: W
FFAnchorPoint: "Anchor-5" 371 0 basechar 0
FFAnchorPoint: "Anchor-4" 465 530 basechar 0
FFAnchorPoint: "Anchor-3" 232 265 basechar 0
FFAnchorPoint: "Anchor-2" 234 275 basechar 0
FFAnchorPoint: "Anchor-1" 185 0 basechar 0
FFAnchorPoint: "Anchor-0" 279 530 basechar 0
LayerCount: 2
Fore
SplineSet
211 -8 m 0,0,1
 146 -8 146 -8 103 19 c 1,2,3
 62 46 62 46 43 94 c 0,4,5
 18 156 18 156 42 287 c 1,6,7
 62 402 62 402 100 453 c 0,8,9
 131 493 131 493 172 515 c 0,10,11
 216 538 216 538 269 538 c 0,12,13
 335 538 335 538 377 511 c 0,14,15
 414 487 414 487 431 445 c 0,16,17
 444 412 444 412 443 375 c 1,18,-1
 382 363 l 1,19,20
 384 393 384 393 373 419 c 0,21,22
 361 449 361 449 336 465 c 0,23,24
 309 482 309 482 269 482 c 0,25,26
 234 482 234 482 205 467 c 0,27,28
 175 451 175 451 152 421 c 0,29,30
 121 379 121 379 103 279 c 0,31,32
 83 165 83 165 102 118 c 0,33,34
 116 83 116 83 144 65 c 0,35,36
 171 48 171 48 211 48 c 0,37,38
 248 48 248 48 278 64 c 0,39,40
 311 81 311 81 337 115 c 0,41,42
 351 134 351 134 362 157 c 1,43,-1
 417 132 l 1,44,45
 405 107 405 107 388 85 c 0,46,47
 354 39 354 39 308 15 c 0,48,49
 265 -8 265 -8 211 -8 c 0,0,1
EndSplineSet
EndChar

StartChar: d
Encoding: 100 100 71
Width: 500
GlyphClass: 2
Flags: W
FFAnchorPoint: "Anchor-5" 371 0 basechar 0
FFAnchorPoint: "Anchor-4" 501 735 basechar 0
FFAnchorPoint: "Anchor-3" 250 367 basechar 0
FFAnchorPoint: "Anchor-2" 253 382 basechar 0
FFAnchorPoint: "Anchor-1" 185 0 basechar 0
FFAnchorPoint: "Anchor-0" 315 735 basechar 0
LayerCount: 2
Fore
SplineSet
169 -8 m 0,0,1
 124 -8 124 -8 93 12 c 0,2,3
 60 33 60 33 42 76 c 0,4,5
 16 142 16 142 42 289 c 0,6,7
 62 404 62 404 101 456 c 0,8,9
 131 496 131 496 171 517 c 0,10,11
 212 538 212 538 261 538 c 0,12,13
 303 538 303 538 331 520 c 0,14,15
 364 499 364 499 380 457 c 0,16,17
 383 449 383 449 386 440 c 1,18,-1
 438 735 l 1,19,-1
 501 735 l 1,20,-1
 372 0 l 1,21,-1
 309 0 l 1,22,-1
 322 73 l 1,23,-1
 320 70 l 1,24,25
 291 32 291 32 252 12 c 0,26,27
 215 -8 215 -8 169 -8 c 0,0,1
195 48 m 256,28,29
 228 48 228 48 255 62 c 0,30,31
 283 77 283 77 305 105 c 1,32,33
 334 145 334 145 344 203 c 2,34,-1
 360 293 l 2,35,36
 375 373 375 373 355 423 c 0,37,38
 342 454 342 454 319 469 c 0,39,40
 298 482 298 482 268 482 c 0,41,42
 234 482 234 482 205 467 c 0,43,44
 175 451 175 451 152 421 c 0,45,46
 121 379 121 379 104 280 c 0,47,48
 82 159 82 159 102 111 c 1,49,50
 114 79 114 79 140 63 c 1,51,52
 162 48 162 48 195 48 c 256,28,29
EndSplineSet
EndChar

StartChar: e
Encoding: 101 101 72
Width: 500
GlyphClass: 2
Flags: W
FFAnchorPoint: "Anchor-5" 371 0 basechar 0
FFAnchorPoint: "Anchor-4" 465 530 basechar 0
FFAnchorPoint: "Anchor-3" 232 265 basechar 0
FFAnchorPoint: "Anchor-2" 234 275 basechar 0
FFAnchorPoint: "Anchor-1" 185 0 basechar 0
FFAnchorPoint: "Anchor-0" 279 530 basechar 0
LayerCount: 2
Fore
SplineSet
217 -8 m 0,0,1
 149 -8 149 -8 105 20 c 0,2,3
 62 47 62 47 43 96 c 0,4,5
 19 156 19 156 41 286 c 1,6,7
 62 402 62 402 100 453 c 0,8,9
 131 494 131 494 173 516 c 128,-1,10
 215 538 215 538 270 538 c 0,11,12
 326 538 326 538 364.5 513 c 128,-1,13
 403 488 403 488 422 442 c 0,14,15
 447 381 447 381 431 289 c 1,16,-1
 421 237 l 1,17,-1
 97 237 l 1,18,19
 87 158 87 158 102 120 c 0,20,21
 116 85 116 85 145 66.5 c 128,-1,22
 174 48 174 48 217 48 c 0,23,24
 256 48 256 48 288.5 65 c 128,-1,25
 321 82 321 82 347 116 c 0,26,27
 354 126 354 126 357 132 c 1,28,-1
 413 107 l 1,29,30
 406 96 406 96 399 87 c 0,31,32
 365 41 365 41 318.5 16.5 c 128,-1,33
 272 -8 272 -8 217 -8 c 0,0,1
106 293 m 1,34,-1
 368 293 l 1,35,-1
 369 299 l 2,36,37
 382 372 382 372 363 419 c 0,38,39
 351 451 351 451 325 467 c 1,40,41
 303 482 303 482 269 482 c 0,42,43
 234 482 234 482 205 467 c 0,44,45
 175 451 175 451 152 421 c 0,46,47
 123 383 123 383 106 293 c 1,34,-1
EndSplineSet
EndChar

StartChar: f
Encoding: 102 102 73
Width: 500
GlyphClass: 2
Flags: W
FFAnchorPoint: "Anchor-5" 335 -205 basechar 0
FFAnchorPoint: "Anchor-4" 501 735 basechar 0
FFAnchorPoint: "Anchor-3" 232 265 basechar 0
FFAnchorPoint: "Anchor-2" 235 283 basechar 0
FFAnchorPoint: "Anchor-1" 149 -205 basechar 0
FFAnchorPoint: "Anchor-0" 315 735 basechar 0
LayerCount: 2
Fore
SplineSet
-14 -195 m 1,0,-1
 -14 -139 l 1,1,2
 49 -139 49 -139 81 -122 c 0,3,4
 105 -110 105 -110 122 -88 c 0,5,6
 144 -58 144 -58 155 5 c 2,7,-1
 232 440 l 1,8,-1
 93 440 l 1,9,-1
 93 496 l 1,10,-1
 241 496 l 1,11,-1
 257 585 l 2,12,13
 272 667 272 667 301 705 c 0,14,15
 323 735 323 735 355 752 c 0,16,17
 400 775 400 775 487 775 c 1,18,-1
 487 719 l 1,19,20
 425 719 425 719 392 702 c 0,21,22
 368 689 368 689 352 668 c 0,23,24
 329 638 329 638 319 575 c 1,25,-1
 305 496 l 1,26,-1
 443 496 l 1,27,-1
 443 440 l 1,28,-1
 295 440 l 1,29,-1
 216 -5 l 2,30,31
 202 -86 202 -86 173 -125 c 0,32,33
 150 -155 150 -155 118 -172 c 0,34,35
 74 -195 74 -195 -14 -195 c 1,0,-1
EndSplineSet
EndChar

StartChar: g
Encoding: 103 103 74
Width: 500
GlyphClass: 2
Flags: W
FFAnchorPoint: "Anchor-5" 335 -205 basechar 0
FFAnchorPoint: "Anchor-4" 465 530 basechar 0
FFAnchorPoint: "Anchor-3" 214 162 basechar 0
FFAnchorPoint: "Anchor-2" 216 177 basechar 0
FFAnchorPoint: "Anchor-1" 149 -205 basechar 0
FFAnchorPoint: "Anchor-0" 279 530 basechar 0
LayerCount: 2
Fore
SplineSet
150 -213 m 0,0,1
 83 -213 83 -213 40 -185 c 0,2,3
 2 -161 2 -161 -15 -119 c 0,4,5
 -20 -106 -20 -106 -22 -95 c 1,6,-1
 35 -72 l 1,7,8
 36 -82 36 -82 41 -93 c 0,9,10
 52 -122 52 -122 78 -139 c 0,11,12
 107 -157 107 -157 150 -157 c 0,13,14
 186 -157 186 -157 216 -141.5 c 128,-1,15
 246 -126 246 -126 269 -96 c 0,16,17
 299 -55 299 -55 309 4 c 2,18,-1
 321 72 l 1,19,-1
 320 70 l 1,20,21
 291 32 291 32 252 12 c 0,22,23
 215 -8 215 -8 169 -8 c 0,24,25
 124 -8 124 -8 93 12 c 0,26,27
 60 33 60 33 42 76 c 0,28,29
 16 142 16 142 42 289 c 0,30,31
 62 404 62 404 101 456 c 0,32,33
 131 496 131 496 171 517 c 0,34,35
 212 538 212 538 261 538 c 0,36,37
 303 538 303 538 331 520 c 0,38,39
 364 499 364 499 380 457 c 0,40,41
 383 449 383 449 386 440 c 1,42,-1
 402 530 l 1,43,-1
 465 530 l 1,44,-1
 371 -6 l 2,45,46
 358 -79 358 -79 320 -128 c 0,47,48
 290 -168 290 -168 248 -190 c 0,49,50
 204 -213 204 -213 150 -213 c 0,0,1
195 48 m 256,51,52
 228 48 228 48 255 62 c 0,53,54
 283 77 283 77 305 105 c 1,55,56
 334 145 334 145 344 203 c 2,57,-1
 360 293 l 2,58,59
 375 373 375 373 355 423 c 0,60,61
 342 454 342 454 319 469 c 0,62,63
 298 482 298 482 268 482 c 0,64,65
 234 482 234 482 205 467 c 0,66,67
 175 451 175 451 152 421 c 0,68,69
 121 379 121 379 104 280 c 0,70,71
 82 159 82 159 102 111 c 1,72,73
 114 79 114 79 140 63 c 1,74,75
 162 48 162 48 195 48 c 256,51,52
EndSplineSet
Substitution2: "'ss05' Style Set 5 lookup 120 subtable" g.ss05
Substitution2: "'ss01' Style Set 1 lookup 119 subtable" g.ss01
Substitution2: "'ss11' Style Set 11 lookup 118 subtable" g.ss11
EndChar

StartChar: h
Encoding: 104 104 75
Width: 500
GlyphClass: 2
Flags: W
FFAnchorPoint: "Anchor-5" 371 0 basechar 0
FFAnchorPoint: "Anchor-4" 501 735 basechar 0
FFAnchorPoint: "Anchor-3" 250 367 basechar 0
FFAnchorPoint: "Anchor-2" 253 382 basechar 0
FFAnchorPoint: "Anchor-1" 185 0 basechar 0
FFAnchorPoint: "Anchor-0" 315 735 basechar 0
LayerCount: 2
Fore
SplineSet
0 0 m 1,0,-1
 129 735 l 1,1,-1
 192 735 l 1,2,-1
 144 460 l 1,3,4
 172 498 172 498 211 518 c 128,-1,5
 250 538 250 538 295 538 c 0,6,7
 337 538 337 538 366 520 c 0,8,9
 398 499 398 499 415 457 c 0,10,11
 441 392 441 392 423 289 c 2,12,-1
 372 0 l 1,13,-1
 309 0 l 1,14,-1
 361 299 l 2,15,16
 375 374 375 374 356 423 c 0,17,18
 343 454 343 454 320 469 c 0,19,20
 299 482 299 482 269 482 c 0,21,22
 236 482 236 482 209 468 c 0,23,24
 181 453 181 453 159 425 c 0,25,26
 133 390 133 390 122 339 c 1,27,-1
 121 330 l 1,28,-1
 121 329 l 1,29,-1
 63 0 l 1,30,-1
 0 0 l 1,0,-1
EndSplineSet
EndChar

StartChar: i
Encoding: 105 105 76
Width: 500
GlyphClass: 2
Flags: W
FFAnchorPoint: "Anchor-5" 371 0 basechar 0
FFAnchorPoint: "Anchor-4" 465 530 basechar 0
FFAnchorPoint: "Anchor-3" 232 265 basechar 0
FFAnchorPoint: "Anchor-2" 234 275 basechar 0
FFAnchorPoint: "Anchor-1" 283 0 basechar 0
FFAnchorPoint: "Anchor-0" 306 743 basechar 0
LayerCount: 2
Fore
SplineSet
296 635 m 256,0,1
 273 635 273 635 259.5 648.5 c 128,-1,2
 246 662 246 662 246 685 c 128,-1,3
 246 708 246 708 259.5 721.5 c 128,-1,4
 273 735 273 735 296 735 c 256,5,6
 319 735 319 735 332.5 721.5 c 128,-1,7
 346 708 346 708 346 685 c 128,-1,8
 346 662 346 662 332.5 648.5 c 128,-1,9
 319 635 319 635 296 635 c 256,0,1
295 -8 m 0,10,11
 248 -8 248 -8 216.5 12 c 128,-1,12
 185 32 185 32 171 70 c 1,13,14
 151 120 151 120 164 193 c 2,15,-1
 213 474 l 1,16,-1
 80 474 l 1,17,-1
 80 530 l 1,18,-1
 286 530 l 1,19,-1
 225 183 l 2,20,21
 215 128 215 128 229 92 c 1,22,23
 239 70 239 70 256 58 c 1,24,25
 272 48 272 48 295 48 c 0,26,27
 315 48 315 48 331 57 c 1,28,29
 352 67 352 67 369 89.5 c 128,-1,30
 386 112 386 112 396 141 c 1,31,-1
 452 117 l 1,32,33
 439 85 439 85 420 60 c 0,34,35
 394 25 394 25 361 8 c 0,36,37
 330 -8 330 -8 295 -8 c 0,10,11
EndSplineSet
Substitution2: "'ss11' Style Set 11 lookup 109 subtable" i.ss11
Substitution2: "'ss08' Style Set 8 lookup 108 subtable" i.ss08
Substitution2: "'ss07' Style Set 7 lookup 107 subtable" i.ss07
Substitution2: "'ss10' Style Set 10 lookup 106 subtable" i.ss10
Substitution2: "Single Substitution lookup 35 subtable" dotlessi
EndChar

StartChar: j
Encoding: 106 106 77
Width: 500
GlyphClass: 2
Flags: W
FFAnchorPoint: "Anchor-5" 335 -205 basechar 0
FFAnchorPoint: "Anchor-4" 465 530 basechar 0
FFAnchorPoint: "Anchor-3" 214 162 basechar 0
FFAnchorPoint: "Anchor-2" 284 265 basechar 0
FFAnchorPoint: "Anchor-1" 149 -205 basechar 0
FFAnchorPoint: "Anchor-0" 369 743 basechar 0
LayerCount: 2
Fore
SplineSet
359 635 m 256,0,1
 336 635 336 635 322 649 c 0,2,3
 309 662 309 662 309 685 c 128,-1,4
 309 708 309 708 322 721 c 0,5,6
 336 735 336 735 359 735 c 256,7,8
 382 735 382 735 395 721 c 1,9,10
 409 708 409 708 409 685 c 128,-1,11
 409 662 409 662 395 649 c 1,12,13
 382 635 382 635 359 635 c 256,0,1
90 -213 m 0,14,15
 35 -213 35 -213 -1 -190 c 0,16,17
 -33 -170 -33 -170 -48 -133 c 0,18,19
 -57 -110 -57 -110 -58 -85 c 1,20,-1
 1 -68 l 1,21,22
 2 -89 2 -89 9 -107 c 0,23,24
 19 -131 19 -131 39 -144 c 128,-1,25
 59 -157 59 -157 90 -157 c 0,26,27
 115 -157 115 -157 137 -146 c 0,28,29
 160 -134 160 -134 178 -110 c 0,30,31
 204 -74 204 -74 213 -21 c 2,32,-1
 301 474 l 1,33,-1
 161 474 l 1,34,-1
 161 530 l 1,35,-1
 374 530 l 1,36,-1
 275 -31 l 2,37,38
 263 -97 263 -97 229 -142 c 0,39,40
 203 -176 203 -176 168 -194.5 c 128,-1,41
 133 -213 133 -213 90 -213 c 0,14,15
EndSplineSet
Substitution2: "Single Substitution lookup 35 subtable" uni0237
EndChar

StartChar: k
Encoding: 107 107 78
Width: 500
GlyphClass: 2
Flags: W
FFAnchorPoint: "Anchor-5" 371 0 basechar 0
FFAnchorPoint: "Anchor-4" 501 735 basechar 0
FFAnchorPoint: "Anchor-3" 250 367 basechar 0
FFAnchorPoint: "Anchor-2" 253 382 basechar 0
FFAnchorPoint: "Anchor-1" 185 0 basechar 0
FFAnchorPoint: "Anchor-0" 315 735 basechar 0
LayerCount: 2
Fore
SplineSet
0 0 m 1,0,-1
 129 735 l 1,1,-1
 192 735 l 1,2,-1
 112 280 l 1,3,4
 316 410 316 410 381 496 c 0,5,6
 396 516 396 516 399 530 c 1,7,-1
 465 530 l 1,8,9
 462 512 462 512 441 484 c 0,10,11
 390 416 390 416 275 328 c 1,12,13
 312 252 312 252 336 191 c 0,14,15
 390 57 390 57 380 0 c 1,16,-1
 317 0 l 1,17,18
 326 52 326 52 277 174 c 0,19,20
 256 227 256 227 225 290 c 1,21,22
 168 249 168 249 99 204 c 1,23,-1
 63 0 l 1,24,-1
 0 0 l 1,0,-1
EndSplineSet
EndChar

StartChar: l
Encoding: 108 108 79
Width: 500
GlyphClass: 2
Flags: W
FFAnchorPoint: "Anchor-5" 371 0 basechar 0
FFAnchorPoint: "Anchor-4" 501 735 basechar 0
FFAnchorPoint: "Anchor-3" 250 367 basechar 0
FFAnchorPoint: "Anchor-2" 206 382 basechar 0
FFAnchorPoint: "Anchor-1" 271 0 basechar 0
FFAnchorPoint: "Anchor-0" 268 735 basechar 0
LayerCount: 2
Fore
SplineSet
285 -8 m 0,0,1
 236 -8 236 -8 204 13 c 0,2,3
 171 34 171 34 155 74 c 0,4,5
 134 126 134 126 147 205 c 2,6,-1
 231 679 l 1,7,-1
 129 679 l 1,8,-1
 129 735 l 1,9,-1
 304 735 l 1,10,-1
 209 195 l 2,11,12
 198 136 198 136 213 96 c 1,13,14
 224 71 224 71 243 59 c 0,15,16
 260 48 260 48 285 48 c 0,17,18
 307 48 307 48 325 58 c 0,19,20
 347 69 347 69 366.5 94.5 c 128,-1,21
 386 120 386 120 398 155 c 1,22,-1
 455 132 l 1,23,24
 440 94 440 94 418 64 c 0,25,26
 390 27 390 27 355 9 c 0,27,28
 323 -8 323 -8 285 -8 c 0,0,1
EndSplineSet
Substitution2: "Single Substitution lookup 115 subtable" l.cv28
Substitution2: "Single Substitution lookup 114 subtable" l.cv27
Substitution2: "'ss11' Style Set 11 lookup 113 subtable" l.ss11
Substitution2: "'ss08' Style Set 8 lookup 112 subtable" l.ss08
Substitution2: "'ss07' Style Set 7 lookup 111 subtable" l.ss07
Substitution2: "'ss10' Style Set 10 lookup 110 subtable" l.ss10
EndChar

StartChar: m
Encoding: 109 109 80
Width: 500
GlyphClass: 2
Flags: W
FFAnchorPoint: "Anchor-5" 371 0 basechar 0
FFAnchorPoint: "Anchor-4" 465 530 basechar 0
FFAnchorPoint: "Anchor-3" 232 265 basechar 0
FFAnchorPoint: "Anchor-2" 234 275 basechar 0
FFAnchorPoint: "Anchor-1" 185 0 basechar 0
FFAnchorPoint: "Anchor-0" 279 530 basechar 0
LayerCount: 2
Fore
SplineSet
-8 0 m 1,0,-1
 85 530 l 1,1,-1
 148 530 l 1,2,-1
 142 495 l 1,3,4
 159 518 159 518 180 529 c 0,5,6
 197 538 197 538 217 538 c 256,7,8
 237 538 237 538 252 529 c 1,9,10
 269 517 269 517 279 493 c 0,11,12
 284 481 284 481 286 466 c 1,13,14
 294 482 294 482 304 495 c 0,15,16
 322 518 322 518 343 529 c 0,17,18
 359 538 359 538 379 538 c 0,19,20
 400 538 400 538 414 529 c 0,21,22
 432 517 432 517 441 493 c 0,23,24
 459 450 459 450 446 376 c 2,25,-1
 380 0 l 1,26,-1
 317 0 l 1,27,-1
 385 387 l 2,28,29
 395 447 395 447 376 471 c 0,30,31
 367 482 367 482 352 482 c 0,32,33
 339 482 339 482 328 472 c 0,34,35
 296 446 296 446 282 368 c 1,36,-1
 281 364 l 1,37,-1
 217 0 l 1,38,-1
 154 0 l 1,39,-1
 222 387 l 2,40,41
 233 447 233 447 213 471 c 0,42,43
 204 482 204 482 190 482 c 0,44,45
 177 482 177 482 165 472 c 0,46,47
 134 445 134 445 120 369 c 1,48,-1
 119 364 l 1,49,-1
 55 0 l 1,50,-1
 -8 0 l 1,0,-1
EndSplineSet
Substitution2: "Single Substitution lookup 124 subtable" m.cv26
Substitution2: "'ss11' Style Set 11 lookup 123 subtable" m.ss11
EndChar

StartChar: n
Encoding: 110 110 81
Width: 500
GlyphClass: 2
Flags: W
FFAnchorPoint: "Anchor-5" 371 0 basechar 0
FFAnchorPoint: "Anchor-4" 465 530 basechar 0
FFAnchorPoint: "Anchor-3" 232 265 basechar 0
FFAnchorPoint: "Anchor-2" 234 275 basechar 0
FFAnchorPoint: "Anchor-1" 185 0 basechar 0
FFAnchorPoint: "Anchor-0" 279 530 basechar 0
LayerCount: 2
Fore
SplineSet
0 0 m 1,0,-1
 93 530 l 1,1,-1
 156 530 l 1,2,-1
 144 460 l 1,3,4
 172 498 172 498 211 518 c 128,-1,5
 250 538 250 538 295 538 c 0,6,7
 337 538 337 538 366 520 c 0,8,9
 398 499 398 499 415 457 c 0,10,11
 441 392 441 392 423 289 c 2,12,-1
 372 0 l 1,13,-1
 309 0 l 1,14,-1
 361 299 l 2,15,16
 375 374 375 374 356 423 c 0,17,18
 343 454 343 454 320 469 c 0,19,20
 299 482 299 482 269 482 c 0,21,22
 236 482 236 482 209 468 c 0,23,24
 181 453 181 453 159 425 c 0,25,26
 133 390 133 390 122 338 c 1,27,-1
 121 331 l 1,28,-1
 121 329 l 1,29,-1
 63 0 l 1,30,-1
 0 0 l 1,0,-1
EndSplineSet
EndChar

StartChar: o
Encoding: 111 111 82
Width: 500
GlyphClass: 2
Flags: W
FFAnchorPoint: "Anchor-5" 371 0 basechar 0
FFAnchorPoint: "Anchor-4" 465 530 basechar 0
FFAnchorPoint: "Anchor-3" 232 265 basechar 0
FFAnchorPoint: "Anchor-2" 234 275 basechar 0
FFAnchorPoint: "Anchor-1" 185 0 basechar 0
FFAnchorPoint: "Anchor-0" 279 530 basechar 0
LayerCount: 2
Fore
SplineSet
195 -8 m 0,0,1
 139 -8 139 -8 100 17 c 128,-1,2
 61 42 61 42 43 88 c 0,3,4
 18 151 18 151 42 288 c 0,5,6
 62 402 62 402 100 453 c 0,7,8
 131 494 131 494 173 516 c 128,-1,9
 215 538 215 538 270 538 c 0,10,11
 326 538 326 538 364.5 513 c 128,-1,12
 403 488 403 488 422 442 c 0,13,14
 447 379 447 379 423 242 c 0,15,16
 403 127 403 127 364 77 c 0,17,18
 334 37 334 37 291.5 14.5 c 128,-1,19
 249 -8 249 -8 195 -8 c 0,0,1
196 48 m 0,20,21
 231 48 231 48 260 63 c 0,22,23
 290 79 290 79 312 109 c 1,24,25
 344 150 344 150 361 250 c 1,26,27
 383 370 383 370 363 419 c 0,28,29
 350 451 350 451 325 467 c 0,30,31
 302 482 302 482 269 482 c 0,32,33
 234 482 234 482 205 467 c 0,34,35
 175 451 175 451 152 421 c 0,36,37
 121 379 121 379 104 280 c 1,38,39
 82 160 82 160 102 111 c 0,40,41
 114 79 114 79 140 63 c 1,42,43
 162 48 162 48 196 48 c 0,20,21
EndSplineSet
EndChar

StartChar: p
Encoding: 112 112 83
Width: 500
GlyphClass: 2
Flags: W
FFAnchorPoint: "Anchor-5" 335 -205 basechar 0
FFAnchorPoint: "Anchor-4" 465 530 basechar 0
FFAnchorPoint: "Anchor-3" 214 162 basechar 0
FFAnchorPoint: "Anchor-2" 216 177 basechar 0
FFAnchorPoint: "Anchor-1" 149 -205 basechar 0
FFAnchorPoint: "Anchor-0" 279 530 basechar 0
LayerCount: 2
Fore
SplineSet
-37 -205 m 1,0,-1
 93 530 l 1,1,-1
 156 530 l 1,2,-1
 143 457 l 1,3,-1
 145 460 l 1,4,5
 173 498 173 498 213 518 c 1,6,7
 250 538 250 538 296 538 c 0,8,9
 341 538 341 538 371 518 c 1,10,11
 405 497 405 497 422 454 c 0,12,13
 449 389 449 389 423 241 c 0,14,15
 402 125 402 125 363 74 c 1,16,17
 334 34 334 34 293.5 13 c 128,-1,18
 253 -8 253 -8 204 -8 c 0,19,20
 162 -8 162 -8 133 10 c 0,21,22
 101 31 101 31 84 73 c 0,23,24
 81 81 81 81 78 90 c 1,25,-1
 26 -205 l 1,26,-1
 -37 -205 l 1,0,-1
197 48 m 0,27,28
 231 48 231 48 260 63 c 0,29,30
 290 79 290 79 312 109 c 1,31,32
 344 150 344 150 361 250 c 1,33,34
 383 371 383 371 363 419 c 0,35,36
 350 451 350 451 325 467 c 0,37,38
 302 482 302 482 269 482 c 256,39,40
 236 482 236 482 210 468 c 0,41,42
 182 453 182 453 160 425 c 1,43,44
 132 387 132 387 121 330 c 2,45,-1
 103 229 l 1,46,47
 91 154 91 154 110 107 c 0,48,49
 123 76 123 76 146 61 c 0,50,51
 166 48 166 48 197 48 c 0,27,28
EndSplineSet
EndChar

StartChar: q
Encoding: 113 113 84
Width: 500
GlyphClass: 2
Flags: W
FFAnchorPoint: "Anchor-5" 335 -205 basechar 0
FFAnchorPoint: "Anchor-4" 465 530 basechar 0
FFAnchorPoint: "Anchor-3" 214 162 basechar 0
FFAnchorPoint: "Anchor-2" 216 177 basechar 0
FFAnchorPoint: "Anchor-1" 149 -205 basechar 0
FFAnchorPoint: "Anchor-0" 279 530 basechar 0
LayerCount: 2
Fore
SplineSet
273 -205 m 1,0,-1
 322 73 l 1,1,-1
 320 70 l 1,2,3
 291 32 291 32 252 12 c 0,4,5
 215 -8 215 -8 169 -8 c 0,6,7
 124 -8 124 -8 93 12 c 0,8,9
 60 33 60 33 42 76 c 0,10,11
 16 142 16 142 42 289 c 0,12,13
 62 404 62 404 101 456 c 0,14,15
 131 496 131 496 171 517 c 0,16,17
 212 538 212 538 261 538 c 0,18,19
 303 538 303 538 331 520 c 0,20,21
 364 499 364 499 380 457 c 0,22,23
 383 449 383 449 386 440 c 1,24,-1
 402 530 l 1,25,-1
 465 530 l 1,26,-1
 335 -205 l 1,27,-1
 273 -205 l 1,0,-1
195 48 m 256,28,29
 228 48 228 48 255 62 c 0,30,31
 283 77 283 77 305 105 c 1,32,33
 334 145 334 145 344 203 c 2,34,-1
 360 293 l 2,35,36
 375 373 375 373 355 423 c 0,37,38
 342 454 342 454 319 469 c 0,39,40
 298 482 298 482 268 482 c 0,41,42
 234 482 234 482 205 467 c 0,43,44
 175 451 175 451 152 421 c 0,45,46
 121 379 121 379 104 280 c 0,47,48
 82 159 82 159 102 111 c 1,49,50
 114 79 114 79 140 63 c 1,51,52
 162 48 162 48 195 48 c 256,28,29
EndSplineSet
EndChar

StartChar: r
Encoding: 114 114 85
Width: 500
GlyphClass: 2
Flags: W
FFAnchorPoint: "Anchor-5" 371 0 basechar 0
FFAnchorPoint: "Anchor-4" 465 530 basechar 0
FFAnchorPoint: "Anchor-3" 232 265 basechar 0
FFAnchorPoint: "Anchor-2" 155 265 basechar 0
FFAnchorPoint: "Anchor-1" 185 0 basechar 0
FFAnchorPoint: "Anchor-0" 279 530 basechar 0
LayerCount: 2
Fore
SplineSet
60 0 m 1,0,-1
 153 530 l 1,1,-1
 216 530 l 1,2,-1
 199 433 l 1,3,4
 208 449 208 449 218 462 c 0,5,6
 248 502 248 502 285 521 c 0,7,8
 317 538 317 538 355 538 c 0,9,10
 392 538 392 538 420 520 c 0,11,12
 446 503 446 503 457 474 c 0,13,14
 464 458 464 458 464 440 c 1,15,-1
 406 414 l 1,16,17
 406 425 406 425 401 436 c 0,18,19
 393 456 393 456 374 468 c 0,20,21
 353 482 353 482 325 482 c 0,22,23
 298 482 298 482 274 470 c 0,24,25
 247 456 247 456 225 426 c 0,26,27
 190 379 190 379 176 303 c 2,28,-1
 123 0 l 1,29,-1
 60 0 l 1,0,-1
EndSplineSet
EndChar

StartChar: s
Encoding: 115 115 86
Width: 500
GlyphClass: 2
Flags: W
FFAnchorPoint: "Anchor-5" 371 0 basechar 0
FFAnchorPoint: "Anchor-4" 465 530 basechar 0
FFAnchorPoint: "Anchor-3" 232 265 basechar 0
FFAnchorPoint: "Anchor-2" 234 275 basechar 0
FFAnchorPoint: "Anchor-1" 185 0 basechar 0
FFAnchorPoint: "Anchor-0" 279 530 basechar 0
LayerCount: 2
Fore
SplineSet
195 -8 m 0,0,1
 124 -8 124 -8 80 20 c 0,2,3
 40 46 40 46 22 90 c 0,4,5
 18 102 18 102 16 110 c 1,6,-1
 76 125 l 1,7,8
 77 119 77 119 80 112 c 0,9,10
 92 83 92 83 118 67 c 1,11,12
 146 48 146 48 195 48 c 0,13,14
 249 48 249 48 286 67 c 0,15,16
 307 78 307 78 318 93 c 0,17,18
 329 107 329 107 331 122 c 0,19,20
 335 142 335 142 327 161 c 0,21,22
 316 189 316 189 286 207 c 1,23,24
 267 220 267 220 222 236 c 0,25,26
 168 254 168 254 142 271 c 0,27,28
 97 300 97 300 80 343 c 0,29,30
 65 379 65 379 72 416 c 0,31,32
 77 446 77 446 95 469 c 1,33,34
 113 494 113 494 146 511 c 0,35,36
 197 538 197 538 270 538 c 0,37,38
 341 538 341 538 385 510 c 0,39,40
 425 484 425 484 442 440 c 0,41,42
 446 432 446 432 449 420 c 1,43,-1
 389 405 l 1,44,45
 380 442 380 442 347 463 c 0,46,47
 318 482 318 482 270 482 c 0,48,49
 215 482 215 482 179 463 c 0,50,51
 158 452 158 452 146 437 c 1,52,53
 137 423 137 423 133 408 c 1,54,55
 130 388 130 388 138 369 c 0,56,57
 149 342 149 342 178 323 c 0,58,59
 198 310 198 310 243 294 c 1,60,61
 298 276 298 276 322 259 c 1,62,63
 367 231 367 231 385 187 c 0,64,65
 399 151 399 151 393 114 c 1,66,67
 387 84 387 84 370 61 c 0,68,69
 351 36 351 36 318 19 c 0,70,71
 268 -8 268 -8 195 -8 c 0,0,1
EndSplineSet
EndChar

StartChar: t
Encoding: 116 116 87
Width: 500
GlyphClass: 2
Flags: W
FFAnchorPoint: "Anchor-5" 463 131 basechar 0
FFAnchorPoint: "Anchor-4" 501 735 basechar 0
FFAnchorPoint: "Anchor-3" 250 367 basechar 0
FFAnchorPoint: "Anchor-2" 253 382 basechar 0
FFAnchorPoint: "Anchor-1" 244 0 basechar 0
FFAnchorPoint: "Anchor-0" 315 735 basechar 0
LayerCount: 2
Fore
SplineSet
286 -8 m 0,0,1
 233 -8 233 -8 197 15 c 0,2,3
 163 37 163 37 147 77 c 0,4,5
 127 128 127 128 140 202 c 2,6,-1
 188 474 l 1,7,-1
 76 474 l 1,8,-1
 76 530 l 1,9,-1
 198 530 l 1,10,-1
 234 735 l 1,11,-1
 297 735 l 1,12,-1
 261 530 l 1,13,-1
 426 530 l 1,14,-1
 426 474 l 1,15,-1
 251 474 l 1,16,-1
 201 192 l 2,17,18
 191 136 191 136 206 100 c 0,19,20
 216 74 216 74 237 61 c 0,21,22
 257 48 257 48 286 48 c 0,23,24
 311 48 311 48 332 59 c 0,25,26
 356 72 356 72 377 98 c 1,27,28
 394 122 394 122 406 153 c 1,29,-1
 463 132 l 1,30,31
 450 97 450 97 428 67 c 0,32,33
 399 29 399 29 362 10 c 0,34,35
 328 -8 328 -8 286 -8 c 0,0,1
EndSplineSet
Substitution2: "Single Substitution lookup 126 subtable" t.cv41
Substitution2: "'ss11' Style Set 11 lookup 125 subtable" t.ss11
EndChar

StartChar: u
Encoding: 117 117 88
Width: 500
GlyphClass: 2
Flags: W
FFAnchorPoint: "Anchor-6" 343 0 basechar 0
FFAnchorPoint: "Anchor-5" 371 0 basechar 0
FFAnchorPoint: "Anchor-4" 465 530 basechar 0
FFAnchorPoint: "Anchor-3" 232 265 basechar 0
FFAnchorPoint: "Anchor-2" 234 275 basechar 0
FFAnchorPoint: "Anchor-1" 185 0 basechar 0
FFAnchorPoint: "Anchor-0" 279 530 basechar 0
LayerCount: 2
Fore
SplineSet
169 -8 m 0,0,1
 128 -8 128 -8 99 10 c 0,2,3
 67 31 67 31 50 73 c 0,4,5
 24 138 24 138 42 241 c 2,6,-1
 93 530 l 1,7,-1
 156 530 l 1,8,-1
 103 231 l 2,9,10
 90 155 90 155 109 107 c 0,11,12
 122 76 122 76 145 61 c 0,13,14
 166 48 166 48 196 48 c 0,15,16
 229 48 229 48 256 62 c 0,17,18
 285 77 285 77 305 105 c 1,19,20
 332 140 332 140 343 193 c 1,21,-1
 344 199 l 1,22,-1
 344 201 l 1,23,-1
 402 530 l 1,24,-1
 465 530 l 1,25,-1
 372 0 l 1,26,-1
 309 0 l 1,27,-1
 321 70 l 1,28,29
 292 32 292 32 253 12 c 0,30,31
 216 -8 216 -8 169 -8 c 0,0,1
EndSplineSet
EndChar

StartChar: v
Encoding: 118 118 89
Width: 500
GlyphClass: 2
Flags: W
FFAnchorPoint: "Anchor-5" 371 0 basechar 0
FFAnchorPoint: "Anchor-4" 465 530 basechar 0
FFAnchorPoint: "Anchor-3" 232 265 basechar 0
FFAnchorPoint: "Anchor-2" 234 275 basechar 0
FFAnchorPoint: "Anchor-1" 185 0 basechar 0
FFAnchorPoint: "Anchor-0" 279 530 basechar 0
LayerCount: 2
Fore
SplineSet
154 0 m 1,0,1
 58 334 58 334 84 477 c 1,2,-1
 93 530 l 1,3,-1
 156 530 l 1,4,-1
 147 477 l 1,5,6
 124 349 124 349 195 66 c 1,7,8
 370 350 370 350 393 477 c 1,9,-1
 402 530 l 1,10,-1
 465 530 l 1,11,-1
 456 477 l 1,12,13
 430 333 430 333 217 0 c 1,14,-1
 154 0 l 1,0,1
EndSplineSet
EndChar

StartChar: w
Encoding: 119 119 90
Width: 500
GlyphClass: 2
Flags: W
FFAnchorPoint: "Anchor-5" 371 0 basechar 0
FFAnchorPoint: "Anchor-4" 465 530 basechar 0
FFAnchorPoint: "Anchor-3" 232 265 basechar 0
FFAnchorPoint: "Anchor-2" 234 275 basechar 0
FFAnchorPoint: "Anchor-1" 185 0 basechar 0
FFAnchorPoint: "Anchor-0" 279 530 basechar 0
LayerCount: 2
Fore
SplineSet
74 0 m 1,0,1
 48 278 48 278 70 398 c 1,2,-1
 93 530 l 1,3,-1
 156 530 l 1,4,-1
 133 398 l 2,5,6
 115 298 115 298 112 90 c 1,7,-1
 218 318 l 1,8,-1
 266 318 l 1,9,-1
 288 86 l 1,10,11
 361 298 361 298 379 398 c 2,12,-1
 402 530 l 1,13,-1
 465 530 l 1,14,-1
 442 398 l 2,15,16
 420 276 420 276 297 0 c 1,17,-1
 249 0 l 1,18,-1
 227 231 l 1,19,-1
 122 0 l 1,20,-1
 74 0 l 1,0,1
EndSplineSet
EndChar

StartChar: x
Encoding: 120 120 91
Width: 500
GlyphClass: 2
Flags: W
FFAnchorPoint: "Anchor-5" 371 0 basechar 0
FFAnchorPoint: "Anchor-4" 465 530 basechar 0
FFAnchorPoint: "Anchor-3" 232 265 basechar 0
FFAnchorPoint: "Anchor-2" 234 275 basechar 0
FFAnchorPoint: "Anchor-1" 185 0 basechar 0
FFAnchorPoint: "Anchor-0" 279 530 basechar 0
LayerCount: 2
Fore
SplineSet
0 0 m 1,0,-1
 1 5 l 1,1,2
 6 37 6 37 57 104 c 0,3,4
 80 135 80 135 93 149 c 2,5,-1
 196 269 l 1,6,-1
 136 386 l 2,7,8
 120 416 120 416 109 444 c 0,9,10
 87 497 87 497 92 525 c 2,11,-1
 93 530 l 1,12,-1
 156 530 l 1,13,-1
 155 525 l 2,14,15
 149 492 149 492 191 412 c 1,16,-1
 239 318 l 1,17,-1
 325 417 l 2,18,19
 397 500 397 500 401 525 c 2,20,-1
 402 530 l 1,21,-1
 465 530 l 1,22,-1
 464 525 l 1,23,24
 459 493 459 493 408 426 c 0,25,26
 385 395 385 395 372 381 c 2,27,-1
 269 261 l 1,28,-1
 329 144 l 2,29,30
 344 114 344 114 356 86 c 0,31,32
 377 33 377 33 373 5 c 1,33,-1
 372 0 l 1,34,-1
 309 0 l 1,35,-1
 310 5 l 1,36,37
 315 38 315 38 274 118 c 2,38,-1
 226 212 l 1,39,-1
 140 113 l 2,40,41
 68 30 68 30 64 5 c 2,42,-1
 63 0 l 1,43,-1
 0 0 l 1,0,-1
EndSplineSet
EndChar

StartChar: y
Encoding: 121 121 92
Width: 500
GlyphClass: 2
Flags: W
FFAnchorPoint: "Anchor-5" 335 -205 basechar 0
FFAnchorPoint: "Anchor-4" 465 530 basechar 0
FFAnchorPoint: "Anchor-3" 214 162 basechar 0
FFAnchorPoint: "Anchor-2" 216 177 basechar 0
FFAnchorPoint: "Anchor-1" 149 -205 basechar 0
FFAnchorPoint: "Anchor-0" 279 530 basechar 0
LayerCount: 2
Fore
SplineSet
-6 -205 m 1,0,-1
 -6 -149 l 1,1,-1
 22 -149 l 2,2,3
 48 -149 48 -149 61 -142 c 128,-1,4
 74 -135 74 -135 85 -121 c 0,5,6
 93 -110 93 -110 105 -86 c 2,7,-1
 156 12 l 1,8,-1
 96 352 l 1,9,10
 78 448 78 448 87 493 c 1,11,-1
 93 530 l 1,12,-1
 156 530 l 1,13,-1
 150 493 l 1,14,15
 142 451 142 451 157 362 c 2,16,-1
 201 99 l 1,17,-1
 343 370 l 2,18,19
 389 457 389 457 396 493 c 1,20,-1
 402 530 l 1,21,-1
 465 530 l 1,22,-1
 459 493 l 1,23,24
 449 439 449 439 398 344 c 2,25,-1
 157 -110 l 2,26,27
 141 -142 141 -142 129 -158 c 0,28,29
 112 -181 112 -181 90 -192 c 0,30,31
 66 -205 66 -205 22 -205 c 2,32,-1
 -6 -205 l 1,0,-1
EndSplineSet
EndChar

StartChar: z
Encoding: 122 122 93
Width: 500
GlyphClass: 2
Flags: W
FFAnchorPoint: "Anchor-5" 371 0 basechar 0
FFAnchorPoint: "Anchor-4" 465 530 basechar 0
FFAnchorPoint: "Anchor-3" 232 265 basechar 0
FFAnchorPoint: "Anchor-2" 234 275 basechar 0
FFAnchorPoint: "Anchor-1" 185 0 basechar 0
FFAnchorPoint: "Anchor-0" 279 530 basechar 0
LayerCount: 2
Fore
SplineSet
0 0 m 1,0,-1
 10 56 l 1,1,-1
 380 474 l 1,2,-1
 83 474 l 1,3,-1
 93 530 l 1,4,-1
 465 530 l 1,5,-1
 455 474 l 1,6,-1
 85 56 l 1,7,-1
 382 56 l 1,8,-1
 372 0 l 1,9,-1
 0 0 l 1,0,-1
EndSplineSet
EndChar

StartChar: braceleft
Encoding: 123 123 94
Width: 500
GlyphClass: 2
Flags: W
LayerCount: 2
Fore
SplineSet
322 -179 m 1,0,1
 249 -179 249 -179 206 -150 c 1,2,3
 172 -129 172 -129 158 -94 c 128,-1,4
 144 -59 144 -59 152 -11 c 2,5,-1
 189 198 l 2,6,7
 197 243 197 243 184 275 c 0,8,9
 173 303 173 303 148 319 c 0,10,11
 134 328 134 328 116.5 332.5 c 128,-1,12
 99 337 99 337 78 337 c 1,13,-1
 88 393 l 1,14,15
 109 393 109 393 128 397.5 c 128,-1,16
 147 402 147 402 164 411 c 0,17,18
 194 426 194 426 216 454 c 1,19,20
 240 487 240 487 248 532 c 2,21,-1
 285 741 l 2,22,23
 293 788 293 788 320 824 c 0,24,25
 346 859 346 859 388 880 c 1,26,27
 441 909 441 909 513 909 c 1,28,-1
 503 853 l 1,29,30
 453 853 453 853 416 833 c 0,31,32
 388 818 388 818 370.5 795 c 128,-1,33
 353 772 353 772 348 741 c 2,34,-1
 311 532 l 2,35,36
 300 470 300 470 266 426 c 1,37,38
 238 388 238 388 195 365 c 1,39,40
 230 342 230 342 245 304 c 0,41,42
 263 260 263 260 252 198 c 2,43,-1
 215 -11 l 2,44,45
 210 -42 210 -42 219 -65.5 c 128,-1,46
 228 -89 228 -89 251 -103 c 1,47,48
 281 -123 281 -123 331 -123 c 1,49,-1
 322 -179 l 1,0,1
EndSplineSet
Substitution2: "'ss10' Style Set 10 lookup 135 subtable" braceleft.ss10
Substitution2: "'ss11' Style Set 11 lookup 134 subtable" braceleft.ss11
EndChar

StartChar: bar
Encoding: 124 124 95
Width: 500
GlyphClass: 2
Flags: W
FFAnchorPoint: "Anchor-1" 250 -168 basechar 0
FFAnchorPoint: "Anchor-0" 250 898 basechar 0
LayerCount: 2
Fore
SplineSet
125 -168 m 1,0,-1
 312 898 l 1,1,-1
 375 898 l 1,2,-1
 188 -168 l 1,3,-1
 125 -168 l 1,0,-1
EndSplineSet
Substitution2: "Single Substitution lookup 57 subtable" glyph3165
EndChar

StartChar: braceright
Encoding: 125 125 96
Width: 500
GlyphClass: 2
Flags: W
LayerCount: 2
Fore
SplineSet
-13 -179 m 1,0,-1
 -3 -123 l 1,1,2
 47 -123 47 -123 84 -103 c 0,3,4
 112 -88 112 -88 129.5 -65 c 128,-1,5
 147 -42 147 -42 152 -11 c 2,6,-1
 189 198 l 2,7,8
 200 260 200 260 234 304 c 1,9,10
 262 342 262 342 305 365 c 1,11,12
 270 388 270 388 255 426 c 0,13,14
 237 470 237 470 248 532 c 2,15,-1
 285 741 l 2,16,17
 290 772 290 772 281 795.5 c 128,-1,18
 272 819 272 819 249 833 c 1,19,20
 219 853 219 853 169 853 c 1,21,-1
 178 909 l 1,22,23
 251 909 251 909 294 880 c 1,24,25
 328 859 328 859 342 824 c 128,-1,26
 356 789 356 789 348 741 c 2,27,-1
 311 532 l 2,28,29
 303 487 303 487 316 455 c 0,30,31
 327 427 327 427 352 411 c 0,32,33
 366 402 366 402 383.5 397.5 c 128,-1,34
 401 393 401 393 422 393 c 1,35,-1
 412 337 l 1,36,37
 391 337 391 337 372 332.5 c 128,-1,38
 353 328 353 328 336 319 c 0,39,40
 306 304 306 304 284 276 c 1,41,42
 260 243 260 243 252 198 c 2,43,-1
 215 -11 l 2,44,45
 207 -58 207 -58 180 -94 c 0,46,47
 154 -129 154 -129 112 -150 c 1,48,49
 59 -179 59 -179 -13 -179 c 1,0,-1
EndSplineSet
Substitution2: "'ss10' Style Set 10 lookup 135 subtable" braceright.ss10
Substitution2: "'ss11' Style Set 11 lookup 134 subtable" braceright.ss11
EndChar

StartChar: asciitilde
Encoding: 126 126 97
Width: 500
GlyphClass: 2
Flags: W
LayerCount: 2
Fore
SplineSet
362 563 m 256,0,1
 345 563 345 563 330 573 c 0,2,3
 304 589 304 589 277 659 c 0,4,5
 259 704 259 704 249 715 c 0,6,7
 248 717 248 717 244 720 c 1,8,9
 242 720 242 720 239 718 c 0,10,11
 222 709 222 709 194 674 c 1,12,13
 163 632 163 632 126 563 c 1,14,-1
 77 588 l 1,15,16
 116 659 116 659 148 702 c 0,17,18
 182 747 182 747 211 762 c 0,19,20
 227 771 227 771 244 771 c 0,21,22
 262 771 262 771 277 761 c 0,23,24
 302 745 302 745 325 687.5 c 128,-1,25
 348 630 348 630 357 619 c 0,26,27
 360 615 360 615 362 613 c 1,28,29
 364 613 364 613 368 615 c 0,30,31
 385 625 385 625 412 660 c 0,32,33
 442 700 442 700 481 770 c 1,34,-1
 530 746 l 1,35,36
 489 673 489 673 458 632 c 0,37,38
 425 587 425 587 396 572 c 0,39,40
 379 563 379 563 362 563 c 256,0,1
EndSplineSet
Substitution2: "'ss10' Style Set 10 lookup 148 subtable" asciitilde.ss10
Substitution2: "'ss11' Style Set 11 lookup 147 subtable" asciitilde.ss11
Substitution2: "Single Substitution lookup 85 subtable" asciitilde.ss10
Substitution2: "Single Substitution lookup 45 subtable" asciitilde.ss10
Substitution2: "Single Substitution lookup 44 subtable" asciitilde.ss10
EndChar

StartChar: exclamdown
Encoding: 161 161 99
Width: 500
GlyphClass: 2
Flags: W
LayerCount: 2
Fore
SplineSet
270 422 m 0,0,1
 244 422 244 422 228 437.5 c 128,-1,2
 212 453 212 453 212 480 c 128,-1,3
 212 507 212 507 228 522.5 c 128,-1,4
 244 538 244 538 270 538 c 0,5,6
 297 538 297 538 312.5 522 c 128,-1,7
 328 506 328 506 328 480 c 128,-1,8
 328 454 328 454 312.5 438 c 128,-1,9
 297 422 297 422 270 422 c 0,0,1
118 -205 m 1,10,-1
 202 270 l 1,11,-1
 265 270 l 1,12,-1
 181 -205 l 1,13,-1
 118 -205 l 1,10,-1
EndSplineSet
EndChar

StartChar: cent
Encoding: 162 162 100
Width: 500
GlyphClass: 2
Flags: W
FFAnchorPoint: "Anchor-5" 371 0 basechar 0
FFAnchorPoint: "Anchor-4" 465 530 basechar 0
FFAnchorPoint: "Anchor-3" 232 265 basechar 0
FFAnchorPoint: "Anchor-2" 234 275 basechar 0
FFAnchorPoint: "Anchor-1" 185 0 basechar 0
FFAnchorPoint: "Anchor-0" 279 530 basechar 0
LayerCount: 2
Fore
SplineSet
136 -103 m 1,0,-1
 154 -2 l 1,1,2
 126 5 126 5 103 19 c 0,3,4
 62 46 62 46 43 94 c 0,5,6
 18 156 18 156 42 287 c 1,7,8
 62 402 62 402 100 453 c 0,9,10
 131 493 131 493 172 515 c 0,11,12
 208 534 208 534 249 537 c 1,13,-1
 266 633 l 1,14,-1
 329 633 l 1,15,-1
 312 535 l 1,16,17
 349 529 349 529 377 511 c 0,18,19
 414 487 414 487 431 445 c 0,20,21
 444 412 444 412 443 375 c 1,22,-1
 382 363 l 1,23,24
 384 393 384 393 373 419 c 0,25,26
 361 449 361 449 336 465 c 0,27,28
 309 482 309 482 269 482 c 0,29,30
 234 482 234 482 205 467 c 0,31,32
 175 451 175 451 152 421 c 0,33,34
 121 379 121 379 103 279 c 0,35,36
 83 165 83 165 102 118 c 0,37,38
 116 83 116 83 144 65 c 0,39,40
 171 48 171 48 211 48 c 0,41,42
 248 48 248 48 278 64 c 0,43,44
 311 81 311 81 337 115 c 0,45,46
 351 134 351 134 362 157 c 1,47,-1
 417 132 l 1,48,49
 405 107 405 107 388 85 c 0,50,51
 354 39 354 39 308 15 c 0,52,53
 266 -7 266 -7 216 -8 c 1,54,-1
 199 -103 l 1,55,-1
 136 -103 l 1,0,-1
EndSplineSet
EndChar

StartChar: sterling
Encoding: 163 163 101
Width: 500
GlyphClass: 2
Flags: W
LayerCount: 2
Fore
SplineSet
0 0 m 1,0,-1
 10 56 l 1,1,2
 41 77 41 77 64 108 c 0,3,4
 102 158 102 158 120 260 c 2,5,-1
 138 362 l 1,6,-1
 87 362 l 1,7,-1
 87 418 l 1,8,-1
 148 418 l 1,9,-1
 173 561 l 2,10,11
 185 630 185 630 220 676 c 0,12,13
 244 709 244 709 278 726 c 0,14,15
 310 743 310 743 348 743 c 0,16,17
 387 743 387 743 413 726 c 0,18,19
 440 709 440 709 453.5 676 c 128,-1,20
 467 643 467 643 464 603 c 1,21,-1
 405 587 l 1,22,23
 407 622 407 622 397 647 c 0,24,25
 388 668 388 668 372 678 c 0,26,27
 359 687 359 687 338 687 c 0,28,29
 321 687 321 687 306 679 c 0,30,31
 288 669 288 669 273 649 c 0,32,33
 245 613 245 613 234 551 c 2,34,-1
 210 418 l 1,35,-1
 329 418 l 1,36,-1
 329 362 l 1,37,-1
 201 362 l 1,38,-1
 181 250 l 2,39,40
 161 133 161 133 117 75 c 0,41,42
 109 65 109 65 101 56 c 1,43,-1
 382 56 l 1,44,-1
 372 0 l 1,45,-1
 0 0 l 1,0,-1
EndSplineSet
EndChar

StartChar: currency
Encoding: 164 164 102
Width: 500
GlyphClass: 2
Flags: W
LayerCount: 2
Fore
SplineSet
51 158 m 1,0,-1
 11 200 l 1,1,-1
 88 266 l 1,2,3
 86 270 86 270 84 274 c 0,4,5
 66 319 66 319 77 379 c 0,6,7
 86 431 86 431 113 467 c 0,8,9
 117 472 117 472 120 476 c 1,10,-1
 73 533 l 1,11,-1
 121 569 l 1,12,-1
 166 514 l 1,13,14
 170 516 170 516 174 519 c 0,15,16
 216 540 216 540 269 540 c 2,17,-1
 270 540 l 2,18,19
 328 540 328 540 366 516 c 0,20,21
 371 513 371 513 375 510 c 1,22,-1
 449 572 l 1,23,-1
 489 530 l 1,24,-1
 412 464 l 1,25,26
 414 460 414 460 416 456 c 0,27,28
 434 411 434 411 423 351 c 0,29,30
 414 299 414 299 387 263 c 0,31,32
 383 258 383 258 380 254 c 1,33,-1
 427 197 l 1,34,-1
 379 161 l 1,35,-1
 334 216 l 1,36,37
 330 214 330 214 326 211 c 0,38,39
 284 190 284 190 230 190 c 0,40,41
 172 190 172 190 134 214 c 0,42,43
 129 217 129 217 125 220 c 1,44,-1
 51 158 l 1,0,-1
230 246 m 0,45,46
 266 246 266 246 293 260 c 0,47,48
 318 273 318 273 335 296 c 0,49,50
 354 321 354 321 362 360 c 1,51,52
 369 402 369 402 357 432 c 0,53,54
 347 456 347 456 326 470 c 0,55,56
 304 484 304 484 270 484 c 0,57,58
 234 484 234 484 207 470 c 0,59,60
 182 457 182 457 165 434 c 0,61,62
 146 409 146 409 138 370 c 1,63,64
 131 328 131 328 143 298 c 0,65,66
 153 274 153 274 174 260 c 0,67,68
 196 246 196 246 230 246 c 0,45,46
EndSplineSet
EndChar

StartChar: brokenbar
Encoding: 166 166 104
Width: 500
GlyphClass: 2
Flags: W
LayerCount: 2
Fore
SplineSet
227 411 m 1,0,-1
 312 898 l 1,1,-1
 375 898 l 1,2,-1
 290 411 l 1,3,-1
 227 411 l 1,0,-1
125 -168 m 1,4,-1
 210 319 l 1,5,-1
 273 319 l 1,6,-1
 188 -168 l 1,7,-1
 125 -168 l 1,4,-1
EndSplineSet
EndChar

StartChar: section
Encoding: 167 167 105
Width: 500
GlyphClass: 2
Flags: W
LayerCount: 2
Fore
SplineSet
165 -168 m 0,0,1
 100 -168 100 -168 56 -140 c 0,2,3
 18 -115 18 -115 2 -75 c 0,4,5
 -10 -46 -10 -46 -8 -13 c 1,6,-1
 54 -5 l 1,7,8
 49 -29 49 -29 59 -52 c 1,9,10
 69 -78 69 -78 94 -94 c 0,11,12
 122 -112 122 -112 165 -112 c 0,13,14
 204 -112 204 -112 236 -96 c 0,15,16
 264 -81 264 -81 282 -56 c 0,17,18
 304 -27 304 -27 310 7 c 0,19,20
 316 39 316 39 304 69 c 0,21,22
 288 109 288 109 240 140 c 0,23,24
 224 150 224 150 201 162 c 0,25,26
 199 163 199 163 194 166 c 0,27,28
 164 182 164 182 150 191 c 0,29,30
 92 228 92 228 72 279 c 0,31,32
 56 320 56 320 64 364 c 0,33,34
 73 414 73 414 108 461 c 0,35,36
 149 516 149 516 213 551 c 1,37,38
 159 587 159 587 138 638 c 0,39,40
 120 683 120 683 128 731 c 1,41,42
 137 778 137 778 166 818 c 1,43,44
 194 853 194 853 233 874 c 0,45,46
 279 898 279 898 338 898 c 0,47,48
 404 898 404 898 448 870 c 0,49,50
 487 845 487 845 503 803 c 1,51,52
 515 775 515 775 513 743 c 1,53,-1
 451 734 l 1,54,55
 455 758 455 758 446 781 c 0,56,57
 435 808 435 808 410 824 c 0,58,59
 382 842 382 842 338 842 c 0,60,61
 297 842 297 842 265 825 c 0,62,63
 236 810 236 810 218 785 c 1,64,65
 196 757 196 757 190 723 c 0,66,67
 184 691 184 691 196 661 c 0,68,69
 213 620 213 620 261 590 c 0,70,71
 273 582 273 582 299 568 c 0,72,73
 301 567 301 567 305 565 c 0,74,75
 335 548 335 548 350 539 c 0,76,77
 408 502 408 502 428 451 c 0,78,79
 444 410 444 410 436 366 c 0,80,81
 427 316 427 316 392 269 c 0,82,83
 351 214 351 214 287 179 c 1,84,85
 341 143 341 143 362 92 c 0,86,87
 380 47 380 47 372 -1 c 0,88,89
 363 -49 363 -49 333 -89 c 0,90,91
 307 -124 307 -124 267 -144 c 1,92,93
 223 -168 223 -168 165 -168 c 0,0,1
229 211 m 1,94,-1
 228 213 l 1,95,96
 300 248 300 248 342 304 c 0,97,98
 368 338 368 338 375 374 c 1,99,100
 380 405 380 405 369 433 c 0,101,102
 354 469 354 469 312 496 c 0,103,104
 299 505 299 505 271 519 c 1,105,-1
 272 517 l 1,106,107
 200 482 200 482 158 426 c 0,108,109
 132 392 132 392 125 356 c 1,110,111
 120 325 120 325 131 297 c 0,112,113
 146 261 146 261 188 234 c 0,114,115
 201 225 201 225 229 211 c 1,94,-1
EndSplineSet
EndChar

StartChar: copyright
Encoding: 169 169 107
Width: 500
GlyphClass: 2
Flags: W
LayerCount: 2
Fore
SplineSet
196 2 m 0,0,1
 127 2 127 2 83 30 c 0,2,3
 40 58 40 58 21 107 c 0,4,5
 -3 166 -3 166 12 251 c 2,6,-1
 60 522 l 2,7,8
 71 587 71 587 107 635 c 0,9,10
 139 677 139 677 185 701 c 0,11,12
 237 728 237 728 304 728 c 0,13,14
 373 728 373 728 417 700 c 0,15,16
 460 672 460 672 479 623 c 0,17,18
 503 564 503 564 488 479 c 2,19,-1
 440 208 l 2,20,21
 429 143 429 143 393 95 c 0,22,23
 361 53 361 53 315 29 c 0,24,25
 263 2 263 2 196 2 c 0,0,1
230 158 m 0,26,27
 180 158 180 158 150 178 c 0,28,29
 126 194 126 194 115.5 220 c 128,-1,30
 105 246 105 246 111 282 c 2,31,-1
 144 472 l 2,32,33
 150 501 150 501 165.5 522 c 128,-1,34
 181 543 181 543 206 555 c 1,35,36
 236 572 236 572 277 572 c 0,37,38
 321 572 321 572 350 553 c 0,39,40
 376 537 376 537 387 508 c 0,41,42
 392 495 392 495 393 482 c 1,43,-1
 342 472 l 1,44,45
 342 489 342 489 330 503 c 0,46,47
 313 524 313 524 277 524 c 0,48,49
 252 524 252 524 234 514 c 1,50,51
 219 507 219 507 209.5 494 c 128,-1,52
 200 481 200 481 196 463 c 2,53,-1
 163 274 l 2,54,55
 159 254 159 254 165 240 c 128,-1,56
 171 226 171 226 184 217 c 0,57,58
 202 206 202 206 230 206 c 0,59,60
 268 206 268 206 290 225 c 0,61,62
 304 237 304 237 311 253 c 1,63,-1
 359 235 l 1,64,65
 354 221 354 221 344 208 c 0,66,67
 328 187 328 187 305 175 c 0,68,69
 275 158 275 158 230 158 c 0,26,27
197 53 m 0,70,71
 246 53 246 53 285 73 c 0,72,73
 321 92 321 92 346 125 c 0,74,75
 375 163 375 163 385 217 c 2,76,-1
 432 488 l 2,77,78
 444 555 444 555 426 602 c 1,79,80
 411 638 411 638 381 658 c 1,81,82
 350 677 350 677 304 677 c 2,83,-1
 303 677 l 2,84,85
 254 677 254 677 215 657 c 0,86,87
 179 638 179 638 154 605 c 0,88,89
 125 567 125 567 115 513 c 2,90,-1
 68 242 l 2,91,92
 56 175 56 175 74 128 c 1,93,94
 89 92 89 92 119 72 c 1,95,96
 150 53 150 53 197 53 c 0,70,71
EndSplineSet
EndChar

StartChar: ordfeminine
Encoding: 170 170 108
Width: 500
GlyphClass: 2
Flags: W
LayerCount: 2
Fore
SplineSet
231 358 m 256,0,1
 192 358 192 358 167 375 c 0,2,3
 141 392 141 392 127 424 c 1,4,5
 110 469 110 469 127 566 c 0,6,7
 140 643 140 643 166 677 c 0,8,9
 188 706 188 706 219 723 c 0,10,11
 254 741 254 741 295 741 c 0,12,13
 332 741 332 741 356 725 c 1,14,15
 382 709 382 709 394 677 c 1,16,-1
 395 676 l 1,17,-1
 405 735 l 1,18,-1
 468 735 l 1,19,-1
 424 486 l 2,20,21
 411 412 411 412 424 364 c 1,22,-1
 361 364 l 1,23,24
 354 389 354 389 354 419 c 1,25,26
 333 391 333 391 303 375 c 0,27,28
 270 358 270 358 231 358 c 256,0,1
259 414 m 0,29,30
 287 414 287 414 309 426 c 0,31,32
 329 436 329 436 343 455 c 128,-1,33
 357 474 357 474 364 501 c 1,34,-1
 377 575 l 1,35,36
 383 615 383 615 372 642 c 0,37,38
 363 663 363 663 346 674 c 0,39,40
 330 685 330 685 305 685 c 0,41,42
 277 685 277 685 253 672 c 0,43,44
 232 661 232 661 217 641 c 0,45,46
 199 618 199 618 188 557 c 0,47,48
 176 486 176 486 187 459 c 0,49,50
 195 438 195 438 213.5 426 c 128,-1,51
 232 414 232 414 259 414 c 0,29,30
94 221 m 1,52,-1
 101 260 l 1,53,-1
 362 260 l 1,54,-1
 355 221 l 1,55,-1
 94 221 l 1,52,-1
EndSplineSet
EndChar

StartChar: logicalnot
Encoding: 172 172 110
Width: 500
GlyphClass: 2
Flags: W
LayerCount: 2
Fore
SplineSet
337 160 m 1,0,-1
 368 337 l 1,1,-1
 59 337 l 1,2,-1
 69 393 l 1,3,-1
 441 393 l 1,4,-1
 436 365 l 1,5,-1
 400 160 l 1,6,-1
 337 160 l 1,0,-1
EndSplineSet
EndChar

StartChar: registered
Encoding: 174 174 112
Width: 500
GlyphClass: 2
Flags: W
LayerCount: 2
Fore
SplineSet
196 2 m 0,0,1
 127 2 127 2 83 30 c 0,2,3
 40 58 40 58 21 107 c 0,4,5
 -3 166 -3 166 12 251 c 2,6,-1
 60 522 l 2,7,8
 71 587 71 587 107 635 c 0,9,10
 139 677 139 677 185 701 c 0,11,12
 237 728 237 728 304 728 c 0,13,14
 373 728 373 728 417 700 c 0,15,16
 460 672 460 672 479 623 c 0,17,18
 503 564 503 564 488 479 c 2,19,-1
 440 208 l 2,20,21
 429 143 429 143 393 95 c 0,22,23
 361 53 361 53 315 29 c 0,24,25
 263 2 263 2 196 2 c 0,0,1
94 163 m 1,26,-1
 166 567 l 1,27,-1
 286 567 l 2,28,29
 323 567 323 567 348 551 c 0,30,31
 371 537 371 537 381 510 c 0,32,33
 394 478 394 478 386 432 c 0,34,35
 380 395 380 395 360 370 c 1,36,37
 344 348 344 348 320 335 c 0,38,39
 306 328 306 328 291 325 c 1,40,41
 312 291 312 291 324 260 c 0,42,43
 346 206 346 206 339 163 c 1,44,-1
 285 163 l 1,45,46
 292 200 292 200 273 247 c 0,47,48
 259 282 259 282 232 321 c 1,49,-1
 176 321 l 1,50,-1
 148 163 l 1,51,-1
 94 163 l 1,26,-1
260 369 m 2,52,53
 278 369 278 369 293 376 c 1,54,55
 306 384 306 384 317 397 c 1,56,57
 330 415 330 415 334 440 c 0,58,59
 340 470 340 470 331 490 c 1,60,61
 326 505 326 505 314.5 512.5 c 128,-1,62
 303 520 303 520 286 520 c 2,63,-1
 211 520 l 1,64,-1
 184 369 l 1,65,-1
 260 369 l 2,52,53
197 53 m 0,66,67
 246 53 246 53 285 73 c 0,68,69
 321 92 321 92 346 125 c 0,70,71
 375 163 375 163 385 217 c 2,72,-1
 432 488 l 2,73,74
 444 555 444 555 426 602 c 1,75,76
 411 638 411 638 381 658 c 1,77,78
 350 677 350 677 304 677 c 2,79,-1
 303 677 l 2,80,81
 254 677 254 677 215 657 c 0,82,83
 179 638 179 638 154 605 c 0,84,85
 125 567 125 567 115 513 c 2,86,-1
 68 242 l 2,87,88
 56 175 56 175 74 128 c 1,89,90
 89 92 89 92 119 72 c 1,91,92
 150 53 150 53 197 53 c 0,66,67
EndSplineSet
EndChar

StartChar: macron
Encoding: 175 175 113
Width: 500
GlyphClass: 2
Flags: W
FFAnchorPoint: "Anchor-5" 371 0 basechar 0
FFAnchorPoint: "Anchor-4" 465 530 basechar 0
FFAnchorPoint: "Anchor-3" 232 265 basechar 0
FFAnchorPoint: "Anchor-2" 234 275 basechar 0
FFAnchorPoint: "Anchor-1" 185 0 basechar 0
FFAnchorPoint: "Anchor-0" 316 743 basechar 0
LayerCount: 2
Fore
SplineSet
156 657 m 1,0,-1
 156 713 l 1,1,-1
 456 713 l 1,2,-1
 456 657 l 1,3,-1
 156 657 l 1,0,-1
EndSplineSet
EndChar

StartChar: degree
Encoding: 176 176 114
Width: 500
GlyphClass: 2
Flags: W
FFAnchorPoint: "Anchor-5" 371 0 basechar 0
FFAnchorPoint: "Anchor-4" 465 530 basechar 0
FFAnchorPoint: "Anchor-3" 232 265 basechar 0
FFAnchorPoint: "Anchor-2" 234 275 basechar 0
FFAnchorPoint: "Anchor-1" 185 0 basechar 0
FFAnchorPoint: "Anchor-0" 316 743 basechar 0
LayerCount: 2
Fore
SplineSet
302 557 m 0,0,1
 269 557 269 557 245 571 c 0,2,3
 224 583 224 583 212 604 c 0,4,5
 198 628 198 628 198 661.5 c 128,-1,6
 198 695 198 695 212 719 c 0,7,8
 224 740 224 740 245 752 c 0,9,10
 269 766 269 766 302 766 c 0,11,12
 336 766 336 766 360 752 c 0,13,14
 381 740 381 740 393 719 c 0,15,16
 407 695 407 695 407 661.5 c 128,-1,17
 407 628 407 628 393 604 c 0,18,19
 381 583 381 583 360 571 c 0,20,21
 336 557 336 557 302 557 c 0,0,1
302 615 m 256,22,23
 323 615 323 615 336 628 c 128,-1,24
 349 641 349 641 348 662 c 1,25,26
 349 683 349 683 336 695.5 c 128,-1,27
 323 708 323 708 302 708 c 256,28,29
 281 708 281 708 268.5 695.5 c 128,-1,30
 256 683 256 683 256 661.5 c 128,-1,31
 256 640 256 640 268.5 627.5 c 128,-1,32
 281 615 281 615 302 615 c 256,22,23
EndSplineSet
EndChar

StartChar: uni00B2
Encoding: 178 178 116
Width: 500
GlyphClass: 2
Flags: W
FFAnchorPoint: "Anchor-5" 390 298 basechar 0
FFAnchorPoint: "Anchor-4" 481 812 basechar 0
FFAnchorPoint: "Anchor-3" 283 555 basechar 0
FFAnchorPoint: "Anchor-2" 285 565 basechar 0
FFAnchorPoint: "Anchor-1" 238 298 basechar 0
FFAnchorPoint: "Anchor-0" 328 812 basechar 0
LayerCount: 2
Fore
SplineSet
391 298 m 1,0,-1
 86 299 l 1,1,2
 102 389 102 389 138 437 c 0,3,4
 171 481 171 481 266 538 c 0,5,6
 345 585 345 585 373 623 c 0,7,8
 392 649 392 649 398 676 c 1,9,10
 402 701 402 701 394 720 c 0,11,12
 387 738 387 738 370 749 c 0,13,14
 349 762 349 762 317 762 c 0,15,16
 284 762 284 762 259 749 c 0,17,18
 241 740 241 740 230 724 c 1,19,20
 217 708 217 708 214 689 c 1,21,-1
 154 704 l 1,22,23
 159 733 159 733 178.5 758.5 c 128,-1,24
 198 784 198 784 225 798 c 0,25,26
 263 818 263 818 317 818 c 0,27,28
 374 818 374 818 409 795 c 0,29,30
 439 776 439 776 452 744 c 0,31,32
 466 709 466 709 458.5 667 c 128,-1,33
 451 625 451 625 423 588 c 0,34,35
 390 544 390 544 297 491 c 0,36,37
 219 447 219 447 190 409 c 0,38,39
 174 387 174 387 163 354 c 1,40,-1
 401 354 l 1,41,-1
 391 298 l 1,0,-1
EndSplineSet
EndChar

StartChar: uni00B3
Encoding: 179 179 117
Width: 500
GlyphClass: 2
Flags: W
FFAnchorPoint: "Anchor-5" 390 298 basechar 0
FFAnchorPoint: "Anchor-4" 481 812 basechar 0
FFAnchorPoint: "Anchor-3" 283 555 basechar 0
FFAnchorPoint: "Anchor-2" 285 565 basechar 0
FFAnchorPoint: "Anchor-1" 238 298 basechar 0
FFAnchorPoint: "Anchor-0" 328 812 basechar 0
LayerCount: 2
Fore
SplineSet
248 298 m 0,0,1
 193 298 193 298 156 322 c 0,2,3
 123 343 123 343 108 380 c 0,4,5
 103 394 103 394 101 407 c 1,6,-1
 161 422 l 1,7,8
 162 411 162 411 166 402 c 0,9,10
 174 380 174 380 194 368 c 1,11,12
 215 354 215 354 248 354 c 0,13,14
 279 354 279 354 303 367 c 1,15,16
 324 377 324 377 339 397 c 0,17,18
 355 418 355 418 360 449 c 0,19,20
 366 483 366 483 356 507 c 0,21,22
 348 527 348 527 330 538 c 1,23,24
 311 551 311 551 282 551 c 2,25,-1
 206 551 l 1,26,-1
 216 607 l 1,27,-1
 388 757 l 1,28,-1
 166 757 l 1,29,-1
 176 813 l 1,30,-1
 474 813 l 1,31,-1
 464 757 l 1,32,-1
 292 606 l 1,33,34
 339 605 339 605 371 584 c 0,35,36
 401 565 401 565 415 530 c 0,37,38
 431 492 431 492 421 440 c 1,39,40
 414 395 414 395 390 364 c 1,41,42
 369 335 369 335 336 318 c 0,43,44
 298 298 298 298 248 298 c 0,0,1
EndSplineSet
EndChar

StartChar: acute
Encoding: 180 180 118
Width: 500
GlyphClass: 2
Flags: W
LayerCount: 2
Fore
SplineSet
266 542 m 1,0,-1
 226 578 l 1,1,-1
 419 780 l 1,2,-1
 468 736 l 1,3,-1
 266 542 l 1,0,-1
EndSplineSet
EndChar

StartChar: uni00B5
Encoding: 181 181 119
Width: 500
GlyphClass: 2
Flags: W
FFAnchorPoint: "Anchor-5" 335 -205 basechar 0
FFAnchorPoint: "Anchor-4" 465 530 basechar 0
FFAnchorPoint: "Anchor-3" 214 162 basechar 0
FFAnchorPoint: "Anchor-2" 216 177 basechar 0
FFAnchorPoint: "Anchor-1" 149 -205 basechar 0
FFAnchorPoint: "Anchor-0" 279 530 basechar 0
LayerCount: 2
Fore
SplineSet
-37 -205 m 1,0,-1
 -18 -103 l 1,1,-1
 42 241 l 1,2,-1
 93 530 l 1,3,-1
 156 530 l 1,4,-1
 105 241 l 1,5,-1
 101 218 l 1,6,7
 92 151 92 151 109 107 c 0,8,9
 122 76 122 76 145 61 c 0,10,11
 166 48 166 48 196 48 c 0,12,13
 229 48 229 48 256 62 c 0,14,15
 285 77 285 77 305 105 c 1,16,17
 332 140 332 140 343 193 c 1,18,-1
 344 199 l 1,19,-1
 344 201 l 1,20,-1
 402 530 l 1,21,-1
 465 530 l 1,22,-1
 372 0 l 1,23,-1
 309 0 l 1,24,-1
 321 70 l 1,25,26
 292 32 292 32 253 12 c 0,27,28
 216 -8 216 -8 169 -8 c 0,29,30
 128 -8 128 -8 99 10 c 0,31,32
 82 21 82 21 69 38 c 1,33,-1
 45 -103 l 1,34,-1
 26 -205 l 1,35,-1
 -37 -205 l 1,0,-1
EndSplineSet
EndChar

StartChar: paragraph
Encoding: 182 182 120
Width: 500
GlyphClass: 2
Flags: W
LayerCount: 2
Fore
SplineSet
312 0 m 1,0,-1
 442 735 l 1,1,-1
 505 735 l 1,2,-1
 375 0 l 1,3,-1
 312 0 l 1,0,-1
168 0 m 1,4,-1
 228 340 l 1,5,6
 179 340 179 340 145 362 c 0,7,8
 113 383 113 383 98 421 c 0,9,10
 79 468 79 468 91 537 c 128,-1,11
 103 606 103 606 139 654 c 0,12,13
 168 692 168 692 207 713 c 1,14,15
 249 734 249 734 298 735 c 1,16,-1
 361 735 l 1,17,-1
 231 0 l 1,18,-1
 168 0 l 1,4,-1
238 396 m 1,19,-1
 288 679 l 1,20,21
 260 678 260 678 235 665 c 128,-1,22
 210 652 210 652 190 626 c 0,23,24
 163 590 163 590 153.5 537 c 128,-1,25
 144 484 144 484 159 448 c 0,26,27
 169 423 169 423 190 409 c 0,28,29
 210 396 210 396 238 396 c 1,19,-1
EndSplineSet
Substitution2: "Single Substitution lookup 140 subtable" paragraph.cv23
Substitution2: "'ss11' Style Set 11 lookup 139 subtable" paragraph.ss11
EndChar

StartChar: cedilla
Encoding: 184 184 122
Width: 500
GlyphClass: 2
Flags: W
FFAnchorPoint: "Anchor-5" 371 0 basechar 0
FFAnchorPoint: "Anchor-4" 465 530 basechar 0
FFAnchorPoint: "Anchor-3" 232 265 basechar 0
FFAnchorPoint: "Anchor-2" 234 275 basechar 0
FFAnchorPoint: "Anchor-1" 147 -213 basechar 0
FFAnchorPoint: "Anchor-0" 279 530 basechar 0
LayerCount: 2
Fore
SplineSet
48 -214 m 1,0,-1
 58 -158 l 1,1,-1
 158 -158 l 2,2,3
 181 -158 181 -158 196 -146 c 0,4,5
 207 -136 207 -136 209.5 -122 c 128,-1,6
 212 -108 212 -108 204 -99 c 0,7,8
 194 -86 194 -86 170 -86 c 2,9,-1
 139 -86 l 1,10,-1
 144 -58 l 1,11,-1
 154 0 l 1,12,-1
 217 0 l 1,13,-1
 211 -33 l 1,14,15
 229 -37 229 -37 243 -46 c 0,16,17
 261 -58 261 -58 269 -77 c 128,-1,18
 277 -96 277 -96 272.5 -122 c 128,-1,19
 268 -148 268 -148 253.5 -167.5 c 128,-1,20
 239 -187 239 -187 216 -199 c 0,21,22
 187 -214 187 -214 148 -214 c 2,23,-1
 48 -214 l 1,0,-1
EndSplineSet
EndChar

StartChar: uni00B9
Encoding: 185 185 123
Width: 500
GlyphClass: 2
Flags: W
FFAnchorPoint: "Anchor-5" 390 298 basechar 0
FFAnchorPoint: "Anchor-4" 481 812 basechar 0
FFAnchorPoint: "Anchor-3" 283 555 basechar 0
FFAnchorPoint: "Anchor-2" 285 565 basechar 0
FFAnchorPoint: "Anchor-1" 238 298 basechar 0
FFAnchorPoint: "Anchor-0" 328 812 basechar 0
LayerCount: 2
Fore
SplineSet
228 298 m 1,0,-1
 305 736 l 1,1,-1
 220 683 l 1,2,-1
 187 731 l 1,3,-1
 318 813 l 1,4,-1
 381 813 l 1,5,-1
 291 298 l 1,6,-1
 228 298 l 1,0,-1
EndSplineSet
EndChar

StartChar: ordmasculine
Encoding: 186 186 124
Width: 500
GlyphClass: 2
Flags: W
LayerCount: 2
Fore
SplineSet
259 358 m 0,0,1
 206 358 206 358 173 380 c 0,2,3
 142 400 142 400 127 435 c 1,4,5
 111 477 111 477 127 565 c 0,6,7
 140 640 140 640 165 674 c 0,8,9
 187 704 187 704 220 721 c 0,10,11
 258 740 258 740 306 741 c 1,12,13
 358 741 358 741 393 719 c 0,14,15
 423 699 423 699 438 664 c 1,16,17
 454 622 454 622 438 534 c 0,18,19
 425 459 425 459 400 425 c 0,20,21
 378 395 378 395 345 378 c 0,22,23
 307 358 307 358 259 358 c 0,0,1
259 414 m 0,24,25
 288 414 288 414 312 427 c 0,26,27
 333 438 333 438 348 458 c 0,28,29
 366 481 366 481 377 541 c 0,30,31
 389 613 389 613 378 640 c 0,32,33
 370 661 370 661 351.5 673 c 128,-1,34
 333 685 333 685 306 685 c 0,35,36
 277 685 277 685 253 672 c 0,37,38
 232 661 232 661 217 641 c 0,39,40
 199 618 199 618 188 558 c 0,41,42
 176 486 176 486 187 459 c 0,43,44
 195 438 195 438 213.5 426 c 128,-1,45
 232 414 232 414 259 414 c 0,24,25
94 221 m 1,46,-1
 101 260 l 1,47,-1
 362 260 l 1,48,-1
 355 221 l 1,49,-1
 94 221 l 1,46,-1
EndSplineSet
EndChar

StartChar: questiondown
Encoding: 191 191 129
Width: 500
GlyphClass: 2
Flags: W
LayerCount: 2
Fore
SplineSet
270 422 m 0,0,1
 244 422 244 422 228 437.5 c 128,-1,2
 212 453 212 453 212 480 c 128,-1,3
 212 507 212 507 228 522.5 c 128,-1,4
 244 538 244 538 270 538 c 0,5,6
 297 538 297 538 312.5 522 c 128,-1,7
 328 506 328 506 328 480 c 128,-1,8
 328 454 328 454 312.5 438 c 128,-1,9
 297 422 297 422 270 422 c 0,0,1
163 -213 m 0,10,11
 99 -213 99 -213 58 -187 c 0,12,13
 21 -163 21 -163 5 -122 c 0,14,15
 -14 -76 -14 -76 -3.5 -18.5 c 128,-1,16
 7 39 7 39 44 88 c 0,17,18
 66 117 66 117 115 161 c 0,19,20
 155 196 155 196 171 218 c 0,21,22
 199 255 199 255 210 319 c 1,23,-1
 272 309 l 1,24,25
 257 226 257 226 222 181 c 0,26,27
 203 155 203 155 153 110 c 0,28,29
 111 73 111 73 92 48 c 0,30,31
 64 10 64 10 57 -30 c 0,32,33
 50 -68 50 -68 63 -99 c 0,34,35
 73 -125 73 -125 97 -140 c 0,36,37
 123 -157 123 -157 163 -157 c 0,38,39
 199 -157 199 -157 227.5 -142 c 128,-1,40
 256 -127 256 -127 277 -99 c 0,41,42
 297 -72 297 -72 307 -39 c 1,43,-1
 368 -50 l 1,44,45
 355 -94 355 -94 328 -131 c 1,46,47
 298 -170 298 -170 256.5 -191.5 c 128,-1,48
 215 -213 215 -213 163 -213 c 0,10,11
EndSplineSet
EndChar

StartChar: AE
Encoding: 198 198 136
Width: 500
GlyphClass: 2
Flags: W
FFAnchorPoint: "Anchor-5" 371 0 basechar 0
FFAnchorPoint: "Anchor-4" 501 735 basechar 0
FFAnchorPoint: "Anchor-3" 250 367 basechar 0
FFAnchorPoint: "Anchor-2" 253 382 basechar 0
FFAnchorPoint: "Anchor-1" 185 0 basechar 0
FFAnchorPoint: "Anchor-0" 315 735 basechar 0
LayerCount: 2
Fore
SplineSet
299 724 m 1,0,-1
 301 735 l 1,1,-1
 299 724 l 1,0,-1
129 265 m 1,2,-1
 219 265 l 1,3,-1
 285 643 l 1,4,5
 183 419 183 419 129 265 c 1,2,-1
0 0 m 1,6,-1
 13 74 l 2,7,8
 48 273 48 273 273 735 c 1,9,-1
 301 735 l 1,10,-1
 501 735 l 1,11,-1
 491 679 l 1,12,-1
 354 679 l 1,13,-1
 310 425 l 1,14,-1
 433 425 l 1,15,-1
 423 369 l 1,16,-1
 300 369 l 1,17,-1
 245 56 l 1,18,-1
 382 56 l 1,19,-1
 372 0 l 1,20,-1
 172 0 l 1,21,-1
 209 209 l 1,22,-1
 111 209 l 1,23,24
 86 130 86 130 76 74 c 2,25,-1
 63 0 l 1,26,-1
 0 0 l 1,6,-1
EndSplineSet
EndChar

StartChar: Eth
Encoding: 208 208 146
Width: 500
GlyphClass: 2
Flags: W
FFAnchorPoint: "Anchor-5" 371 0 basechar 0
FFAnchorPoint: "Anchor-4" 501 735 basechar 0
FFAnchorPoint: "Anchor-3" 250 367 basechar 0
FFAnchorPoint: "Anchor-2" 253 382 basechar 0
FFAnchorPoint: "Anchor-1" 185 0 basechar 0
FFAnchorPoint: "Anchor-0" 315 735 basechar 0
LayerCount: 2
Fore
SplineSet
0 0 m 1,0,-1
 62 354 l 1,1,-1
 22 354 l 1,2,-1
 22 410 l 1,3,-1
 72 410 l 1,4,-1
 129 735 l 1,5,-1
 287 735 l 2,6,7
 346 735 346 735 387 709 c 0,8,9
 429 682 429 682 449 630 c 1,10,11
 478 559 478 559 459 451 c 2,12,-1
 422 242 l 2,13,14
 408 160 408 160 364 102 c 0,15,16
 329 55 329 55 279 29 c 0,17,18
 224 0 224 0 157 0 c 2,19,-1
 0 0 l 1,0,-1
73 56 m 1,20,-1
 157 56 l 2,21,22
 206 56 206 56 246 77 c 0,23,24
 284 97 284 97 313 135 c 0,25,26
 349 182 349 182 361 252 c 2,27,-1
 398 460 l 2,28,29
 414 551 414 551 391 608 c 0,30,31
 376 645 376 645 348 663 c 0,32,33
 323 679 323 679 287 679 c 2,34,-1
 182 679 l 1,35,-1
 135 410 l 1,36,-1
 266 410 l 1,37,-1
 266 354 l 1,38,-1
 125 354 l 1,39,-1
 73 56 l 1,20,-1
EndSplineSet
EndChar

StartChar: Oslash
Encoding: 216 216 154
Width: 500
GlyphClass: 2
Flags: W
FFAnchorPoint: "Anchor-5" 371 0 basechar 0
FFAnchorPoint: "Anchor-4" 501 735 basechar 0
FFAnchorPoint: "Anchor-3" 250 367 basechar 0
FFAnchorPoint: "Anchor-2" 253 382 basechar 0
FFAnchorPoint: "Anchor-1" 185 0 basechar 0
FFAnchorPoint: "Anchor-0" 315 735 basechar 0
LayerCount: 2
Fore
SplineSet
40 -51 m 1,0,-1
 -14 -23 l 1,1,-1
 43 75 l 1,2,3
 40 80 40 80 38 86 c 0,4,5
 16 140 16 140 30 216 c 2,6,-1
 91 561 l 2,7,8
 101 619 101 619 132 661 c 0,9,10
 160 698 160 698 201 719 c 0,11,12
 246 743 246 743 306 743 c 0,13,14
 367 743 367 743 407 717 c 0,15,16
 412 714 412 714 417 710 c 1,17,-1
 461 786 l 1,18,-1
 515 758 l 1,19,-1
 458 660 l 1,20,21
 461 655 461 655 463 649 c 0,22,23
 485 595 485 595 471 519 c 2,24,-1
 410 174 l 2,25,26
 400 116 400 116 369 74 c 0,27,28
 341 37 341 37 300 16 c 0,29,30
 254 -8 254 -8 195 -8 c 0,31,32
 134 -8 134 -8 93 18 c 0,33,34
 88 21 88 21 84 24 c 1,35,-1
 40 -51 l 1,0,-1
88 150 m 1,36,-1
 385 656 l 1,37,38
 377 665 377 665 367 671 c 0,39,40
 343 687 343 687 305 687 c 0,41,42
 265 687 265 687 233 670 c 0,43,44
 204 655 204 655 184 628 c 0,45,46
 160 596 160 596 152 551 c 2,47,-1
 91 206 l 2,48,49
 86 176 86 176 88 150 c 1,36,-1
196 48 m 0,50,51
 236 48 236 48 268 65 c 0,52,53
 297 80 297 80 317 107 c 0,54,55
 341 139 341 139 349 184 c 2,56,-1
 410 529 l 2,57,58
 415 559 415 559 413 584 c 1,59,-1
 116 78 l 1,60,61
 124 70 124 70 133 64 c 0,62,63
 159 48 159 48 196 48 c 0,50,51
EndSplineSet
EndChar

StartChar: Thorn
Encoding: 222 222 160
Width: 500
GlyphClass: 2
Flags: W
FFAnchorPoint: "Anchor-5" 371 0 basechar 0
FFAnchorPoint: "Anchor-4" 501 735 basechar 0
FFAnchorPoint: "Anchor-3" 250 367 basechar 0
FFAnchorPoint: "Anchor-2" 253 382 basechar 0
FFAnchorPoint: "Anchor-1" 185 0 basechar 0
FFAnchorPoint: "Anchor-0" 315 735 basechar 0
LayerCount: 2
Fore
SplineSet
16 0 m 1,0,-1
 145 735 l 1,1,-1
 208 735 l 1,2,-1
 183 595 l 1,3,-1
 237 595 l 2,4,5
 315 595 315 595 366 563 c 0,6,7
 411 534 411 534 431 483 c 1,8,9
 455 425 455 425 441 346 c 0,10,11
 429 282 429 282 396 238 c 0,12,13
 365 196 365 196 316 171 c 0,14,15
 257 140 257 140 180 140 c 2,16,-1
 104 140 l 1,17,-1
 79 0 l 1,18,-1
 16 0 l 1,0,-1
113 196 m 1,19,-1
 180 196 l 2,20,21
 238 196 238 196 283 219 c 0,22,23
 320 238 320 238 345 271 c 0,24,25
 371 306 371 306 379 355 c 0,26,27
 390 416 390 416 372 459 c 1,28,29
 358 496 358 496 326 517 c 1,30,31
 290 539 290 539 237 539 c 2,32,-1
 174 539 l 1,33,-1
 113 196 l 1,19,-1
EndSplineSet
EndChar

StartChar: germandbls
Encoding: 223 223 161
Width: 500
GlyphClass: 2
Flags: W
FFAnchorPoint: "Anchor-5" 371 0 basechar 0
FFAnchorPoint: "Anchor-4" 501 735 basechar 0
FFAnchorPoint: "Anchor-3" 250 367 basechar 0
FFAnchorPoint: "Anchor-2" 253 382 basechar 0
FFAnchorPoint: "Anchor-1" 185 0 basechar 0
FFAnchorPoint: "Anchor-0" 315 735 basechar 0
LayerCount: 2
Fore
SplineSet
-182 -183 m 1,0,-1
 -182 -127 l 1,1,2
 -123 -127 -123 -127 -78 -104 c 0,3,4
 -46 -87 -46 -87 -26.5 -60.5 c 128,-1,5
 -7 -34 -7 -34 0 0 c 1,6,-1
 93 530 l 2,7,8
 107 607 107 607 146 660 c 1,9,10
 177 700 177 700 218 721.5 c 128,-1,11
 259 743 259 743 310 743 c 0,12,13
 362 743 362 743 397 721 c 0,14,15
 430 700 430 700 446 661 c 0,16,17
 464 614 464 614 453 554 c 0,18,19
 442 490 442 490 402 436 c 0,20,21
 373 398 373 398 336 375 c 1,22,23
 345 370 345 370 353 365 c 0,24,25
 391 340 391 340 408 299 c 0,26,27
 425 257 425 257 415 198 c 0,28,29
 404 139 404 139 372 96 c 0,30,31
 341 55 341 55 294 30 c 0,32,33
 236 0 236 0 160 0 c 2,34,-1
 112 0 l 1,35,-1
 122 56 l 1,36,-1
 160 56 l 2,37,38
 217 56 217 56 261 79 c 0,39,40
 297 98 297 98 320 129 c 0,41,42
 345 162 345 162 353 207 c 0,43,44
 360 245 360 245 348.5 272.5 c 128,-1,45
 337 300 337 300 311 317 c 0,46,47
 276 339 276 339 220 340 c 1,48,-1
 230 396 l 1,49,50
 261 396 261 396 291 411 c 0,51,52
 323 428 323 428 348 461 c 0,53,54
 382 506 382 506 392 563 c 0,55,56
 400 607 400 607 387 638 c 0,57,58
 378 662 378 662 358 674.5 c 128,-1,59
 338 687 338 687 309 687 c 0,60,61
 276 687 276 687 250 673 c 0,62,63
 220 658 220 658 198 628 c 0,64,65
 166 586 166 586 154 520 c 2,66,-1
 63 0 l 2,67,68
 53 -52 53 -52 24 -92 c 1,69,70
 -5 -130 -5 -130 -49 -153 c 0,71,72
 -107 -183 -107 -183 -182 -183 c 1,0,-1
EndSplineSet
Substitution2: "'ss11' Style Set 11 lookup 128 subtable" germandbls.ss11
Substitution2: "Single Substitution lookup 127 subtable" germandbls.cv34
EndChar

StartChar: ae
Encoding: 230 230 168
Width: 500
GlyphClass: 2
Flags: W
FFAnchorPoint: "Anchor-5" 371 0 basechar 0
FFAnchorPoint: "Anchor-4" 465 530 basechar 0
FFAnchorPoint: "Anchor-3" 232 265 basechar 0
FFAnchorPoint: "Anchor-2" 234 275 basechar 0
FFAnchorPoint: "Anchor-1" 185 0 basechar 0
FFAnchorPoint: "Anchor-0" 279 530 basechar 0
LayerCount: 2
Fore
SplineSet
98 -8 m 0,0,1
 67 -8 67 -8 45.5 6 c 128,-1,2
 24 20 24 20 13 47 c 0,3,4
 -2 84 -2 84 8 138 c 0,5,6
 18 194 18 194 47 233 c 0,7,8
 73 267 73 267 110 287 c 0,9,10
 153 309 153 309 206 309 c 2,11,-1
 209 309 l 1,12,-1
 224 395 l 2,13,14
 233 447 233 447 214 470 c 0,15,16
 204 482 204 482 187 482 c 0,17,18
 171 482 171 482 157 470 c 0,19,20
 128 445 128 445 118 388 c 1,21,-1
 56 391 l 1,22,23
 65 444 65 444 94 484 c 1,24,25
 115 511 115 511 142 525 c 0,26,27
 166 538 166 538 197 538 c 0,28,29
 227 538 227 538 247 525 c 0,30,31
 261 516 261 516 270 502 c 1,32,33
 284 516 284 516 301 525 c 0,34,35
 326 538 326 538 357 538 c 0,36,37
 391 538 391 538 415 522.5 c 128,-1,38
 439 507 439 507 450 479 c 0,39,40
 465 442 465 442 456 385 c 1,41,-1
 429 237 l 1,42,-1
 259 237 l 1,43,-1
 243 145 l 2,44,45
 242 140 242 140 241 135 c 0,46,47
 235 101 235 101 244 79 c 0,48,49
 250 63 250 63 263 55 c 0,50,51
 274 48 274 48 291 48 c 0,52,53
 307 48 307 48 320 55 c 0,54,55
 335 63 335 63 347 79 c 0,56,57
 363 100 363 100 370 128 c 1,58,-1
 431 117 l 1,59,60
 420 80 420 80 399 51.5 c 128,-1,61
 378 23 378 23 348 7.5 c 128,-1,62
 318 -8 318 -8 282 -8 c 0,63,64
 245 -8 245 -8 221 8 c 1,65,66
 204 18 204 18 193 35 c 1,67,68
 176 16 176 16 155 5 c 0,69,70
 130 -8 130 -8 98 -8 c 0,0,1
269 293 m 1,71,-1
 376 293 l 1,72,-1
 394 395 l 2,73,74
 404 447 404 447 384 469 c 1,75,76
 374 482 374 482 356 482 c 0,77,78
 337 482 337 482 322 469 c 0,79,80
 296 447 296 447 288 401 c 2,81,-1
 269 293 l 1,71,-1
108 48 m 0,82,83
 124 48 124 48 138 59 c 0,84,85
 169 86 169 86 181 154 c 2,86,-1
 199 253 l 1,87,88
 168 252 168 252 142.5 238.5 c 128,-1,89
 117 225 117 225 99 200 c 1,90,91
 77 172 77 172 69 129 c 0,92,93
 61 83 61 83 79 61 c 0,94,95
 90 48 90 48 108 48 c 0,82,83
EndSplineSet
EndChar

StartChar: eth
Encoding: 240 240 178
Width: 500
GlyphClass: 2
Flags: W
FFAnchorPoint: "Anchor-5" 371 0 basechar 0
FFAnchorPoint: "Anchor-4" 501 735 basechar 0
FFAnchorPoint: "Anchor-3" 250 367 basechar 0
FFAnchorPoint: "Anchor-2" 253 382 basechar 0
FFAnchorPoint: "Anchor-1" 185 0 basechar 0
FFAnchorPoint: "Anchor-0" 315 735 basechar 0
LayerCount: 2
Fore
SplineSet
195 -8 m 0,0,1
 139 -8 139 -8 100 17 c 128,-1,2
 61 42 61 42 43 88 c 0,3,4
 18 149 18 149 34 241 c 1,5,-1
 34 242 l 1,6,7
 47 315 47 315 85 365 c 0,8,9
 115 404 115 404 157.5 426.5 c 128,-1,10
 200 449 200 449 254 449 c 0,11,12
 311 449 311 449 349 424 c 0,13,14
 357 419 357 419 365 413 c 1,15,16
 358 473 358 473 339 520 c 0,17,18
 337 526 337 526 334 532 c 1,19,-1
 134 482 l 1,20,-1
 119 537 l 1,21,-1
 305 583 l 1,22,23
 276 625 276 625 232 653 c 0,24,25
 203 671 203 671 172 682 c 1,26,-1
 191 735 l 1,27,28
 234 722 234 722 271 698 c 0,29,30
 332 659 332 659 369 599 c 1,31,-1
 450 619 l 1,32,-1
 465 564 l 1,33,-1
 396 547 l 1,34,35
 397 544 397 544 398 541 c 0,36,37
 452 409 452 409 415 199 c 0,38,39
 402 126 402 126 364 76 c 0,40,41
 334 37 334 37 291.5 14.5 c 128,-1,42
 249 -8 249 -8 195 -8 c 0,0,1
196 48 m 0,43,44
 231 48 231 48 260 63 c 0,45,46
 290 79 290 79 313 109 c 0,47,48
 343 149 343 149 353 209 c 1,49,-1
 354 210 l 1,50,51
 366 283 366 283 348 330 c 0,52,53
 335 362 335 362 310 378 c 0,54,55
 287 393 287 393 253 393 c 0,56,57
 218 393 218 393 189 378 c 0,58,59
 159 362 159 362 136 332 c 0,60,61
 106 292 106 292 96 232 c 1,62,-1
 95 231 l 1,63,64
 83 158 83 158 101 111 c 1,65,66
 115 79 115 79 139 63 c 0,67,68
 162 48 162 48 196 48 c 0,43,44
EndSplineSet
EndChar

StartChar: divide
Encoding: 247 247 185
Width: 500
GlyphClass: 2
Flags: W
FFAnchorPoint: "Anchor-5" 371 0 basechar 0
FFAnchorPoint: "Anchor-4" 465 530 basechar 0
FFAnchorPoint: "Anchor-3" 250 365 basechar 0
FFAnchorPoint: "Anchor-2" 251 373 basechar 0
FFAnchorPoint: "Anchor-1" 213 160 basechar 0
FFAnchorPoint: "Anchor-0" 286 569 basechar 0
LayerCount: 2
Fore
SplineSet
283 501 m 256,0,1
 254 501 254 501 238 517 c 0,2,3
 225 530 225 530 225 551 c 128,-1,4
 225 572 225 572 238 585 c 0,5,6
 254 601 254 601 283 601 c 256,7,8
 312 601 312 601 328 585 c 0,9,10
 341 572 341 572 341 551 c 128,-1,11
 341 530 341 530 328 517 c 0,12,13
 312 501 312 501 283 501 c 256,0,1
59 337 m 1,14,-1
 69 393 l 1,15,-1
 441 393 l 1,16,-1
 431 337 l 1,17,-1
 59 337 l 1,14,-1
217 129 m 256,18,19
 188 129 188 129 172 145 c 0,20,21
 159 158 159 158 159 179 c 128,-1,22
 159 200 159 200 172 213 c 0,23,24
 188 229 188 229 217 229 c 256,25,26
 246 229 246 229 262 213 c 0,27,28
 275 200 275 200 275 179 c 128,-1,29
 275 158 275 158 262 145 c 0,30,31
 246 129 246 129 217 129 c 256,18,19
EndSplineSet
EndChar

StartChar: oslash
Encoding: 248 248 186
Width: 500
GlyphClass: 2
Flags: W
FFAnchorPoint: "Anchor-5" 371 0 basechar 0
FFAnchorPoint: "Anchor-4" 465 530 basechar 0
FFAnchorPoint: "Anchor-3" 232 265 basechar 0
FFAnchorPoint: "Anchor-2" 234 275 basechar 0
FFAnchorPoint: "Anchor-1" 185 0 basechar 0
FFAnchorPoint: "Anchor-0" 279 530 basechar 0
LayerCount: 2
Fore
SplineSet
40 -43 m 1,0,-1
 -10 -10 l 1,1,-1
 51 71 l 1,2,3
 46 79 46 79 43 88 c 0,4,5
 18 151 18 151 42 288 c 0,6,7
 62 402 62 402 100 453 c 0,8,9
 131 494 131 494 173 516 c 128,-1,10
 215 538 215 538 270 538 c 0,11,12
 326 538 326 538 365 513 c 0,13,14
 370 510 370 510 375 506 c 1,15,-1
 425 573 l 1,16,-1
 475 540 l 1,17,-1
 414 458 l 1,18,19
 418 451 418 451 422 442 c 0,20,21
 447 379 447 379 423 242 c 0,22,23
 403 127 403 127 364 77 c 0,24,25
 334 37 334 37 291.5 14.5 c 128,-1,26
 249 -8 249 -8 195 -8 c 0,27,28
 139 -8 139 -8 100 17 c 0,29,30
 95 20 95 20 90 24 c 1,31,-1
 40 -43 l 1,0,-1
96 132 m 1,32,-1
 338 457 l 1,33,34
 332 463 332 463 325 467 c 0,35,36
 302 482 302 482 269 482 c 0,37,38
 234 482 234 482 205 467 c 0,39,40
 175 451 175 451 152 421 c 0,41,42
 121 379 121 379 104 280 c 1,43,44
 86 183 86 183 96 132 c 1,32,-1
196 48 m 0,45,46
 231 48 231 48 260 63 c 0,47,48
 290 79 290 79 312 109 c 1,49,50
 344 150 344 150 361 250 c 0,51,52
 378 347 378 347 369 398 c 1,53,-1
 127 73 l 1,54,55
 133 67 133 67 140 63 c 0,56,57
 162 48 162 48 196 48 c 0,45,46
EndSplineSet
EndChar

StartChar: thorn
Encoding: 254 254 192
Width: 500
GlyphClass: 2
Flags: W
FFAnchorPoint: "Anchor-5" 335 -205 basechar 0
FFAnchorPoint: "Anchor-4" 501 735 basechar 0
FFAnchorPoint: "Anchor-3" 232 265 basechar 0
FFAnchorPoint: "Anchor-2" 235 283 basechar 0
FFAnchorPoint: "Anchor-1" 149 -205 basechar 0
FFAnchorPoint: "Anchor-0" 315 735 basechar 0
LayerCount: 2
Fore
SplineSet
-37 -205 m 1,0,-1
 93 530 l 1,1,-1
 129 735 l 1,2,-1
 192 735 l 1,3,-1
 143 457 l 1,4,-1
 145 460 l 1,5,6
 173 498 173 498 213 518 c 1,7,8
 250 538 250 538 296 538 c 0,9,10
 341 538 341 538 371 518 c 1,11,12
 405 497 405 497 422 454 c 0,13,14
 449 389 449 389 423 241 c 0,15,16
 402 125 402 125 363 74 c 1,17,18
 334 34 334 34 293.5 13 c 128,-1,19
 253 -8 253 -8 204 -8 c 0,20,21
 162 -8 162 -8 133 10 c 0,22,23
 101 31 101 31 84 73 c 0,24,25
 81 81 81 81 79 89 c 1,26,-1
 62 0 l 1,27,-1
 26 -205 l 1,28,-1
 -37 -205 l 1,0,-1
197 48 m 0,29,30
 231 48 231 48 260 63 c 0,31,32
 290 79 290 79 312 109 c 1,33,34
 344 150 344 150 361 250 c 1,35,36
 383 371 383 371 363 419 c 0,37,38
 350 451 350 451 325 467 c 0,39,40
 302 482 302 482 269 482 c 256,41,42
 236 482 236 482 210 468 c 0,43,44
 182 453 182 453 160 425 c 0,45,46
 134 390 134 390 123 339 c 1,47,-1
 101 218 l 1,48,49
 93 151 93 151 110 107 c 0,50,51
 123 76 123 76 146 61 c 0,52,53
 166 48 166 48 197 48 c 0,29,30
EndSplineSet
EndChar

StartChar: dcaron
Encoding: 271 271 209
Width: 500
GlyphClass: 2
Flags: W
FFAnchorPoint: "Anchor-5" 371 0 basechar 0
FFAnchorPoint: "Anchor-4" 501 735 basechar 0
FFAnchorPoint: "Anchor-3" 250 367 basechar 0
FFAnchorPoint: "Anchor-2" 253 382 basechar 0
FFAnchorPoint: "Anchor-1" 185 0 basechar 0
FFAnchorPoint: "Anchor-0" 315 735 basechar 0
LayerCount: 2
Fore
SplineSet
511 556 m 1,0,-1
 477 585 l 1,1,2
 514 625 514 625 532 679 c 1,3,4
 519 681 519 681 512 690 c 0,5,6
 503 701 503 701 506.5 720.5 c 128,-1,7
 510 740 510 740 523.5 751.5 c 128,-1,8
 537 763 537 763 556 763 c 0,9,10
 576 763 576 763 585.5 751.5 c 128,-1,11
 595 740 595 740 591 718 c 0,12,13
 573 620 573 620 511 556 c 1,0,-1
156 -8 m 0,14,15
 117 -8 117 -8 90 9 c 0,16,17
 58 30 58 30 42 71 c 0,18,19
 15 137 15 137 42 287 c 0,20,21
 63 408 63 408 103 461 c 0,22,23
 132 500 132 500 170 519 c 0,24,25
 206 538 206 538 248 538 c 0,26,27
 286 538 286 538 310 522 c 0,28,29
 340 503 340 503 356 463 c 0,30,31
 359 455 359 455 362 445 c 1,32,-1
 413 735 l 1,33,-1
 476 735 l 1,34,-1
 347 0 l 1,35,-1
 284 0 l 1,36,-1
 296 70 l 2,37,38
 295 67 295 67 293 65 c 0,39,40
 265 28 265 28 229 9 c 0,41,42
 196 -8 196 -8 156 -8 c 0,14,15
183 48 m 0,43,44
 210 48 210 48 232 60 c 0,45,46
 257 73 257 73 278 100 c 0,47,48
 307 138 307 138 319 197 c 1,49,-1
 338 309 l 1,50,51
 349 384 349 384 330 429 c 1,52,53
 319 458 319 458 298 471 c 0,54,55
 281 482 281 482 256 482 c 0,56,57
 227 482 227 482 203 469 c 0,58,59
 176 455 176 455 154 427 c 0,60,61
 122 384 122 384 103 279 c 1,62,63
 82 154 82 154 101 105 c 0,64,65
 113 75 113 75 136 60 c 0,66,67
 155 48 155 48 183 48 c 0,43,44
EndSplineSet
EndChar

StartChar: dcroat
Encoding: 273 273 211
Width: 500
GlyphClass: 2
Flags: W
FFAnchorPoint: "Anchor-5" 371 0 basechar 0
FFAnchorPoint: "Anchor-4" 501 735 basechar 0
FFAnchorPoint: "Anchor-3" 250 367 basechar 0
FFAnchorPoint: "Anchor-2" 253 382 basechar 0
FFAnchorPoint: "Anchor-1" 185 0 basechar 0
FFAnchorPoint: "Anchor-0" 315 735 basechar 0
LayerCount: 2
Fore
SplineSet
169 -8 m 0,0,1
 124 -8 124 -8 93 12 c 0,2,3
 60 33 60 33 42 76 c 0,4,5
 16 142 16 142 42 289 c 0,6,7
 62 404 62 404 101 456 c 0,8,9
 131 496 131 496 171 517 c 0,10,11
 212 538 212 538 261 538 c 0,12,13
 303 538 303 538 331 520 c 0,14,15
 364 499 364 499 380 457 c 0,16,17
 383 449 383 449 386 440 c 1,18,-1
 413 594 l 1,19,-1
 290 594 l 1,20,-1
 300 650 l 1,21,-1
 423 650 l 1,22,-1
 438 735 l 1,23,-1
 501 735 l 1,24,-1
 486 650 l 1,25,-1
 531 650 l 1,26,-1
 521 594 l 1,27,-1
 476 594 l 1,28,-1
 372 0 l 1,29,-1
 309 0 l 1,30,-1
 322 73 l 1,31,-1
 320 70 l 1,32,33
 291 32 291 32 252 12 c 0,34,35
 215 -8 215 -8 169 -8 c 0,0,1
195 48 m 256,36,37
 228 48 228 48 255 62 c 0,38,39
 283 77 283 77 305 105 c 1,40,41
 334 145 334 145 344 203 c 2,42,-1
 360 293 l 2,43,44
 375 373 375 373 355 423 c 0,45,46
 342 454 342 454 319 469 c 0,47,48
 298 482 298 482 268 482 c 0,49,50
 234 482 234 482 205 467 c 0,51,52
 175 451 175 451 152 421 c 0,53,54
 121 379 121 379 104 280 c 0,55,56
 82 159 82 159 102 111 c 1,57,58
 114 79 114 79 140 63 c 1,59,60
 162 48 162 48 195 48 c 256,36,37
EndSplineSet
EndChar

StartChar: Hbar
Encoding: 294 294 232
Width: 500
GlyphClass: 2
Flags: W
FFAnchorPoint: "Anchor-5" 371 0 basechar 0
FFAnchorPoint: "Anchor-4" 501 735 basechar 0
FFAnchorPoint: "Anchor-3" 250 367 basechar 0
FFAnchorPoint: "Anchor-2" 253 382 basechar 0
FFAnchorPoint: "Anchor-1" 185 0 basechar 0
FFAnchorPoint: "Anchor-0" 315 735 basechar 0
LayerCount: 2
Fore
SplineSet
0 0 m 1,0,-1
 89 505 l 1,1,-1
 49 505 l 1,2,-1
 49 561 l 1,3,-1
 98 561 l 1,4,-1
 129 735 l 1,5,-1
 192 735 l 1,6,-1
 161 561 l 1,7,-1
 407 561 l 1,8,-1
 438 735 l 1,9,-1
 501 735 l 1,10,-1
 470 561 l 1,11,-1
 510 561 l 1,12,-1
 510 505 l 1,13,-1
 461 505 l 1,14,-1
 372 0 l 1,15,-1
 309 0 l 1,16,-1
 372 358 l 1,17,-1
 126 358 l 1,18,-1
 63 0 l 1,19,-1
 0 0 l 1,0,-1
136 414 m 1,20,-1
 382 414 l 1,21,-1
 398 505 l 1,22,-1
 152 505 l 1,23,-1
 136 414 l 1,20,-1
EndSplineSet
EndChar

StartChar: hbar
Encoding: 295 295 233
Width: 500
GlyphClass: 2
Flags: W
FFAnchorPoint: "Anchor-5" 371 0 basechar 0
FFAnchorPoint: "Anchor-4" 501 735 basechar 0
FFAnchorPoint: "Anchor-3" 250 367 basechar 0
FFAnchorPoint: "Anchor-2" 253 382 basechar 0
FFAnchorPoint: "Anchor-1" 185 0 basechar 0
FFAnchorPoint: "Anchor-0" 315 735 basechar 0
LayerCount: 2
Fore
SplineSet
0 0 m 1,0,-1
 104 594 l 1,1,-1
 65 594 l 1,2,-1
 65 650 l 1,3,-1
 114 650 l 1,4,-1
 129 735 l 1,5,-1
 192 735 l 1,6,-1
 177 650 l 1,7,-1
 295 650 l 1,8,-1
 295 594 l 1,9,-1
 167 594 l 1,10,-1
 144 460 l 1,11,12
 172 498 172 498 211 518 c 128,-1,13
 250 538 250 538 295 538 c 0,14,15
 337 538 337 538 366 520 c 0,16,17
 398 499 398 499 415 457 c 0,18,19
 441 392 441 392 423 289 c 2,20,-1
 372 0 l 1,21,-1
 309 0 l 1,22,-1
 361 299 l 2,23,24
 375 374 375 374 356 423 c 0,25,26
 343 454 343 454 320 469 c 0,27,28
 299 482 299 482 269 482 c 0,29,30
 236 482 236 482 209 468 c 0,31,32
 181 453 181 453 159 425 c 0,33,34
 133 390 133 390 122 339 c 1,35,-1
 121 330 l 1,36,-1
 121 329 l 1,37,-1
 63 0 l 1,38,-1
 0 0 l 1,0,-1
EndSplineSet
EndChar

StartChar: dotlessi
Encoding: 305 305 243
Width: 500
GlyphClass: 2
Flags: W
FFAnchorPoint: "Anchor-5" 371 0 basechar 0
FFAnchorPoint: "Anchor-4" 465 530 basechar 0
FFAnchorPoint: "Anchor-3" 232 265 basechar 0
FFAnchorPoint: "Anchor-2" 234 275 basechar 0
FFAnchorPoint: "Anchor-1" 283 0 basechar 0
FFAnchorPoint: "Anchor-0" 268 530 basechar 0
LayerCount: 2
Fore
SplineSet
295 -8 m 0,0,1
 248 -8 248 -8 216.5 12 c 128,-1,2
 185 32 185 32 171 70 c 1,3,4
 151 120 151 120 164 193 c 2,5,-1
 213 474 l 1,6,-1
 80 474 l 1,7,-1
 80 530 l 1,8,-1
 286 530 l 1,9,-1
 225 183 l 2,10,11
 215 128 215 128 229 92 c 1,12,13
 239 70 239 70 256 58 c 1,14,15
 272 48 272 48 295 48 c 0,16,17
 315 48 315 48 331 57 c 1,18,19
 352 67 352 67 369 89.5 c 128,-1,20
 386 112 386 112 396 141 c 1,21,-1
 452 117 l 1,22,23
 439 85 439 85 420 60 c 0,24,25
 394 25 394 25 361 8 c 0,26,27
 330 -8 330 -8 295 -8 c 0,0,1
EndSplineSet
Substitution2: "'ss11' Style Set 11 lookup 109 subtable" dotlessi.ss11
Substitution2: "'ss08' Style Set 8 lookup 108 subtable" dotlessi.ss08
Substitution2: "'ss07' Style Set 7 lookup 107 subtable" dotlessi.ss07
Substitution2: "'ss10' Style Set 10 lookup 106 subtable" dotlessi.ss10
EndChar

StartChar: IJ
Encoding: 306 306 244
Width: 500
GlyphClass: 2
Flags: W
FFAnchorPoint: "Anchor-5" 371 0 basechar 0
FFAnchorPoint: "Anchor-4" 501 735 basechar 0
FFAnchorPoint: "Anchor-3" 250 367 basechar 0
FFAnchorPoint: "Anchor-2" 253 382 basechar 0
FFAnchorPoint: "Anchor-1" 185 0 basechar 0
FFAnchorPoint: "Anchor-0" 315 735 basechar 0
LayerCount: 2
Fore
SplineSet
131 -8 m 1,0,-1
 141 48 l 1,1,2
 223 48 223 48 263 69 c 0,3,4
 291 84 291 84 309 109 c 1,5,6
 333 140 333 140 345 207 c 2,7,-1
 438 735 l 1,8,-1
 501 735 l 1,9,-1
 406 197 l 2,10,11
 392 113 392 113 361 72 c 0,12,13
 336 39 336 39 300 20 c 0,14,15
 246 -8 246 -8 131 -8 c 1,0,-1
0 0 m 1,16,-1
 129 735 l 1,17,-1
 192 735 l 1,18,-1
 63 0 l 1,19,-1
 0 0 l 1,16,-1
EndSplineSet
EndChar

StartChar: ij
Encoding: 307 307 245
Width: 500
GlyphClass: 2
Flags: W
FFAnchorPoint: "Anchor-5" 335 -205 basechar 0
FFAnchorPoint: "Anchor-4" 501 735 basechar 0
FFAnchorPoint: "Anchor-3" 232 265 basechar 0
FFAnchorPoint: "Anchor-2" 235 283 basechar 0
FFAnchorPoint: "Anchor-1" 149 -205 basechar 0
FFAnchorPoint: "Anchor-0" 315 735 basechar 0
LayerCount: 2
Fore
SplineSet
184 635 m 256,0,1
 161 635 161 635 147 649 c 0,2,3
 134 662 134 662 134 685 c 128,-1,4
 134 708 134 708 147 721 c 0,5,6
 161 735 161 735 184 735 c 256,7,8
 207 735 207 735 220.5 721.5 c 128,-1,9
 234 708 234 708 234 685 c 128,-1,10
 234 662 234 662 220.5 648.5 c 128,-1,11
 207 635 207 635 184 635 c 256,0,1
429 635 m 256,12,13
 406 635 406 635 392 649 c 0,14,15
 379 662 379 662 379 685 c 128,-1,16
 379 708 379 708 392 721 c 0,17,18
 406 735 406 735 429 735 c 256,19,20
 452 735 452 735 465 721 c 1,21,22
 479 708 479 708 479 685 c 128,-1,23
 479 662 479 662 465 649 c 1,24,25
 452 635 452 635 429 635 c 256,12,13
149 -213 m 0,26,27
 94 -213 94 -213 59 -190 c 0,28,29
 27 -170 27 -170 12 -133 c 0,30,31
 3 -110 3 -110 2 -85 c 1,32,-1
 61 -68 l 1,33,34
 61 -88 61 -88 68 -107 c 0,35,36
 78 -131 78 -131 98 -144 c 0,37,38
 119 -157 119 -157 149 -157 c 0,39,40
 175 -157 175 -157 196 -146 c 0,41,42
 219 -134 219 -134 237 -110 c 0,43,44
 263 -75 263 -75 273 -21 c 2,45,-1
 370 530 l 1,46,-1
 433 530 l 1,47,-1
 334 -31 l 2,48,49
 323 -97 323 -97 289 -142 c 0,50,51
 263 -176 263 -176 227.5 -194.5 c 128,-1,52
 192 -213 192 -213 149 -213 c 0,26,27
32 0 m 1,53,-1
 125 530 l 1,54,-1
 188 530 l 1,55,-1
 95 0 l 1,56,-1
 32 0 l 1,53,-1
EndSplineSet
EndChar

StartChar: kgreenlandic
Encoding: 312 312 250
Width: 500
GlyphClass: 2
Flags: W
FFAnchorPoint: "Anchor-5" 371 0 basechar 0
FFAnchorPoint: "Anchor-4" 465 530 basechar 0
FFAnchorPoint: "Anchor-3" 232 265 basechar 0
FFAnchorPoint: "Anchor-2" 234 275 basechar 0
FFAnchorPoint: "Anchor-1" 185 0 basechar 0
FFAnchorPoint: "Anchor-0" 279 530 basechar 0
LayerCount: 2
Fore
SplineSet
0 0 m 1,0,-1
 93 530 l 1,1,-1
 156 530 l 1,2,-1
 112 280 l 1,3,4
 316 410 316 410 381 496 c 0,5,6
 396 516 396 516 399 530 c 1,7,-1
 465 530 l 1,8,9
 462 512 462 512 441 484 c 0,10,11
 390 416 390 416 275 328 c 1,12,13
 312 252 312 252 336 191 c 0,14,15
 390 57 390 57 380 0 c 1,16,-1
 317 0 l 1,17,18
 326 52 326 52 277 174 c 0,19,20
 256 227 256 227 225 290 c 1,21,22
 168 249 168 249 99 204 c 1,23,-1
 63 0 l 1,24,-1
 0 0 l 1,0,-1
EndSplineSet
EndChar

StartChar: Ldot
Encoding: 319 319 257
Width: 500
GlyphClass: 2
Flags: W
FFAnchorPoint: "Anchor-5" 371 0 basechar 0
FFAnchorPoint: "Anchor-4" 501 735 basechar 0
FFAnchorPoint: "Anchor-3" 250 367 basechar 0
FFAnchorPoint: "Anchor-2" 253 382 basechar 0
FFAnchorPoint: "Anchor-1" 185 0 basechar 0
FFAnchorPoint: "Anchor-0" 315 735 basechar 0
LayerCount: 2
Fore
SplineSet
32 0 m 1,0,-1
 161 735 l 1,1,-1
 224 735 l 1,2,-1
 105 56 l 1,3,-1
 390 56 l 1,4,-1
 380 0 l 1,5,-1
 32 0 l 1,0,-1
302 346 m 0,6,7
 280 346 280 346 268.5 359.5 c 128,-1,8
 257 373 257 373 261 396 c 128,-1,9
 265 419 265 419 281 432.5 c 128,-1,10
 297 446 297 446 320 446 c 256,11,12
 343 446 343 446 354 432 c 128,-1,13
 365 418 365 418 361 395.5 c 128,-1,14
 357 373 357 373 341 359.5 c 128,-1,15
 325 346 325 346 302 346 c 0,6,7
EndSplineSet
EndChar

StartChar: ldot
Encoding: 320 320 258
Width: 500
GlyphClass: 2
Flags: W
FFAnchorPoint: "Anchor-5" 371 0 basechar 0
FFAnchorPoint: "Anchor-4" 501 735 basechar 0
FFAnchorPoint: "Anchor-3" 250 367 basechar 0
FFAnchorPoint: "Anchor-2" 206 382 basechar 0
FFAnchorPoint: "Anchor-1" 271 0 basechar 0
FFAnchorPoint: "Anchor-0" 268 735 basechar 0
LayerCount: 2
Fore
SplineSet
260 -8 m 0,0,1
 211 -8 211 -8 179 13 c 0,2,3
 146 34 146 34 130 74 c 0,4,5
 109 126 109 126 122 205 c 2,6,-1
 206 679 l 1,7,-1
 104 679 l 1,8,-1
 104 735 l 1,9,-1
 279 735 l 1,10,-1
 184 195 l 2,11,12
 173 136 173 136 188 96 c 1,13,14
 199 71 199 71 218 59 c 0,15,16
 235 48 235 48 260 48 c 0,17,18
 282 48 282 48 300 58 c 0,19,20
 322 69 322 69 341.5 94.5 c 128,-1,21
 361 120 361 120 373 155 c 1,22,-1
 430 132 l 1,23,24
 415 94 415 94 393 64 c 0,25,26
 365 27 365 27 330 9 c 0,27,28
 298 -8 298 -8 260 -8 c 0,0,1
383 346 m 256,29,30
 360 346 360 346 348 359 c 1,31,32
 338 373 338 373 341 396 c 1,33,34
 346 419 346 419 361 432 c 0,35,36
 377 446 377 446 400 446 c 256,37,38
 423 446 423 446 434.5 432 c 128,-1,39
 446 418 446 418 441 396 c 1,40,41
 438 373 438 373 421 359 c 0,42,43
 406 346 406 346 383 346 c 256,29,30
EndSplineSet
EndChar

StartChar: Eng
Encoding: 330 330 268
Width: 500
GlyphClass: 2
Flags: W
FFAnchorPoint: "Anchor-5" 371 0 basechar 0
FFAnchorPoint: "Anchor-4" 501 735 basechar 0
FFAnchorPoint: "Anchor-3" 250 367 basechar 0
FFAnchorPoint: "Anchor-2" 253 382 basechar 0
FFAnchorPoint: "Anchor-1" 185 0 basechar 0
FFAnchorPoint: "Anchor-0" 315 735 basechar 0
LayerCount: 2
Fore
SplineSet
186 -8 m 1,0,-1
 186 48 l 1,1,2
 229 48 229 48 263 66 c 0,3,4
 291 81 291 81 311 106 c 1,5,6
 332 135 332 135 340 175 c 2,7,-1
 402 529 l 2,8,9
 412 588 412 588 396 627 c 0,10,11
 385 656 385 656 360 672 c 0,12,13
 337 687 337 687 301 687 c 0,14,15
 262 687 262 687 231 671 c 0,16,17
 202 656 202 656 184 631 c 0,18,19
 176 620 176 620 170 608 c 1,20,-1
 63 0 l 1,21,-1
 0 0 l 1,22,-1
 129 735 l 1,23,-1
 192 735 l 1,24,-1
 183 683 l 1,25,26
 205 706 205 706 233 721 c 0,27,28
 276 743 276 743 328 743 c 0,29,30
 375 743 375 743 406 723 c 0,31,32
 439 702 439 702 456 661 c 1,33,34
 478 604 478 604 463 519 c 2,35,-1
 402 175 l 1,36,37
 393 117 393 117 361 75 c 0,38,39
 332 38 332 38 292 17 c 0,40,41
 245 -8 245 -8 186 -8 c 1,0,-1
EndSplineSet
EndChar

StartChar: eng
Encoding: 331 331 269
Width: 500
GlyphClass: 2
Flags: W
FFAnchorPoint: "Anchor-5" 335 -205 basechar 0
FFAnchorPoint: "Anchor-4" 465 530 basechar 0
FFAnchorPoint: "Anchor-3" 214 162 basechar 0
FFAnchorPoint: "Anchor-2" 216 177 basechar 0
FFAnchorPoint: "Anchor-1" 149 -205 basechar 0
FFAnchorPoint: "Anchor-0" 279 530 basechar 0
LayerCount: 2
Fore
SplineSet
143 -183 m 1,0,-1
 143 -127 l 1,1,2
 193 -127 193 -127 231 -107 c 0,3,4
 262 -91 262 -91 281 -65 c 0,5,6
 302 -38 302 -38 309 0 c 2,7,-1
 361 299 l 2,8,9
 375 374 375 374 356 423 c 0,10,11
 343 454 343 454 320 469 c 0,12,13
 299 482 299 482 269 482 c 0,14,15
 236 482 236 482 209 468 c 0,16,17
 181 453 181 453 159 425 c 0,18,19
 133 390 133 390 122 338 c 1,20,-1
 121 331 l 1,21,-1
 121 329 l 1,22,-1
 63 0 l 1,23,-1
 0 0 l 1,24,-1
 93 530 l 1,25,-1
 156 530 l 1,26,-1
 144 460 l 1,27,28
 172 498 172 498 211 518 c 128,-1,29
 250 538 250 538 295 538 c 0,30,31
 337 538 337 538 366 520 c 0,32,33
 398 499 398 499 415 457 c 0,34,35
 441 392 441 392 423 289 c 2,36,-1
 372 0 l 2,37,38
 362 -56 362 -56 331 -97 c 0,39,40
 303 -134 303 -134 260 -156 c 0,41,42
 209 -183 209 -183 143 -183 c 1,0,-1
EndSplineSet
EndChar

StartChar: OE
Encoding: 338 338 276
Width: 500
GlyphClass: 2
Flags: W
FFAnchorPoint: "Anchor-5" 371 0 basechar 0
FFAnchorPoint: "Anchor-4" 501 735 basechar 0
FFAnchorPoint: "Anchor-3" 250 367 basechar 0
FFAnchorPoint: "Anchor-2" 253 382 basechar 0
FFAnchorPoint: "Anchor-1" 185 0 basechar 0
FFAnchorPoint: "Anchor-0" 315 735 basechar 0
LayerCount: 2
Fore
SplineSet
372 0 m 1,0,-1
 186 0 l 2,1,2
 132 0 132 0 96 23 c 0,3,4
 62 45 62 45 45 87 c 0,5,6
 24 140 24 140 38 216 c 2,7,-1
 99 561 l 2,8,9
 108 614 108 614 137 653 c 0,10,11
 164 689 164 689 204 710 c 0,12,13
 253 735 253 735 315 735 c 2,14,-1
 501 735 l 1,15,-1
 491 679 l 1,16,-1
 368 679 l 1,17,-1
 324 425 l 1,18,-1
 433 425 l 1,19,-1
 423 369 l 1,20,-1
 314 369 l 1,21,-1
 259 56 l 1,22,-1
 382 56 l 1,23,-1
 372 0 l 1,0,-1
196 56 m 1,24,-1
 315 735 l 1,25,-1
 305 679 l 1,26,27
 267 679 267 679 236 663 c 0,28,29
 209 648 209 648 190 623 c 0,30,31
 167 594 167 594 160 551 c 2,32,-1
 99 206 l 2,33,34
 89 151 89 151 104 114 c 0,35,36
 116 86 116 86 138 71 c 1,37,38
 162 56 162 56 196 56 c 1,24,-1
EndSplineSet
EndChar

StartChar: oe
Encoding: 339 339 277
Width: 500
GlyphClass: 2
Flags: W
FFAnchorPoint: "Anchor-5" 371 0 basechar 0
FFAnchorPoint: "Anchor-4" 465 530 basechar 0
FFAnchorPoint: "Anchor-3" 232 265 basechar 0
FFAnchorPoint: "Anchor-2" 234 275 basechar 0
FFAnchorPoint: "Anchor-1" 185 0 basechar 0
FFAnchorPoint: "Anchor-0" 279 530 basechar 0
LayerCount: 2
Fore
SplineSet
109 -8 m 0,0,1
 74 -8 74 -8 50 7.5 c 128,-1,2
 26 23 26 23 14 52 c 1,3,4
 0 90 0 90 9 145 c 2,5,-1
 56 411 l 2,6,7
 64 457 64 457 88 489 c 0,8,9
 106 513 106 513 131 525 c 1,10,11
 154 538 154 538 185 538 c 0,12,13
 220 538 220 538 244 523 c 1,14,15
 258 513 258 513 268 500 c 1,16,17
 283 516 283 516 301 525 c 0,18,19
 326 538 326 538 357 538 c 0,20,21
 391 538 391 538 415 522.5 c 128,-1,22
 439 507 439 507 450 479 c 0,23,24
 465 442 465 442 456 385 c 1,25,-1
 429 237 l 1,26,-1
 259 237 l 1,27,-1
 241 135 l 2,28,29
 235 101 235 101 244 79 c 0,30,31
 250 63 250 63 263 55 c 0,32,33
 274 48 274 48 291 48 c 0,34,35
 307 48 307 48 320 55 c 0,36,37
 335 63 335 63 347 79 c 0,38,39
 363 100 363 100 370 128 c 1,40,-1
 431 117 l 1,41,42
 420 80 420 80 399 51.5 c 128,-1,43
 378 23 378 23 348 7.5 c 128,-1,44
 318 -8 318 -8 282 -8 c 0,45,46
 245 -8 245 -8 221 8 c 0,47,48
 207 17 207 17 197 30 c 1,49,50
 182 14 182 14 164 5 c 0,51,52
 140 -8 140 -8 109 -8 c 0,0,1
110 48 m 0,53,54
 128 48 128 48 143 61 c 0,55,56
 169 82 169 82 177 129 c 2,57,-1
 224 395 l 2,58,59
 233 446 233 446 214 469 c 0,60,61
 203 482 203 482 184 482 c 0,62,63
 166 482 166 482 151 469 c 0,64,65
 126 448 126 448 117 401 c 2,66,-1
 70 135 l 2,67,68
 62 84 62 84 81 61 c 0,69,70
 91 48 91 48 110 48 c 0,53,54
269 293 m 1,71,-1
 376 293 l 1,72,-1
 394 395 l 2,73,74
 404 447 404 447 384 469 c 1,75,76
 374 482 374 482 356 482 c 0,77,78
 337 482 337 482 322 469 c 0,79,80
 296 447 296 447 288 401 c 2,81,-1
 269 293 l 1,71,-1
EndSplineSet
EndChar

StartChar: Tbar
Encoding: 358 358 296
Width: 500
GlyphClass: 2
Flags: W
FFAnchorPoint: "Anchor-5" 217 0 basechar 0
FFAnchorPoint: "Anchor-4" 501 735 basechar 0
FFAnchorPoint: "Anchor-3" 250 367 basechar 0
FFAnchorPoint: "Anchor-2" 253 382 basechar 0
FFAnchorPoint: "Anchor-1" 185 0 basechar 0
FFAnchorPoint: "Anchor-0" 315 735 basechar 0
LayerCount: 2
Fore
SplineSet
154 0 m 1,0,-1
 208 303 l 1,1,-1
 95 303 l 1,2,-1
 95 359 l 1,3,-1
 217 359 l 1,4,-1
 274 679 l 1,5,-1
 119 679 l 1,6,-1
 129 735 l 1,7,-1
 501 735 l 1,8,-1
 491 679 l 1,9,-1
 337 679 l 1,10,-1
 280 359 l 1,11,-1
 393 359 l 1,12,-1
 393 303 l 1,13,-1
 271 303 l 1,14,-1
 217 0 l 1,15,-1
 154 0 l 1,0,-1
EndSplineSet
EndChar

StartChar: tbar
Encoding: 359 359 297
Width: 500
GlyphClass: 2
Flags: W
FFAnchorPoint: "Anchor-5" 463 131 basechar 0
FFAnchorPoint: "Anchor-4" 501 735 basechar 0
FFAnchorPoint: "Anchor-3" 250 367 basechar 0
FFAnchorPoint: "Anchor-2" 253 382 basechar 0
FFAnchorPoint: "Anchor-1" 244 0 basechar 0
FFAnchorPoint: "Anchor-0" 315 735 basechar 0
LayerCount: 2
Fore
SplineSet
286 -8 m 0,0,1
 233 -8 233 -8 197 15 c 0,2,3
 163 37 163 37 147 77 c 0,4,5
 127 128 127 128 140 202 c 2,6,-1
 156 290 l 1,7,-1
 71 290 l 1,8,-1
 71 346 l 1,9,-1
 165 346 l 1,10,-1
 188 474 l 1,11,-1
 76 474 l 1,12,-1
 76 530 l 1,13,-1
 198 530 l 1,14,-1
 234 735 l 1,15,-1
 297 735 l 1,16,-1
 261 530 l 1,17,-1
 426 530 l 1,18,-1
 426 474 l 1,19,-1
 251 474 l 1,20,-1
 228 346 l 1,21,-1
 331 346 l 1,22,-1
 331 290 l 1,23,-1
 218 290 l 1,24,-1
 201 192 l 2,25,26
 191 136 191 136 206 100 c 0,27,28
 216 74 216 74 237 61 c 0,29,30
 257 48 257 48 286 48 c 0,31,32
 311 48 311 48 332 59 c 0,33,34
 356 72 356 72 377 98 c 1,35,36
 394 122 394 122 406 153 c 1,37,-1
 463 132 l 1,38,39
 450 97 450 97 428 67 c 0,40,41
 399 29 399 29 362 10 c 0,42,43
 328 -8 328 -8 286 -8 c 0,0,1
EndSplineSet
EndChar

StartChar: longs
Encoding: 383 383 321
Width: 500
GlyphClass: 2
Flags: W
FFAnchorPoint: "Anchor-5" 335 -205 basechar 0
FFAnchorPoint: "Anchor-4" 501 735 basechar 0
FFAnchorPoint: "Anchor-3" 232 265 basechar 0
FFAnchorPoint: "Anchor-2" 235 283 basechar 0
FFAnchorPoint: "Anchor-1" 149 -205 basechar 0
FFAnchorPoint: "Anchor-0" 315 735 basechar 0
LayerCount: 2
Fore
SplineSet
-14 -195 m 1,0,-1
 -14 -139 l 1,1,2
 49 -139 49 -139 81 -122 c 0,3,4
 105 -110 105 -110 122 -88 c 0,5,6
 144 -58 144 -58 155 5 c 2,7,-1
 257 585 l 2,8,9
 272 667 272 667 301 705 c 0,10,11
 323 735 323 735 355 752 c 0,12,13
 400 775 400 775 487 775 c 1,14,-1
 487 719 l 1,15,16
 425 719 425 719 392 702 c 0,17,18
 368 689 368 689 352 668 c 0,19,20
 329 638 329 638 319 575 c 1,21,-1
 216 -5 l 2,22,23
 202 -86 202 -86 173 -125 c 0,24,25
 150 -155 150 -155 118 -172 c 0,26,27
 74 -195 74 -195 -14 -195 c 1,0,-1
EndSplineSet
EndChar

StartChar: uni0180
Encoding: 384 384 322
Width: 500
GlyphClass: 2
Flags: W
FFAnchorPoint: "Anchor-5" 371 0 basechar 0
FFAnchorPoint: "Anchor-4" 501 735 basechar 0
FFAnchorPoint: "Anchor-3" 250 367 basechar 0
FFAnchorPoint: "Anchor-2" 253 382 basechar 0
FFAnchorPoint: "Anchor-1" 185 0 basechar 0
FFAnchorPoint: "Anchor-0" 315 735 basechar 0
LayerCount: 2
Fore
SplineSet
204 -8 m 0,0,1
 162 -8 162 -8 133 10 c 0,2,3
 101 31 101 31 84 73 c 0,4,5
 81 81 81 81 79 89 c 1,6,-1
 63 0 l 1,7,-1
 0 0 l 1,8,-1
 104 594 l 1,9,-1
 65 594 l 1,10,-1
 65 650 l 1,11,-1
 114 650 l 1,12,-1
 129 735 l 1,13,-1
 192 735 l 1,14,-1
 177 650 l 1,15,-1
 295 650 l 1,16,-1
 295 594 l 1,17,-1
 167 594 l 1,18,-1
 143 457 l 1,19,-1
 145 460 l 1,20,21
 173 498 173 498 213 518 c 1,22,23
 250 538 250 538 296 538 c 0,24,25
 341 538 341 538 371 518 c 1,26,27
 405 497 405 497 422 454 c 0,28,29
 449 389 449 389 423 241 c 0,30,31
 402 125 402 125 363 74 c 1,32,33
 334 34 334 34 293.5 13 c 128,-1,34
 253 -8 253 -8 204 -8 c 0,0,1
197 48 m 0,35,36
 231 48 231 48 260 63 c 0,37,38
 290 79 290 79 312 109 c 1,39,40
 344 150 344 150 361 250 c 1,41,42
 383 371 383 371 363 419 c 0,43,44
 350 451 350 451 325 467 c 0,45,46
 302 482 302 482 269 482 c 256,47,48
 236 482 236 482 210 468 c 0,49,50
 182 453 182 453 160 425 c 0,51,52
 134 390 134 390 123 339 c 1,53,-1
 101 218 l 1,54,55
 93 151 93 151 110 107 c 0,56,57
 123 76 123 76 146 61 c 0,58,59
 166 48 166 48 197 48 c 0,35,36
EndSplineSet
EndChar

StartChar: uni0181
Encoding: 385 385 323
Width: 500
GlyphClass: 2
Flags: W
FFAnchorPoint: "Anchor-5" 371 0 basechar 0
FFAnchorPoint: "Anchor-4" 501 735 basechar 0
FFAnchorPoint: "Anchor-3" 250 367 basechar 0
FFAnchorPoint: "Anchor-2" 253 382 basechar 0
FFAnchorPoint: "Anchor-1" 185 0 basechar 0
FFAnchorPoint: "Anchor-0" 315 735 basechar 0
LayerCount: 2
Fore
SplineSet
0 0 m 1,0,-1
 118 674 l 1,1,2
 94 654 94 654 78 565 c 1,3,-1
 15 565 l 1,4,5
 30 650 30 650 65 697 c 1,6,7
 82 718 82 718 99 728 c 1,8,9
 114 735 114 735 129 735 c 2,10,-1
 286 735 l 2,11,12
 343 735 343 735 381 711 c 0,13,14
 416 688 416 688 433 647 c 0,15,16
 453 597 453 597 441 528 c 0,17,18
 432 476 432 476 406 443 c 1,19,20
 382 410 382 410 345 391 c 0,21,22
 333 385 333 385 320 380 c 1,23,24
 334 374 334 374 347 366 c 0,25,26
 387 340 387 340 404 297 c 0,27,28
 424 249 424 249 412 185 c 0,29,30
 402 128 402 128 372 88 c 0,31,32
 344 50 344 50 301 28 c 0,33,34
 248 0 248 0 180 0 c 2,35,-1
 0 0 l 1,0,-1
245 410 m 2,36,37
 278 410 278 410 306 425 c 0,38,39
 331 438 331 438 349 462 c 0,40,41
 371 492 371 492 379 536 c 0,42,43
 388 587 388 587 374 624 c 0,44,45
 363 651 363 651 341 665 c 128,-1,46
 319 679 319 679 286 679 c 2,47,-1
 182 679 l 1,48,-1
 135 410 l 1,49,-1
 245 410 l 2,36,37
73 56 m 1,50,-1
 180 56 l 2,51,52
 229 56 229 56 268 76 c 0,53,54
 299 93 299 93 321 121 c 1,55,56
 343 151 343 151 351 195 c 0,57,58
 360 247 360 247 345 284 c 0,59,60
 332 317 332 317 304 334 c 1,61,62
 274 354 274 354 227 354 c 2,63,-1
 125 354 l 1,64,-1
 73 56 l 1,50,-1
EndSplineSet
EndChar

StartChar: uni0182
Encoding: 386 386 324
Width: 500
GlyphClass: 2
Flags: W
FFAnchorPoint: "Anchor-5" 371 0 basechar 0
FFAnchorPoint: "Anchor-4" 501 735 basechar 0
FFAnchorPoint: "Anchor-3" 250 367 basechar 0
FFAnchorPoint: "Anchor-2" 253 382 basechar 0
FFAnchorPoint: "Anchor-1" 185 0 basechar 0
FFAnchorPoint: "Anchor-0" 315 735 basechar 0
LayerCount: 2
Fore
SplineSet
0 0 m 1,0,-1
 119 679 l 1,1,-1
 129 735 l 1,2,-1
 464 735 l 1,3,-1
 454 679 l 1,4,-1
 182 679 l 1,5,-1
 139 432 l 1,6,-1
 242 432 l 2,7,8
 305 432 305 432 347 406 c 1,9,10
 387 380 387 380 405 333 c 0,11,12
 428 276 428 276 414 195 c 0,13,14
 403 130 403 130 369 86 c 0,15,16
 340 47 340 47 297 25 c 0,17,18
 250 0 250 0 189 0 c 2,19,-1
 0 0 l 1,0,-1
73 56 m 1,20,-1
 189 56 l 2,21,22
 231 56 231 56 265 74 c 0,23,24
 296 90 296 90 318 119 c 0,25,26
 344 154 344 154 353 204 c 0,27,28
 364 268 364 268 346 310 c 1,29,30
 334 342 334 342 307.5 359 c 128,-1,31
 281 376 281 376 242 376 c 2,32,-1
 129 376 l 1,33,-1
 73 56 l 1,20,-1
EndSplineSet
EndChar

StartChar: uni0183
Encoding: 387 387 325
Width: 500
GlyphClass: 2
Flags: W
FFAnchorPoint: "Anchor-5" 371 0 basechar 0
FFAnchorPoint: "Anchor-4" 501 735 basechar 0
FFAnchorPoint: "Anchor-3" 250 367 basechar 0
FFAnchorPoint: "Anchor-2" 253 382 basechar 0
FFAnchorPoint: "Anchor-1" 185 0 basechar 0
FFAnchorPoint: "Anchor-0" 315 735 basechar 0
LayerCount: 2
Fore
SplineSet
204 -8 m 0,0,1
 162 -8 162 -8 133 10 c 0,2,3
 101 31 101 31 84 73 c 0,4,5
 81 81 81 81 79 89 c 1,6,-1
 63 0 l 1,7,-1
 0 0 l 1,8,-1
 129 735 l 1,9,-1
 464 735 l 1,10,-1
 454 679 l 1,11,-1
 182 679 l 1,12,-1
 143 457 l 1,13,-1
 145 460 l 1,14,15
 173 498 173 498 213 518 c 1,16,17
 250 538 250 538 296 538 c 0,18,19
 341 538 341 538 371 518 c 1,20,21
 405 497 405 497 422 454 c 0,22,23
 449 389 449 389 423 241 c 0,24,25
 402 125 402 125 363 74 c 1,26,27
 334 34 334 34 293.5 13 c 128,-1,28
 253 -8 253 -8 204 -8 c 0,0,1
197 48 m 0,29,30
 231 48 231 48 260 63 c 0,31,32
 290 79 290 79 312 109 c 1,33,34
 344 150 344 150 361 250 c 1,35,36
 383 371 383 371 363 419 c 0,37,38
 350 451 350 451 325 467 c 0,39,40
 302 482 302 482 269 482 c 256,41,42
 236 482 236 482 210 468 c 0,43,44
 182 453 182 453 160 425 c 0,45,46
 134 390 134 390 123 339 c 1,47,-1
 101 218 l 1,48,49
 93 151 93 151 110 107 c 0,50,51
 123 76 123 76 146 61 c 0,52,53
 166 48 166 48 197 48 c 0,29,30
EndSplineSet
EndChar

StartChar: uni0184
Encoding: 388 388 326
Width: 500
GlyphClass: 2
Flags: W
FFAnchorPoint: "Anchor-5" 371 0 basechar 0
FFAnchorPoint: "Anchor-4" 501 735 basechar 0
FFAnchorPoint: "Anchor-3" 250 367 basechar 0
FFAnchorPoint: "Anchor-2" 253 382 basechar 0
FFAnchorPoint: "Anchor-1" 185 0 basechar 0
FFAnchorPoint: "Anchor-0" 315 735 basechar 0
LayerCount: 2
Fore
SplineSet
0 0 m 1,0,-1
 109 623 l 1,1,-1
 63 679 l 1,2,-1
 129 735 l 1,3,-1
 192 735 l 1,4,-1
 139 432 l 1,5,-1
 242 432 l 2,6,7
 305 432 305 432 347 406 c 1,8,9
 387 380 387 380 405 333 c 0,10,11
 428 276 428 276 414 195 c 0,12,13
 403 130 403 130 369 86 c 0,14,15
 340 47 340 47 297 25 c 0,16,17
 250 0 250 0 189 0 c 2,18,-1
 0 0 l 1,0,-1
73 56 m 1,19,-1
 189 56 l 2,20,21
 231 56 231 56 265 74 c 0,22,23
 296 90 296 90 318 119 c 0,24,25
 344 154 344 154 353 204 c 0,26,27
 364 268 364 268 346 310 c 1,28,29
 334 342 334 342 307.5 359 c 128,-1,30
 281 376 281 376 242 376 c 2,31,-1
 129 376 l 1,32,-1
 73 56 l 1,19,-1
EndSplineSet
EndChar

StartChar: uni0185
Encoding: 389 389 327
Width: 500
GlyphClass: 2
Flags: W
FFAnchorPoint: "Anchor-5" 371 0 basechar 0
FFAnchorPoint: "Anchor-4" 501 735 basechar 0
FFAnchorPoint: "Anchor-3" 250 367 basechar 0
FFAnchorPoint: "Anchor-2" 253 382 basechar 0
FFAnchorPoint: "Anchor-1" 185 0 basechar 0
FFAnchorPoint: "Anchor-0" 315 735 basechar 0
LayerCount: 2
Fore
SplineSet
204 -8 m 0,0,1
 162 -8 162 -8 133 10 c 0,2,3
 101 31 101 31 84 73 c 0,4,5
 81 81 81 81 79 89 c 1,6,-1
 63 0 l 1,7,-1
 0 0 l 1,8,-1
 109 623 l 1,9,-1
 63 679 l 1,10,-1
 129 735 l 1,11,-1
 192 735 l 1,12,-1
 143 457 l 1,13,-1
 145 460 l 1,14,15
 173 498 173 498 213 518 c 1,16,17
 250 538 250 538 296 538 c 0,18,19
 341 538 341 538 371 518 c 1,20,21
 405 497 405 497 422 454 c 0,22,23
 449 389 449 389 423 241 c 0,24,25
 402 125 402 125 363 74 c 1,26,27
 334 34 334 34 293.5 13 c 128,-1,28
 253 -8 253 -8 204 -8 c 0,0,1
197 48 m 0,29,30
 231 48 231 48 260 63 c 0,31,32
 290 79 290 79 312 109 c 1,33,34
 344 150 344 150 361 250 c 1,35,36
 383 371 383 371 363 419 c 0,37,38
 350 451 350 451 325 467 c 0,39,40
 302 482 302 482 269 482 c 256,41,42
 236 482 236 482 210 468 c 0,43,44
 182 453 182 453 160 425 c 0,45,46
 134 390 134 390 123 339 c 1,47,-1
 101 218 l 1,48,49
 93 151 93 151 110 107 c 0,50,51
 123 76 123 76 146 61 c 0,52,53
 166 48 166 48 197 48 c 0,29,30
EndSplineSet
EndChar

StartChar: uni0186
Encoding: 390 390 328
Width: 500
GlyphClass: 2
Flags: W
FFAnchorPoint: "Anchor-5" 371 0 basechar 0
FFAnchorPoint: "Anchor-4" 501 735 basechar 0
FFAnchorPoint: "Anchor-3" 250 367 basechar 0
FFAnchorPoint: "Anchor-2" 253 382 basechar 0
FFAnchorPoint: "Anchor-1" 185 0 basechar 0
FFAnchorPoint: "Anchor-0" 315 735 basechar 0
LayerCount: 2
Fore
SplineSet
197 -8 m 0,0,1
 131 -8 131 -8 87 20 c 0,2,3
 47 46 47 46 31 87 c 0,4,5
 18 120 18 120 22 155 c 1,6,-1
 84 162 l 2,7,8
 83 161 83 161 83 158 c 0,9,10
 78 134 78 134 88 110 c 0,11,12
 99 83 99 83 124 67 c 0,13,14
 153 48 153 48 197 48 c 0,15,16
 236 48 236 48 268 64 c 1,17,18
 297 80 297 80 317 106 c 0,19,20
 341 139 341 139 349 184 c 2,21,-1
 410 529 l 2,22,23
 419 583 419 583 404 620 c 0,24,25
 392 651 392 651 365 669 c 1,26,27
 336 687 336 687 292 687 c 0,28,29
 253 687 253 687 220.5 670 c 128,-1,30
 188 653 188 653 164 621 c 0,31,32
 150 603 150 603 141 582 c 1,33,-1
 83 603 l 1,34,35
 96 631 96 631 113 653 c 0,36,37
 145 695 145 695 190.5 719 c 128,-1,38
 236 743 236 743 292 743 c 0,39,40
 361 743 361 743 405 715 c 0,41,42
 445 689 445 689 463 644 c 0,43,44
 484 592 484 592 471 519 c 2,45,-1
 410 174 l 2,46,47
 400 115 400 115 368 73 c 0,48,49
 341 37 341 37 301 16 c 0,50,51
 255 -8 255 -8 197 -8 c 0,0,1
EndSplineSet
EndChar

StartChar: uni0187
Encoding: 391 391 329
Width: 500
GlyphClass: 2
Flags: W
FFAnchorPoint: "Anchor-5" 371 0 basechar 0
FFAnchorPoint: "Anchor-4" 501 735 basechar 0
FFAnchorPoint: "Anchor-3" 250 367 basechar 0
FFAnchorPoint: "Anchor-2" 253 382 basechar 0
FFAnchorPoint: "Anchor-1" 185 0 basechar 0
FFAnchorPoint: "Anchor-0" 315 735 basechar 0
LayerCount: 2
Fore
SplineSet
209 -8 m 0,0,1
 140 -8 140 -8 96 20 c 0,2,3
 56 46 56 46 38 91 c 0,4,5
 17 143 17 143 30 216 c 2,6,-1
 91 561 l 2,7,8
 101 620 101 620 133 662 c 0,9,10
 160 698 160 698 200 719 c 0,11,12
 246 743 246 743 304 743 c 0,13,14
 370 743 370 743 414 715 c 0,15,16
 426 707 426 707 436 697 c 1,17,-1
 443 735 l 2,18,19
 453 791 453 791 484 832 c 0,20,21
 512 869 512 869 555 891 c 0,22,23
 606 918 606 918 672 918 c 1,24,-1
 672 862 l 1,25,26
 622 862 622 862 584 842 c 0,27,28
 553 826 553 826 534 800 c 0,29,30
 513 773 513 773 506 735 c 2,31,-1
 479 580 l 1,32,-1
 417 573 l 2,33,34
 418 574 418 574 418 577 c 2,35,-1
 419 580 l 1,36,-1
 416 580 l 1,37,-1
 419 598 l 1,38,39
 418 612 418 612 413 625 c 0,40,41
 402 652 402 652 377 668 c 0,42,43
 347 687 347 687 304 687 c 0,44,45
 265 687 265 687 233 671 c 1,46,47
 204 655 204 655 184 629 c 0,48,49
 160 596 160 596 152 551 c 2,50,-1
 91 206 l 2,51,52
 81 152 81 152 97 115 c 1,53,54
 109 84 109 84 136 66 c 1,55,56
 165 48 165 48 209 48 c 0,57,58
 248 48 248 48 280 65 c 128,-1,59
 312 82 312 82 337 114 c 0,60,61
 350 132 350 132 360 153 c 1,62,-1
 417 132 l 1,63,64
 406 106 406 106 388 82 c 0,65,66
 356 40 356 40 311 16 c 0,67,68
 265 -8 265 -8 209 -8 c 0,0,1
EndSplineSet
EndChar

StartChar: uni0188
Encoding: 392 392 330
Width: 500
GlyphClass: 2
Flags: W
FFAnchorPoint: "Anchor-5" 371 0 basechar 0
FFAnchorPoint: "Anchor-4" 465 530 basechar 0
FFAnchorPoint: "Anchor-3" 232 265 basechar 0
FFAnchorPoint: "Anchor-2" 234 275 basechar 0
FFAnchorPoint: "Anchor-1" 185 0 basechar 0
FFAnchorPoint: "Anchor-0" 279 530 basechar 0
LayerCount: 2
Fore
SplineSet
211 -8 m 0,0,1
 146 -8 146 -8 103 19 c 1,2,3
 62 46 62 46 43 94 c 0,4,5
 18 156 18 156 42 287 c 1,6,7
 62 402 62 402 100 453 c 0,8,9
 131 493 131 493 172 515 c 0,10,11
 216 538 216 538 269 538 c 0,12,13
 335 538 335 538 377 511 c 0,14,15
 390 503 390 503 400 492 c 1,16,-1
 407 530 l 2,17,18
 417 586 417 586 448 627 c 0,19,20
 476 664 476 664 518 686 c 0,21,22
 570 713 570 713 636 713 c 1,23,-1
 636 657 l 1,24,25
 586 657 586 657 548 637 c 0,26,27
 517 621 517 621 498 595 c 0,28,29
 477 568 477 568 470 530 c 2,30,-1
 443 375 l 1,31,-1
 382 363 l 1,32,33
 382 369 382 369 382 375 c 1,34,-1
 380 375 l 1,35,-1
 382 384 l 1,36,37
 380 403 380 403 373 419 c 0,38,39
 361 449 361 449 336 465 c 0,40,41
 309 482 309 482 269 482 c 0,42,43
 234 482 234 482 205 467 c 0,44,45
 175 451 175 451 152 421 c 0,46,47
 121 379 121 379 103 279 c 0,48,49
 83 165 83 165 102 118 c 0,50,51
 116 83 116 83 144 65 c 0,52,53
 171 48 171 48 211 48 c 0,54,55
 248 48 248 48 278 64 c 0,56,57
 311 81 311 81 337 115 c 0,58,59
 351 134 351 134 362 157 c 1,60,-1
 417 132 l 1,61,62
 405 107 405 107 388 85 c 0,63,64
 354 39 354 39 308 15 c 0,65,66
 265 -8 265 -8 211 -8 c 0,0,1
EndSplineSet
EndChar

StartChar: uni018A
Encoding: 394 394 332
Width: 500
GlyphClass: 2
Flags: W
FFAnchorPoint: "Anchor-5" 371 0 basechar 0
FFAnchorPoint: "Anchor-4" 501 735 basechar 0
FFAnchorPoint: "Anchor-3" 250 367 basechar 0
FFAnchorPoint: "Anchor-2" 253 382 basechar 0
FFAnchorPoint: "Anchor-1" 185 0 basechar 0
FFAnchorPoint: "Anchor-0" 315 735 basechar 0
LayerCount: 2
Fore
SplineSet
0 0 m 1,0,-1
 118 674 l 1,1,2
 94 654 94 654 78 565 c 1,3,-1
 15 565 l 1,4,5
 30 650 30 650 65 697 c 1,6,7
 82 718 82 718 99 728 c 1,8,9
 114 735 114 735 129 735 c 2,10,-1
 287 735 l 2,11,12
 346 735 346 735 387 709 c 0,13,14
 429 682 429 682 449 630 c 1,15,16
 478 559 478 559 459 451 c 2,17,-1
 422 242 l 2,18,19
 408 160 408 160 364 102 c 0,20,21
 329 55 329 55 279 29 c 0,22,23
 224 0 224 0 157 0 c 2,24,-1
 0 0 l 1,0,-1
73 56 m 1,25,-1
 157 56 l 2,26,27
 206 56 206 56 246 77 c 0,28,29
 284 97 284 97 313 135 c 0,30,31
 349 182 349 182 361 252 c 2,32,-1
 398 460 l 2,33,34
 414 551 414 551 391 608 c 0,35,36
 376 645 376 645 348 663 c 0,37,38
 323 679 323 679 287 679 c 2,39,-1
 182 679 l 1,40,-1
 73 56 l 1,25,-1
EndSplineSet
EndChar

StartChar: uni018B
Encoding: 395 395 333
Width: 500
GlyphClass: 2
Flags: W
FFAnchorPoint: "Anchor-5" 371 0 basechar 0
FFAnchorPoint: "Anchor-4" 501 735 basechar 0
FFAnchorPoint: "Anchor-3" 250 367 basechar 0
FFAnchorPoint: "Anchor-2" 253 382 basechar 0
FFAnchorPoint: "Anchor-1" 185 0 basechar 0
FFAnchorPoint: "Anchor-0" 315 735 basechar 0
LayerCount: 2
Fore
SplineSet
206 0 m 2,0,1
 143 0 143 0 100 27 c 0,2,3
 61 52 61 52 42 99 c 0,4,5
 19 156 19 156 33 237 c 0,6,7
 45 302 45 302 78 346 c 0,8,9
 108 385 108 385 150 407 c 0,10,11
 198 432 198 432 259 432 c 2,12,-1
 385 432 l 1,13,-1
 428 679 l 1,14,-1
 157 679 l 1,15,-1
 166 735 l 1,16,-1
 501 735 l 1,17,-1
 372 0 l 1,18,-1
 206 0 l 2,0,1
206 56 m 2,19,-1
 319 56 l 1,20,-1
 375 376 l 1,21,-1
 259 376 l 2,22,23
 217 376 217 376 182 358 c 0,24,25
 151 342 151 342 130 313 c 0,26,27
 104 279 104 279 95 227 c 0,28,29
 84 166 84 166 101 122 c 0,30,31
 114 90 114 90 140.5 73 c 128,-1,32
 167 56 167 56 206 56 c 2,19,-1
EndSplineSet
EndChar

StartChar: uni018C
Encoding: 396 396 334
Width: 500
GlyphClass: 2
Flags: W
FFAnchorPoint: "Anchor-5" 371 0 basechar 0
FFAnchorPoint: "Anchor-4" 501 735 basechar 0
FFAnchorPoint: "Anchor-3" 250 367 basechar 0
FFAnchorPoint: "Anchor-2" 253 382 basechar 0
FFAnchorPoint: "Anchor-1" 185 0 basechar 0
FFAnchorPoint: "Anchor-0" 315 735 basechar 0
LayerCount: 2
Fore
SplineSet
169 -8 m 0,0,1
 124 -8 124 -8 93 12 c 0,2,3
 60 33 60 33 42 76 c 0,4,5
 16 142 16 142 42 289 c 0,6,7
 62 404 62 404 101 456 c 0,8,9
 131 496 131 496 171 517 c 0,10,11
 212 538 212 538 261 538 c 0,12,13
 303 538 303 538 331 520 c 0,14,15
 364 499 364 499 380 457 c 0,16,17
 383 449 383 449 386 440 c 1,18,-1
 428 679 l 1,19,-1
 157 679 l 1,20,-1
 166 735 l 1,21,-1
 501 735 l 1,22,-1
 372 0 l 1,23,-1
 309 0 l 1,24,-1
 322 73 l 1,25,-1
 320 70 l 1,26,27
 291 32 291 32 252 12 c 0,28,29
 215 -8 215 -8 169 -8 c 0,0,1
195 48 m 256,30,31
 228 48 228 48 255 62 c 0,32,33
 283 77 283 77 305 105 c 1,34,35
 334 145 334 145 344 203 c 2,36,-1
 360 293 l 2,37,38
 375 373 375 373 355 423 c 0,39,40
 342 454 342 454 319 469 c 0,41,42
 298 482 298 482 268 482 c 0,43,44
 234 482 234 482 205 467 c 0,45,46
 175 451 175 451 152 421 c 0,47,48
 121 379 121 379 104 280 c 0,49,50
 82 159 82 159 102 111 c 1,51,52
 114 79 114 79 140 63 c 1,53,54
 162 48 162 48 195 48 c 256,30,31
EndSplineSet
EndChar

StartChar: uni018D
Encoding: 397 397 335
Width: 500
GlyphClass: 2
Flags: W
FFAnchorPoint: "Anchor-5" 335 -205 basechar 0
FFAnchorPoint: "Anchor-4" 465 530 basechar 0
FFAnchorPoint: "Anchor-3" 214 162 basechar 0
FFAnchorPoint: "Anchor-2" 216 177 basechar 0
FFAnchorPoint: "Anchor-1" 149 -205 basechar 0
FFAnchorPoint: "Anchor-0" 279 530 basechar 0
LayerCount: 2
Fore
SplineSet
164 -213 m 0,0,1
 84 -213 84 -213 -1 -164 c 1,2,-1
 8 -108 l 1,3,4
 91 -157 91 -157 160 -157 c 0,5,6
 195 -157 195 -157 223 -143 c 0,7,8
 244 -132 244 -132 257 -113 c 1,9,10
 273 -92 273 -92 278 -66 c 0,11,12
 282 -42 282 -42 274 -23 c 1,13,14
 268 -6 268 -6 253.5 3.5 c 128,-1,15
 239 13 239 13 201 19 c 0,16,17
 128 32 128 32 96 53 c 0,18,19
 63 74 63 74 46 115 c 0,20,21
 22 176 22 176 43 293 c 1,22,23
 62 405 62 405 99 454 c 0,24,25
 128 493 128 493 170 515 c 0,26,27
 214 538 214 538 269 538 c 0,28,29
 328 538 328 538 366.5 513 c 128,-1,30
 405 488 405 488 424 442 c 0,31,32
 448 383 448 383 425 252 c 0,33,34
 408 160 408 160 379 121 c 0,35,36
 351 84 351 84 309 62 c 0,37,38
 299 57 299 57 288 52 c 1,39,40
 294 50 294 50 299 47 c 0,41,42
 323 31 323 31 335 3 c 0,43,44
 348 -30 348 -30 340 -70 c 1,45,46
 333 -113 333 -113 307 -148 c 0,47,48
 285 -176 285 -176 255 -192 c 0,49,50
 215 -213 215 -213 164 -213 c 0,0,1
236 69 m 1,51,52
 250 73 250 73 262 80 c 0,53,54
 293 96 293 96 316 126 c 0,55,56
 347 166 347 166 363 261 c 0,57,58
 383 374 383 374 365 420 c 0,59,60
 352 451 352 451 327 467 c 0,61,62
 304 482 304 482 269 482 c 0,63,64
 232 482 232 482 202.5 466.5 c 128,-1,65
 173 451 173 451 151 422 c 0,66,67
 121 383 121 383 104 284.5 c 128,-1,68
 87 186 87 186 104 142 c 0,69,70
 116 113 116 113 138 99 c 0,71,72
 159 85 159 85 220 73 c 0,73,74
 229 71 229 71 236 69 c 1,51,52
EndSplineSet
EndChar

StartChar: uni018E
Encoding: 398 398 336
Width: 500
GlyphClass: 2
Flags: W
FFAnchorPoint: "Anchor-5" 371 0 basechar 0
FFAnchorPoint: "Anchor-4" 501 735 basechar 0
FFAnchorPoint: "Anchor-3" 250 367 basechar 0
FFAnchorPoint: "Anchor-2" 253 382 basechar 0
FFAnchorPoint: "Anchor-1" 185 0 basechar 0
FFAnchorPoint: "Anchor-0" 315 735 basechar 0
LayerCount: 2
Fore
SplineSet
0 0 m 1,0,-1
 10 56 l 1,1,-1
 287 56 l 1,2,-1
 331 310 l 1,3,-1
 110 310 l 1,4,-1
 120 366 l 1,5,-1
 341 366 l 1,6,-1
 396 679 l 1,7,-1
 119 679 l 1,8,-1
 129 735 l 1,9,-1
 469 735 l 1,10,-1
 340 0 l 1,11,-1
 0 0 l 1,0,-1
EndSplineSet
EndChar

StartChar: uni018F
Encoding: 399 399 337
Width: 500
GlyphClass: 2
Flags: W
FFAnchorPoint: "Anchor-5" 371 0 basechar 0
FFAnchorPoint: "Anchor-4" 501 735 basechar 0
FFAnchorPoint: "Anchor-3" 250 367 basechar 0
FFAnchorPoint: "Anchor-2" 253 382 basechar 0
FFAnchorPoint: "Anchor-1" 185 0 basechar 0
FFAnchorPoint: "Anchor-0" 315 735 basechar 0
LayerCount: 2
Fore
SplineSet
195 -8 m 0,0,1
 139 -8 139 -8 100 17 c 128,-1,2
 61 42 61 42 43 88 c 0,3,4
 18 149 18 149 34 241 c 2,5,-1
 61 396 l 1,6,-1
 386 396 l 1,7,-1
 405 504 l 2,8,9
 417 570 417 570 399 615 c 0,10,11
 385 650 385 650 356.5 668.5 c 128,-1,12
 328 687 328 687 284 687 c 0,13,14
 245 687 245 687 213 670 c 0,15,16
 180 653 180 653 154 619 c 0,17,18
 152 617 152 617 148.5 611.5 c 128,-1,19
 145 606 145 606 143 603 c 1,20,-1
 88 628 l 1,21,22
 95 639 95 639 102 648 c 0,23,24
 136 694 136 694 183 719 c 0,25,26
 229 743 229 743 284 743 c 0,27,28
 352 743 352 743 396 715 c 0,29,30
 438 688 438 688 458 639 c 0,31,32
 482 579 482 579 467 494 c 2,33,-1
 415 199 l 2,34,35
 402 126 402 126 364 76 c 0,36,37
 334 37 334 37 291.5 14.5 c 128,-1,38
 249 -8 249 -8 195 -8 c 0,0,1
196 48 m 0,39,40
 231 48 231 48 260 63 c 0,41,42
 290 79 290 79 313 109 c 0,43,44
 343 149 343 149 353 209 c 2,45,-1
 376 340 l 1,46,-1
 114 340 l 1,47,-1
 95 231 l 2,48,49
 83 158 83 158 101 111 c 1,50,51
 115 79 115 79 139 63 c 0,52,53
 162 48 162 48 196 48 c 0,39,40
EndSplineSet
EndChar

StartChar: uni0190
Encoding: 400 400 338
Width: 500
GlyphClass: 2
Flags: W
FFAnchorPoint: "Anchor-5" 371 0 basechar 0
FFAnchorPoint: "Anchor-4" 501 735 basechar 0
FFAnchorPoint: "Anchor-3" 250 367 basechar 0
FFAnchorPoint: "Anchor-2" 253 382 basechar 0
FFAnchorPoint: "Anchor-1" 185 0 basechar 0
FFAnchorPoint: "Anchor-0" 315 735 basechar 0
LayerCount: 2
Fore
SplineSet
205 -8 m 0,0,1
 137 -8 137 -8 92 21 c 0,2,3
 51 47 51 47 32 94 c 0,4,5
 10 150 10 150 23 224 c 0,6,7
 32 276 32 276 58 310 c 0,8,9
 85 346 85 346 127 367 c 0,10,11
 147 378 147 378 171 385 c 1,12,13
 165 388 165 388 159 392 c 0,14,15
 125 414 125 414 108 454 c 1,16,17
 89 503 89 503 100 571 c 0,18,19
 110 627 110 627 138 664 c 0,20,21
 165 699 165 699 203 719 c 0,22,23
 249 743 249 743 307 743 c 0,24,25
 372 743 372 743 415 715 c 0,26,27
 455 690 455 690 472 646 c 0,28,29
 476 637 476 637 479 625 c 1,30,-1
 420 606 l 1,31,32
 419 615 419 615 415 624 c 0,33,34
 404 652 404 652 378 669 c 0,35,36
 350 687 350 687 307 687 c 0,37,38
 267 687 267 687 236 671 c 0,39,40
 209 656 209 656 190 632 c 1,41,42
 169 603 169 603 162 561 c 0,43,44
 152 507 152 507 167 468 c 0,45,46
 179 439 179 439 201.5 424.5 c 128,-1,47
 224 410 224 410 258 410 c 2,48,-1
 314 410 l 1,49,-1
 309 382 l 1,50,-1
 304 354 l 1,51,-1
 248 354 l 2,52,53
 203 354 203 354 167 336 c 1,54,55
 136 319 136 319 116 292 c 0,56,57
 93 261 93 261 85 216 c 0,58,59
 75 159 75 159 91 118 c 0,60,61
 104 85 104 85 132 67 c 0,62,63
 162 48 162 48 205 48 c 0,64,65
 245 48 245 48 277 65 c 0,66,67
 310 82 310 82 335 115 c 0,68,69
 343 125 343 125 348 135 c 1,70,-1
 404 110 l 1,71,72
 396 96 396 96 387 85 c 0,73,74
 354 40 354 40 307.5 16 c 128,-1,75
 261 -8 261 -8 205 -8 c 0,0,1
EndSplineSet
EndChar

StartChar: uni0191
Encoding: 401 401 339
Width: 500
GlyphClass: 2
Flags: W
FFAnchorPoint: "Anchor-5" 371 0 basechar 0
FFAnchorPoint: "Anchor-4" 501 735 basechar 0
FFAnchorPoint: "Anchor-3" 250 367 basechar 0
FFAnchorPoint: "Anchor-2" 253 382 basechar 0
FFAnchorPoint: "Anchor-1" 185 0 basechar 0
FFAnchorPoint: "Anchor-0" 315 735 basechar 0
LayerCount: 2
Fore
SplineSet
-134 -183 m 1,0,-1
 -134 -127 l 1,1,2
 -84 -127 -84 -127 -46 -107 c 0,3,4
 -15 -91 -15 -91 4 -65 c 0,5,6
 25 -38 25 -38 32 0 c 2,7,-1
 161 735 l 1,8,-1
 501 735 l 1,9,-1
 491 679 l 1,10,-1
 214 679 l 1,11,-1
 170 425 l 1,12,-1
 391 425 l 1,13,-1
 381 369 l 1,14,-1
 160 369 l 1,15,-1
 95 0 l 2,16,17
 85 -56 85 -56 54 -97 c 0,18,19
 26 -134 26 -134 -17 -156 c 0,20,21
 -68 -183 -68 -183 -134 -183 c 1,0,-1
EndSplineSet
EndChar

StartChar: uni0193
Encoding: 403 403 341
Width: 500
GlyphClass: 2
Flags: W
FFAnchorPoint: "Anchor-5" 371 0 basechar 0
FFAnchorPoint: "Anchor-4" 501 735 basechar 0
FFAnchorPoint: "Anchor-3" 250 367 basechar 0
FFAnchorPoint: "Anchor-2" 253 382 basechar 0
FFAnchorPoint: "Anchor-1" 185 0 basechar 0
FFAnchorPoint: "Anchor-0" 315 735 basechar 0
LayerCount: 2
Fore
SplineSet
195 -8 m 0,0,1
 134 -8 134 -8 93 18 c 0,2,3
 55 43 55 43 38 86 c 0,4,5
 16 140 16 140 30 216 c 2,6,-1
 91 561 l 2,7,8
 101 620 101 620 133 662 c 0,9,10
 160 698 160 698 200 719 c 0,11,12
 246 743 246 743 304 743 c 0,13,14
 370 743 370 743 414 715 c 0,15,16
 426 707 426 707 436 697 c 1,17,-1
 443 735 l 2,18,19
 453 791 453 791 484 832 c 0,20,21
 512 869 512 869 555 891 c 0,22,23
 606 918 606 918 672 918 c 1,24,-1
 672 862 l 1,25,26
 622 862 622 862 584 842 c 0,27,28
 553 826 553 826 534 800 c 0,29,30
 513 773 513 773 506 735 c 1,31,-1
 505 727 l 1,32,-1
 479 580 l 1,33,-1
 417 573 l 2,34,35
 418 574 418 574 418 577 c 2,36,-1
 419 580 l 1,37,-1
 416 580 l 1,38,-1
 419 598 l 1,39,40
 418 612 418 612 413 625 c 0,41,42
 402 652 402 652 377 668 c 0,43,44
 347 687 347 687 304 687 c 0,45,46
 265 687 265 687 233 671 c 1,47,48
 204 655 204 655 184 629 c 0,49,50
 160 596 160 596 152 551 c 2,51,-1
 91 206 l 2,52,53
 81 148 81 148 97 110 c 1,54,55
 108 80 108 80 133 64 c 128,-1,56
 158 48 158 48 195 48 c 256,57,58
 232 48 232 48 260 63 c 128,-1,59
 288 78 288 78 308 104 c 0,60,61
 333 136 333 136 341 184 c 2,62,-1
 369 340 l 1,63,-1
 256 340 l 1,64,-1
 256 396 l 1,65,-1
 442 396 l 1,66,-1
 432 340 l 1,67,-1
 402 174 l 2,68,69
 392 114 392 114 360 71 c 0,70,71
 332 35 332 35 293 14 c 0,72,73
 250 -8 250 -8 195 -8 c 0,0,1
EndSplineSet
EndChar

StartChar: uni0194
Encoding: 404 404 342
Width: 500
GlyphClass: 2
Flags: W
FFAnchorPoint: "Anchor-5" 335 -205 basechar 0
FFAnchorPoint: "Anchor-4" 501 735 basechar 0
FFAnchorPoint: "Anchor-3" 232 265 basechar 0
FFAnchorPoint: "Anchor-2" 235 283 basechar 0
FFAnchorPoint: "Anchor-1" 149 -205 basechar 0
FFAnchorPoint: "Anchor-0" 315 735 basechar 0
LayerCount: 2
Fore
SplineSet
165 -205 m 0,0,1
 132 -205 132 -205 110 -191 c 0,2,3
 92 -180 92 -180 84 -160 c 128,-1,4
 76 -140 76 -140 82 -107 c 0,5,6
 104 15 104 15 192 220 c 1,7,8
 176 434 176 434 121 735 c 1,9,-1
 184 735 l 1,10,-1
 184 734 l 1,11,12
 224 510 224 510 243 334 c 1,13,14
 324 510 324 510 446 735 c 1,15,-1
 509 735 l 1,16,17
 344 428 344 428 254 217 c 1,18,19
 270 -2 270 -2 247 -130 c 0,20,21
 242 -159 242 -159 230 -174 c 0,22,23
 220 -188 220 -188 205 -196 c 0,24,25
 188 -205 188 -205 165 -205 c 0,0,1
165 -149 m 0,26,27
 181 -149 181 -149 185 -124 c 0,28,29
 200 -41 200 -41 198 78 c 1,30,31
 163 -19 163 -19 150 -88 c 0,32,33
 149 -91 149 -91 146 -104 c 0,34,35
 144 -112 144 -112 143 -119 c 0,36,37
 141 -134 141 -134 147 -141.5 c 128,-1,38
 153 -149 153 -149 165 -149 c 0,26,27
EndSplineSet
EndChar

StartChar: uni0195
Encoding: 405 405 343
Width: 500
GlyphClass: 2
Flags: W
LayerCount: 2
Fore
SplineSet
266 -8 m 0,0,1
 238 -8 238 -8 219 4 c 0,2,3
 197 18 197 18 187 45 c 0,4,5
 170 87 170 87 181 154 c 1,6,-1
 201 265 l 1,7,-1
 202 270 l 1,8,-1
 224 395 l 2,9,10
 233 448 233 448 214 470 c 1,11,12
 205 482 205 482 188 482 c 0,13,14
 170 482 170 482 157 470 c 1,15,16
 135 452 135 452 128 415 c 2,17,-1
 127 410 l 1,18,-1
 127 409 l 1,19,-1
 55 0 l 1,20,-1
 -8 0 l 1,21,-1
 121 735 l 1,22,-1
 184 735 l 1,23,-1
 144 505 l 1,24,25
 157 519 157 519 173 528 c 0,26,27
 193 538 193 538 216 538 c 0,28,29
 238 538 238 538 253 528 c 0,30,31
 271 517 271 517 281 493 c 0,32,33
 297 452 297 452 285 385 c 2,34,-1
 265 270 l 1,35,-1
 264 265 l 1,36,-1
 243 145 l 2,37,38
 232 83 232 83 252 59 c 0,39,40
 261 48 261 48 276 48 c 0,41,42
 292 48 292 48 306 60 c 0,43,44
 331 81 331 81 339 129 c 2,45,-1
 410 530 l 1,46,-1
 473 530 l 1,47,-1
 401 119 l 2,48,49
 393 75 393 75 370 44 c 0,50,51
 351 19 351 19 325 5.5 c 128,-1,52
 299 -8 299 -8 266 -8 c 0,0,1
EndSplineSet
EndChar

StartChar: uni0196
Encoding: 406 406 344
Width: 500
GlyphClass: 2
Flags: W
FFAnchorPoint: "Anchor-5" 371 0 basechar 0
FFAnchorPoint: "Anchor-4" 501 735 basechar 0
FFAnchorPoint: "Anchor-3" 250 367 basechar 0
FFAnchorPoint: "Anchor-2" 253 382 basechar 0
FFAnchorPoint: "Anchor-1" 185 0 basechar 0
FFAnchorPoint: "Anchor-0" 315 735 basechar 0
LayerCount: 2
Fore
SplineSet
369 0 m 1,0,-1
 318 0 l 2,1,2
 265 0 265 0 230 22 c 0,3,4
 201 41 201 41 188 73 c 0,5,6
 174 109 174 109 182 160 c 1,7,-1
 274 679 l 1,8,-1
 134 679 l 1,9,-1
 134 735 l 1,10,-1
 347 735 l 1,11,-1
 244 150 l 2,12,13
 238 119 238 119 247 97 c 0,14,15
 254 78 254 78 271 68 c 1,16,17
 289 56 289 56 318 56 c 2,18,-1
 379 56 l 1,19,-1
 369 0 l 1,0,-1
EndSplineSet
EndChar

StartChar: uni0198
Encoding: 408 408 346
Width: 500
GlyphClass: 2
Flags: W
FFAnchorPoint: "Anchor-5" 371 0 basechar 0
FFAnchorPoint: "Anchor-4" 501 735 basechar 0
FFAnchorPoint: "Anchor-3" 250 367 basechar 0
FFAnchorPoint: "Anchor-2" 253 382 basechar 0
FFAnchorPoint: "Anchor-1" 185 0 basechar 0
FFAnchorPoint: "Anchor-0" 315 735 basechar 0
LayerCount: 2
Fore
SplineSet
0 0 m 1,0,-1
 97 552 l 2,1,2
 107 608 107 608 138 649 c 0,3,4
 165 686 165 686 208 708 c 0,5,6
 260 735 260 735 326 735 c 1,7,-1
 326 679 l 1,8,9
 275 679 275 679 238 659 c 0,10,11
 207 643 207 643 188 617 c 0,12,13
 167 590 167 590 160 552 c 2,14,-1
 129 373 l 1,15,16
 292 517 292 517 380 634 c 0,17,18
 429 699 429 699 435 735 c 1,19,-1
 501 735 l 1,20,21
 494 692 494 692 435 614 c 0,22,23
 378 538 378 538 295 453 c 1,24,25
 400 116 400 116 380 0 c 1,26,-1
 317 0 l 1,27,28
 335 105 335 105 246 405 c 1,29,30
 185 346 185 346 113 283 c 1,31,-1
 63 0 l 1,32,-1
 0 0 l 1,0,-1
EndSplineSet
EndChar

StartChar: uni0199
Encoding: 409 409 347
Width: 500
GlyphClass: 2
Flags: W
FFAnchorPoint: "Anchor-5" 371 0 basechar 0
FFAnchorPoint: "Anchor-4" 501 735 basechar 0
FFAnchorPoint: "Anchor-3" 250 367 basechar 0
FFAnchorPoint: "Anchor-2" 253 382 basechar 0
FFAnchorPoint: "Anchor-1" 185 0 basechar 0
FFAnchorPoint: "Anchor-0" 315 735 basechar 0
LayerCount: 2
Fore
SplineSet
0 0 m 1,0,-1
 97 552 l 2,1,2
 107 608 107 608 138 649 c 0,3,4
 165 686 165 686 208 708 c 0,5,6
 260 735 260 735 326 735 c 1,7,-1
 326 679 l 1,8,9
 275 679 275 679 238 659 c 0,10,11
 207 643 207 643 188 617 c 0,12,13
 167 590 167 590 160 552 c 2,14,-1
 112 280 l 1,15,16
 316 410 316 410 381 496 c 0,17,18
 396 516 396 516 399 530 c 1,19,-1
 465 530 l 1,20,21
 462 512 462 512 441 484 c 0,22,23
 390 416 390 416 275 328 c 1,24,25
 312 252 312 252 336 191 c 0,26,27
 390 57 390 57 380 0 c 1,28,-1
 317 0 l 1,29,30
 326 52 326 52 277 174 c 0,31,32
 256 227 256 227 225 290 c 1,33,34
 168 249 168 249 99 204 c 1,35,-1
 63 0 l 1,36,-1
 0 0 l 1,0,-1
EndSplineSet
EndChar

StartChar: uni019C
Encoding: 412 412 350
Width: 500
GlyphClass: 2
Flags: W
FFAnchorPoint: "Anchor-5" 371 0 basechar 0
FFAnchorPoint: "Anchor-4" 501 735 basechar 0
FFAnchorPoint: "Anchor-3" 250 367 basechar 0
FFAnchorPoint: "Anchor-2" 253 382 basechar 0
FFAnchorPoint: "Anchor-1" 185 0 basechar 0
FFAnchorPoint: "Anchor-0" 315 735 basechar 0
LayerCount: 2
Fore
SplineSet
86 -8 m 0,0,1
 65 -8 65 -8 51 1 c 0,2,3
 33 12 33 12 23 37 c 0,4,5
 6 81 6 81 19 154 c 2,6,-1
 121 735 l 1,7,-1
 184 735 l 1,8,-1
 80 143 l 2,9,10
 69 83 69 83 89 59 c 0,11,12
 98 48 98 48 112 48 c 256,13,14
 126 48 126 48 137 58 c 0,15,16
 168 84 168 84 182 157 c 1,17,-1
 183 166 l 1,18,-1
 284 735 l 1,19,-1
 347 735 l 1,20,-1
 242 143 l 2,21,22
 232 82 232 82 252 59 c 1,23,24
 260 48 260 48 275 48 c 0,25,26
 288 48 288 48 299 58 c 0,27,28
 331 84 331 84 346 163 c 1,29,-1
 346 166 l 1,30,-1
 446 735 l 1,31,-1
 509 735 l 1,32,-1
 380 0 l 1,33,-1
 317 0 l 1,34,-1
 323 35 l 1,35,36
 306 12 306 12 285 1 c 0,37,38
 268 -8 268 -8 248 -8 c 256,39,40
 228 -8 228 -8 213 1 c 0,41,42
 195 13 195 13 186 37 c 0,43,44
 181 49 181 49 178 64 c 1,45,46
 171 48 171 48 161 35 c 0,47,48
 142 11 142 11 122 1 c 0,49,50
 105 -8 105 -8 86 -8 c 0,0,1
EndSplineSet
EndChar

StartChar: uni019D
Encoding: 413 413 351
Width: 500
GlyphClass: 2
Flags: W
FFAnchorPoint: "Anchor-5" 371 0 basechar 0
FFAnchorPoint: "Anchor-4" 501 735 basechar 0
FFAnchorPoint: "Anchor-3" 250 367 basechar 0
FFAnchorPoint: "Anchor-2" 253 382 basechar 0
FFAnchorPoint: "Anchor-1" 185 0 basechar 0
FFAnchorPoint: "Anchor-0" 315 735 basechar 0
LayerCount: 2
Fore
SplineSet
-166 -183 m 1,0,-1
 -166 -127 l 1,1,2
 -116 -127 -116 -127 -78 -107 c 0,3,4
 -47 -91 -47 -91 -28 -65 c 0,5,6
 -7 -38 -7 -38 0 0 c 2,7,-1
 51 294 l 1,8,-1
 129 735 l 1,9,-1
 220 735 l 1,10,-1
 327 102 l 1,11,-1
 386 441 l 1,12,-1
 438 735 l 1,13,-1
 501 735 l 1,14,-1
 449 441 l 1,15,-1
 372 0 l 1,16,-1
 281 0 l 1,17,-1
 174 634 l 1,18,-1
 114 294 l 1,19,-1
 63 0 l 2,20,21
 53 -56 53 -56 22 -97 c 0,22,23
 -6 -134 -6 -134 -49 -156 c 0,24,25
 -100 -183 -100 -183 -166 -183 c 1,0,-1
EndSplineSet
EndChar

StartChar: uni019E
Encoding: 414 414 352
Width: 500
GlyphClass: 2
Flags: W
FFAnchorPoint: "Anchor-7" 27 0 basechar 0
FFAnchorPoint: "Anchor-5" 335 -205 basechar 0
FFAnchorPoint: "Anchor-4" 465 530 basechar 0
FFAnchorPoint: "Anchor-3" 214 162 basechar 0
FFAnchorPoint: "Anchor-2" 216 177 basechar 0
FFAnchorPoint: "Anchor-1" 149 -205 basechar 0
FFAnchorPoint: "Anchor-0" 279 530 basechar 0
LayerCount: 2
Fore
SplineSet
273 -205 m 1,0,-1
 361 299 l 2,1,2
 375 374 375 374 356 423 c 0,3,4
 343 454 343 454 320 469 c 0,5,6
 299 482 299 482 269 482 c 0,7,8
 236 482 236 482 209 468 c 0,9,10
 181 453 181 453 159 425 c 0,11,12
 133 390 133 390 122 338 c 1,13,-1
 121 331 l 1,14,-1
 121 329 l 1,15,-1
 63 0 l 1,16,-1
 0 0 l 1,17,-1
 93 530 l 1,18,-1
 156 530 l 1,19,-1
 144 460 l 1,20,21
 172 498 172 498 211 518 c 128,-1,22
 250 538 250 538 295 538 c 0,23,24
 337 538 337 538 366 520 c 0,25,26
 398 499 398 499 415 457 c 0,27,28
 441 392 441 392 423 289 c 2,29,-1
 335 -205 l 1,30,-1
 273 -205 l 1,0,-1
EndSplineSet
EndChar

StartChar: uni019F
Encoding: 415 415 353
Width: 500
GlyphClass: 2
Flags: W
FFAnchorPoint: "Anchor-5" 371 0 basechar 0
FFAnchorPoint: "Anchor-4" 501 735 basechar 0
FFAnchorPoint: "Anchor-3" 250 367 basechar 0
FFAnchorPoint: "Anchor-2" 253 382 basechar 0
FFAnchorPoint: "Anchor-1" 185 0 basechar 0
FFAnchorPoint: "Anchor-0" 315 735 basechar 0
LayerCount: 2
Fore
SplineSet
195 -8 m 0,0,1
 134 -8 134 -8 93 18 c 0,2,3
 55 43 55 43 38 86 c 0,4,5
 16 140 16 140 30 216 c 2,6,-1
 91 561 l 2,7,8
 101 619 101 619 132 661 c 0,9,10
 160 698 160 698 201 719 c 0,11,12
 246 743 246 743 306 743 c 0,13,14
 367 743 367 743 407 717 c 1,15,16
 446 693 446 693 463 649 c 0,17,18
 485 595 485 595 471 519 c 2,19,-1
 410 174 l 2,20,21
 400 116 400 116 369 74 c 0,22,23
 341 37 341 37 300 16 c 0,24,25
 254 -8 254 -8 195 -8 c 0,0,1
124 396 m 1,26,-1
 386 396 l 1,27,-1
 410 529 l 2,28,29
 420 587 420 587 404 625 c 1,30,31
 393 655 393 655 367 671 c 1,32,33
 343 687 343 687 305 687 c 0,34,35
 265 687 265 687 233 670 c 0,36,37
 204 655 204 655 184 628 c 0,38,39
 160 596 160 596 152 551 c 2,40,-1
 124 396 l 1,26,-1
196 48 m 0,41,42
 236 48 236 48 268 65 c 0,43,44
 297 80 297 80 317 107 c 0,45,46
 341 139 341 139 349 184 c 2,47,-1
 377 340 l 1,48,-1
 115 340 l 1,49,-1
 91 206 l 2,50,51
 81 148 81 148 97 110 c 1,52,53
 108 80 108 80 133.5 64 c 128,-1,54
 159 48 159 48 196 48 c 0,41,42
EndSplineSet
EndChar

StartChar: uni01A2
Encoding: 418 418 356
Width: 500
GlyphClass: 2
Flags: W
FFAnchorPoint: "Anchor-5" 371 0 basechar 0
FFAnchorPoint: "Anchor-4" 501 735 basechar 0
FFAnchorPoint: "Anchor-3" 250 367 basechar 0
FFAnchorPoint: "Anchor-2" 253 382 basechar 0
FFAnchorPoint: "Anchor-1" 185 0 basechar 0
FFAnchorPoint: "Anchor-0" 315 735 basechar 0
LayerCount: 2
Fore
SplineSet
289 -205 m 1,0,-1
 436 633 l 1,1,2
 423 623 423 623 408 615 c 0,3,4
 374 598 374 598 329 592 c 1,5,-1
 329 590 l 1,6,-1
 246 119 l 2,7,8
 238 74 238 74 215 43 c 0,9,10
 196 18 196 18 171 5 c 128,-1,11
 146 -8 146 -8 113 -8 c 0,12,13
 76 -8 76 -8 51.5 8 c 128,-1,14
 27 24 27 24 14 53 c 1,15,16
 0 91 0 91 9 145 c 2,17,-1
 92 616 l 2,18,19
 100 662 100 662 124 692 c 0,20,21
 142 716 142 716 167 729.5 c 128,-1,22
 192 743 192 743 225 743 c 0,23,24
 262 743 262 743 287 727 c 128,-1,25
 312 711 312 711 324 682 c 0,26,27
 330 666 330 666 332 648 c 1,28,29
 359 652 359 652 379 663 c 0,30,31
 415 682 415 682 443 718 c 0,32,33
 450 728 450 728 454 735 c 1,34,-1
 517 735 l 1,35,-1
 351 -205 l 1,36,-1
 289 -205 l 1,0,-1
114 48 m 256,37,38
 135 48 135 48 151 62 c 0,39,40
 177 84 177 84 185 129 c 2,41,-1
 268 600 l 2,42,43
 277 649 277 649 257 673 c 0,44,45
 246 687 246 687 224 687 c 0,46,47
 204 687 204 687 187 673 c 0,48,49
 162 651 162 651 153 606 c 1,50,-1
 70 135 l 2,51,52
 62 86 62 86 81 62 c 0,53,54
 93 48 93 48 114 48 c 256,37,38
EndSplineSet
EndChar

StartChar: uni01A3
Encoding: 419 419 357
Width: 500
GlyphClass: 2
Flags: W
FFAnchorPoint: "Anchor-5" 335 -205 basechar 0
FFAnchorPoint: "Anchor-4" 465 530 basechar 0
FFAnchorPoint: "Anchor-3" 214 162 basechar 0
FFAnchorPoint: "Anchor-2" 216 177 basechar 0
FFAnchorPoint: "Anchor-1" 149 -205 basechar 0
FFAnchorPoint: "Anchor-0" 279 530 basechar 0
LayerCount: 2
Fore
SplineSet
289 -205 m 1,0,-1
 400 428 l 1,1,2
 387 418 387 418 372 410 c 0,3,4
 338 393 338 393 293 387 c 1,5,-1
 293 385 l 1,6,-1
 246 119 l 2,7,8
 238 74 238 74 215 43 c 0,9,10
 196 18 196 18 171 5 c 128,-1,11
 146 -8 146 -8 113 -8 c 0,12,13
 76 -8 76 -8 51.5 8 c 128,-1,14
 27 24 27 24 14 53 c 1,15,16
 0 91 0 91 9 145 c 2,17,-1
 56 411 l 2,18,19
 64 456 64 456 87 487 c 0,20,21
 106 512 106 512 131 525 c 128,-1,22
 156 538 156 538 189 538 c 0,23,24
 226 538 226 538 251 522 c 128,-1,25
 276 506 276 506 288 477 c 0,26,27
 294 461 294 461 296 443 c 1,28,29
 322 447 322 447 343 458 c 0,30,31
 379 477 379 477 407 514 c 1,32,-1
 408 515 l 1,33,34
 415 525 415 525 418 530 c 1,35,-1
 481 530 l 1,36,-1
 351 -205 l 1,37,-1
 289 -205 l 1,0,-1
114 48 m 256,38,39
 135 48 135 48 151 62 c 0,40,41
 177 84 177 84 185 129 c 2,42,-1
 232 395 l 2,43,44
 240 444 240 444 221 468 c 0,45,46
 209 482 209 482 188 482 c 256,47,48
 167 482 167 482 151 468 c 0,49,50
 125 446 125 446 117 401 c 2,51,-1
 70 135 l 2,52,53
 62 86 62 86 81 62 c 0,54,55
 93 48 93 48 114 48 c 256,38,39
EndSplineSet
EndChar

StartChar: uni01A4
Encoding: 420 420 358
Width: 500
GlyphClass: 2
Flags: W
FFAnchorPoint: "Anchor-5" 371 0 basechar 0
FFAnchorPoint: "Anchor-4" 501 735 basechar 0
FFAnchorPoint: "Anchor-3" 250 367 basechar 0
FFAnchorPoint: "Anchor-2" 253 382 basechar 0
FFAnchorPoint: "Anchor-1" 185 0 basechar 0
FFAnchorPoint: "Anchor-0" 315 735 basechar 0
LayerCount: 2
Fore
SplineSet
16 0 m 1,0,-1
 134 674 l 1,1,2
 110 654 110 654 94 565 c 1,3,-1
 31 565 l 1,4,5
 46 650 46 650 81 697 c 1,6,7
 98 718 98 718 115 728 c 1,8,9
 130 735 130 735 145 735 c 2,10,-1
 302 735 l 2,11,12
 364 735 364 735 404 709 c 0,13,14
 443 684 443 684 460 639 c 1,15,16
 483 584 483 584 469 507 c 0,17,18
 458 444 458 444 426 402 c 0,19,20
 398 364 398 364 357 343 c 0,21,22
 310 318 310 318 252 318 c 2,23,-1
 135 318 l 1,24,-1
 79 0 l 1,25,-1
 16 0 l 1,0,-1
252 374 m 2,26,27
 292 374 292 374 324 391 c 0,28,29
 354 407 354 407 374 434 c 0,30,31
 399 467 399 467 408 516 c 0,32,33
 418 575 418 575 402 616 c 0,34,35
 389 647 389 647 364 663 c 128,-1,36
 339 679 339 679 302 679 c 2,37,-1
 198 679 l 1,38,-1
 145 374 l 1,39,-1
 252 374 l 2,26,27
EndSplineSet
EndChar

StartChar: uni01A5
Encoding: 421 421 359
Width: 500
GlyphClass: 2
Flags: W
FFAnchorPoint: "Anchor-5" 335 -205 basechar 0
FFAnchorPoint: "Anchor-4" 501 735 basechar 0
FFAnchorPoint: "Anchor-3" 232 265 basechar 0
FFAnchorPoint: "Anchor-2" 235 283 basechar 0
FFAnchorPoint: "Anchor-1" 149 -205 basechar 0
FFAnchorPoint: "Anchor-0" 315 735 basechar 0
LayerCount: 2
Fore
SplineSet
-37 -205 m 1,0,-1
 94 536 l 2,1,2
 107 610 107 610 145 660 c 0,3,4
 175 700 175 700 216.5 721.5 c 128,-1,5
 258 743 258 743 309 743 c 0,6,7
 373 743 373 743 413 717 c 0,8,9
 450 693 450 693 467 652 c 1,10,11
 480 618 480 618 479 580 c 1,12,-1
 418 567 l 1,13,14
 420 599 420 599 409 626 c 0,15,16
 398 655 398 655 372.5 671 c 128,-1,17
 347 687 347 687 309 687 c 0,18,19
 276 687 276 687 248 672 c 0,20,21
 219 657 219 657 197 628 c 0,22,23
 167 588 167 588 155 526 c 1,24,-1
 143 456 l 1,25,-1
 145 460 l 1,26,27
 173 498 173 498 213 518 c 1,28,29
 250 538 250 538 296 538 c 0,30,31
 341 538 341 538 371 518 c 1,32,33
 405 497 405 497 422 454 c 0,34,35
 449 389 449 389 423 241 c 0,36,37
 402 125 402 125 363 74 c 1,38,39
 334 34 334 34 293.5 13 c 128,-1,40
 253 -8 253 -8 204 -8 c 0,41,42
 162 -8 162 -8 133 10 c 0,43,44
 101 31 101 31 84 73 c 0,45,46
 81 81 81 81 78 90 c 1,47,-1
 26 -205 l 1,48,-1
 -37 -205 l 1,0,-1
197 48 m 0,49,50
 231 48 231 48 260 63 c 0,51,52
 290 79 290 79 312 109 c 1,53,54
 344 150 344 150 361 250 c 1,55,56
 383 371 383 371 363 419 c 0,57,58
 350 451 350 451 325 467 c 0,59,60
 302 482 302 482 269 482 c 256,61,62
 236 482 236 482 210 468 c 0,63,64
 182 453 182 453 160 425 c 0,65,66
 131 386 131 386 120 327 c 2,67,-1
 104 237 l 2,68,69
 90 157 90 157 110 107 c 0,70,71
 123 76 123 76 146 61 c 0,72,73
 166 48 166 48 197 48 c 0,49,50
EndSplineSet
EndChar

StartChar: uni01A6
Encoding: 422 422 360
Width: 500
GlyphClass: 2
Flags: W
FFAnchorPoint: "Anchor-5" 335 -205 basechar 0
FFAnchorPoint: "Anchor-4" 501 735 basechar 0
FFAnchorPoint: "Anchor-3" 232 265 basechar 0
FFAnchorPoint: "Anchor-2" 235 283 basechar 0
FFAnchorPoint: "Anchor-1" 149 -205 basechar 0
FFAnchorPoint: "Anchor-0" 315 735 basechar 0
LayerCount: 2
Fore
SplineSet
347 -205 m 1,0,-1
 284 -205 l 1,1,2
 314 -34 314 -34 213 219 c 0,3,4
 213 220 213 220 212 223 c 0,5,6
 210 226 210 226 209 228 c 1,7,-1
 103 228 l 1,8,-1
 63 0 l 1,9,-1
 0 0 l 1,10,-1
 110 625 l 1,11,-1
 129 735 l 1,12,-1
 192 735 l 1,13,-1
 173 625 l 1,14,-1
 292 625 l 2,15,16
 350 625 350 625 390 600 c 1,17,18
 426 576 426 576 443 533 c 1,19,20
 465 481 465 481 451 407 c 1,21,22
 441 348 441 348 410 307 c 0,23,24
 384 272 384 272 345 251 c 0,25,26
 313 234 313 234 275 230 c 1,27,28
 378 -28 378 -28 347 -205 c 1,0,-1
113 284 m 1,29,-1
 245 284 l 2,30,31
 282 284 282 284 312 300 c 0,32,33
 339 314 339 314 359 340 c 0,34,35
 382 371 382 371 390 417 c 0,36,37
 400 472 400 472 384 510 c 0,38,39
 373 538 373 538 349.5 553.5 c 128,-1,40
 326 569 326 569 292 569 c 2,41,-1
 163 569 l 1,42,-1
 113 284 l 1,29,-1
EndSplineSet
EndChar

StartChar: uni01A7
Encoding: 423 423 361
Width: 500
GlyphClass: 2
Flags: W
FFAnchorPoint: "Anchor-5" 371 0 basechar 0
FFAnchorPoint: "Anchor-4" 501 735 basechar 0
FFAnchorPoint: "Anchor-3" 250 367 basechar 0
FFAnchorPoint: "Anchor-2" 253 382 basechar 0
FFAnchorPoint: "Anchor-1" 185 0 basechar 0
FFAnchorPoint: "Anchor-0" 315 735 basechar 0
LayerCount: 2
Fore
SplineSet
211 -8 m 0,0,1
 141 -8 141 -8 96 21 c 0,2,3
 58 45 58 45 42 87 c 1,4,5
 23 133 23 133 33 188 c 1,6,7
 41 239 41 239 75 283 c 0,8,9
 112 332 112 332 185 371 c 0,10,11
 207 382 207 382 242 398 c 0,12,13
 274 413 274 413 290 421 c 0,14,15
 348 452 348 452 377 490 c 0,16,17
 401 522 401 522 407 558 c 0,18,19
 414 596 414 596 401 628 c 0,20,21
 391 655 391 655 367 670 c 0,22,23
 341 687 341 687 301 687 c 0,24,25
 266 687 266 687 237.5 672 c 128,-1,26
 209 657 209 657 188 629.5 c 128,-1,27
 167 602 167 602 158 568 c 1,28,-1
 97 580 l 1,29,30
 110 624 110 624 137 660 c 0,31,32
 167 700 167 700 208.5 721.5 c 128,-1,33
 250 743 250 743 301 743 c 0,34,35
 365 743 365 743 406 717 c 0,36,37
 443 693 443 693 459 652 c 1,38,39
 479 604 479 604 468 547 c 1,40,41
 460 497 460 497 426 452 c 0,42,43
 389 403 389 403 315 364 c 0,44,45
 296 354 296 354 260 337 c 0,46,47
 229 323 229 323 213 315 c 0,48,49
 153 283 153 283 123 244 c 1,50,51
 100 212 100 212 94 178 c 0,52,53
 87 141 87 141 100 110 c 1,54,55
 110 83 110 83 136 67 c 0,56,57
 165 48 165 48 211 48 c 0,58,59
 251 48 251 48 284 65 c 0,60,61
 315 81 315 81 336 110 c 0,62,63
 350 128 350 128 358 149 c 1,64,-1
 417 132 l 1,65,66
 406 103 406 103 387 79 c 0,67,68
 357 39 357 39 314 16 c 0,69,70
 268 -8 268 -8 211 -8 c 0,0,1
EndSplineSet
EndChar

StartChar: uni01A8
Encoding: 424 424 362
Width: 500
GlyphClass: 2
Flags: W
FFAnchorPoint: "Anchor-5" 371 0 basechar 0
FFAnchorPoint: "Anchor-4" 465 530 basechar 0
FFAnchorPoint: "Anchor-3" 232 265 basechar 0
FFAnchorPoint: "Anchor-2" 234 275 basechar 0
FFAnchorPoint: "Anchor-1" 185 0 basechar 0
FFAnchorPoint: "Anchor-0" 279 530 basechar 0
LayerCount: 2
Fore
SplineSet
215 -8 m 0,0,1
 133 -8 133 -8 84 24 c 1,2,3
 48 46 48 46 34 82 c 0,4,5
 20 116 20 116 27 154 c 1,6,7
 32 188 32 188 54 217 c 0,8,9
 77 247 77 247 112 265 c 0,10,11
 150 285 150 285 235 296 c 0,12,13
 295 304 295 304 324 319 c 0,14,15
 347 332 347 332 361 350 c 0,16,17
 374 367 374 367 377 387 c 0,18,19
 381 408 381 408 373 428 c 0,20,21
 365 449 365 449 344 463 c 0,22,23
 314 482 314 482 263 482 c 0,24,25
 216 482 216 482 184 465 c 0,26,27
 160 453 160 453 143 431 c 1,28,29
 133 416 133 416 127 401 c 1,30,-1
 69 420 l 1,31,32
 77 444 77 444 93 465 c 0,33,34
 116 496 116 496 150 514 c 0,35,36
 197 538 197 538 263 538 c 0,37,38
 337 538 337 538 382 509 c 0,39,40
 416 487 416 487 430.5 451 c 128,-1,41
 445 415 445 415 438 376 c 0,42,43
 432 342 432 342 411 313 c 1,44,45
 388 284 388 284 354 266 c 0,46,47
 316 246 316 246 230 234 c 0,48,49
 170 225 170 225 141 210 c 0,50,51
 118 198 118 198 103 179 c 1,52,53
 91 162 91 162 88 144 c 0,54,55
 84 124 84 124 91 105 c 1,56,57
 100 84 100 84 122 70 c 0,58,59
 156 48 156 48 215 48 c 0,60,61
 268 48 268 48 303 67 c 0,62,63
 334 83 334 83 354 112 c 1,64,-1
 409 85 l 1,65,66
 403 76 403 76 399 71 c 0,67,68
 374 37 374 37 335 17 c 0,69,70
 287 -8 287 -8 215 -8 c 0,0,1
EndSplineSet
EndChar

StartChar: uni01A9
Encoding: 425 425 363
Width: 500
GlyphClass: 2
Flags: W
FFAnchorPoint: "Anchor-5" 371 0 basechar 0
FFAnchorPoint: "Anchor-4" 501 735 basechar 0
FFAnchorPoint: "Anchor-3" 250 367 basechar 0
FFAnchorPoint: "Anchor-2" 253 382 basechar 0
FFAnchorPoint: "Anchor-1" 185 0 basechar 0
FFAnchorPoint: "Anchor-0" 315 735 basechar 0
LayerCount: 2
Fore
SplineSet
0 0 m 1,0,-1
 10 56 l 1,1,-1
 213 368 l 1,2,-1
 119 679 l 1,3,-1
 129 735 l 1,4,-1
 501 735 l 1,5,-1
 491 679 l 1,6,-1
 184 679 l 1,7,-1
 278 368 l 1,8,-1
 74 56 l 1,9,-1
 382 56 l 1,10,-1
 372 0 l 1,11,-1
 0 0 l 1,0,-1
EndSplineSet
EndChar

StartChar: uni01AA
Encoding: 426 426 364
Width: 500
GlyphClass: 2
Flags: W
FFAnchorPoint: "Anchor-5" 335 -205 basechar 0
FFAnchorPoint: "Anchor-4" 501 735 basechar 0
FFAnchorPoint: "Anchor-3" 232 265 basechar 0
FFAnchorPoint: "Anchor-2" 235 283 basechar 0
FFAnchorPoint: "Anchor-1" 149 -205 basechar 0
FFAnchorPoint: "Anchor-0" 315 735 basechar 0
LayerCount: 2
Fore
SplineSet
328 -183 m 1,0,1
 256 -183 256 -183 212 -154 c 0,2,3
 176 -131 176 -131 161 -94 c 0,4,5
 145 -54 145 -54 154 0 c 2,6,-1
 255 569 l 1,7,8
 243 567 243 567 229 567 c 0,9,10
 201 567 201 567 182 579 c 0,11,12
 167 589 167 589 160 606 c 0,13,14
 152 625 152 625 157 651 c 128,-1,15
 162 677 162 677 176 696 c 0,16,17
 188 713 188 713 208 723 c 0,18,19
 230 735 230 735 259 735 c 256,20,21
 288 735 288 735 306 723 c 0,22,23
 322 713 322 713 329 696 c 0,24,25
 337 677 337 677 332 651 c 2,26,-1
 217 0 l 2,27,28
 210 -40 210 -40 222 -68 c 1,29,30
 232 -94 232 -94 256 -109 c 0,31,32
 284 -127 284 -127 328 -127 c 1,33,-1
 328 -183 l 1,0,1
239 623 m 0,34,35
 250 623 250 623 258 629 c 1,36,37
 266 637 266 637 268.5 651 c 128,-1,38
 271 665 271 665 265 673 c 0,39,40
 260 679 260 679 249 679 c 0,41,42
 239 679 239 679 231 673 c 0,43,44
 222 665 222 665 219.5 651 c 128,-1,45
 217 637 217 637 224 629 c 0,46,47
 229 623 229 623 239 623 c 0,34,35
EndSplineSet
EndChar

StartChar: uni01AB
Encoding: 427 427 365
Width: 500
GlyphClass: 2
Flags: W
FFAnchorPoint: "Anchor-5" 335 -205 basechar 0
FFAnchorPoint: "Anchor-4" 501 735 basechar 0
FFAnchorPoint: "Anchor-3" 232 265 basechar 0
FFAnchorPoint: "Anchor-2" 235 283 basechar 0
FFAnchorPoint: "Anchor-1" 149 -205 basechar 0
FFAnchorPoint: "Anchor-0" 315 735 basechar 0
LayerCount: 2
Fore
SplineSet
211 -183 m 1,0,-1
 211 -127 l 1,1,2
 261 -127 261 -127 300 -107 c 0,3,4
 330 -91 330 -91 350 -65 c 0,5,6
 371 -37 371 -37 377 0 c 1,7,-1
 381 21 l 1,8,9
 372 15 372 15 362 10 c 0,10,11
 328 -8 328 -8 286 -8 c 0,12,13
 233 -8 233 -8 197 15 c 0,14,15
 163 37 163 37 147 77 c 0,16,17
 127 128 127 128 140 202 c 2,18,-1
 188 474 l 1,19,-1
 76 474 l 1,20,-1
 76 530 l 1,21,-1
 198 530 l 1,22,-1
 234 735 l 1,23,-1
 297 735 l 1,24,-1
 261 530 l 1,25,-1
 426 530 l 1,26,-1
 426 474 l 1,27,-1
 251 474 l 1,28,-1
 201 192 l 2,29,30
 191 136 191 136 206 100 c 0,31,32
 216 74 216 74 237 61 c 0,33,34
 257 48 257 48 286 48 c 0,35,36
 311 48 311 48 332 59 c 0,37,38
 356 72 356 72 377 98 c 1,39,40
 394 122 394 122 406 153 c 1,41,-1
 463 132 l 1,42,-1
 440 0 l 2,43,44
 430 -56 430 -56 399 -97 c 0,45,46
 372 -134 372 -134 329 -156 c 0,47,48
 278 -183 278 -183 211 -183 c 1,0,-1
EndSplineSet
EndChar

StartChar: uni01AC
Encoding: 428 428 366
Width: 500
GlyphClass: 2
Flags: W
FFAnchorPoint: "Anchor-5" 217 0 basechar 0
FFAnchorPoint: "Anchor-4" 501 735 basechar 0
FFAnchorPoint: "Anchor-3" 250 367 basechar 0
FFAnchorPoint: "Anchor-2" 253 382 basechar 0
FFAnchorPoint: "Anchor-1" 185 0 basechar 0
FFAnchorPoint: "Anchor-0" 315 735 basechar 0
LayerCount: 2
Fore
SplineSet
154 0 m 1,0,-1
 274 679 l 1,1,-1
 213 679 l 2,2,3
 208 679 208 679 202 674 c 0,4,5
 178 654 178 654 162 565 c 1,6,-1
 99 565 l 1,7,8
 114 650 114 650 149 697 c 1,9,10
 166 718 166 718 183 728 c 1,11,12
 198 735 198 735 213 735 c 2,13,-1
 501 735 l 1,14,-1
 491 679 l 1,15,-1
 337 679 l 1,16,-1
 217 0 l 1,17,-1
 154 0 l 1,0,-1
EndSplineSet
EndChar

